STARTFONT 2.1
FONT -FontForge-Noto Mono-Book-R-Normal--32-310-75-75-P-189-ISO8859-1
SIZE 31 75 75
FONTBOUNDINGBOX 25 43 -4 -9
COMMENT "Generated by fontforge, http://fontforge.sourceforge.net"
COMMENT "Copyright 2007 Google Inc. All Rights Reserved."
STARTPROPERTIES 41
FOUNDRY "FontForge"
FAMILY_NAME "Noto Mono"
WEIGHT_NAME "Book"
SLANT "R"
SETWIDTH_NAME "Normal"
ADD_STYLE_NAME ""
PIXEL_SIZE 32
POINT_SIZE 310
RESOLUTION_X 75
RESOLUTION_Y 75
SPACING "P"
AVERAGE_WIDTH 189
CHARSET_REGISTRY "ISO8859"
CHARSET_ENCODING "1"
FONTNAME_REGISTRY ""
CHARSET_COLLECTIONS "ISO8859-2 ISO8859-5 ISO8859-7 ISO8859-9 ISO8859-4 ISOLatin1Encoding"
FONT_NAME "NotoMono"
FACE_NAME "Noto Mono"
COPYRIGHT "Copyright 2007 Google Inc. All Rights Reserved."
FONT_VERSION "1.00"
FONT_ASCENT 26
FONT_DESCENT 6
UNDERLINE_POSITION -3
UNDERLINE_THICKNESS 2
X_HEIGHT 16
CAP_HEIGHT 22
DEFAULT_CHAR 1
RAW_ASCENT 799
RAW_DESCENT 200
NORM_SPACE 19
RELATIVE_WEIGHT 40
RELATIVE_SETWIDTH 50
SUPERSCRIPT_X 0
SUPERSCRIPT_Y 15
SUPERSCRIPT_SIZE 20
SUBSCRIPT_X 0
SUBSCRIPT_Y 4
SUBSCRIPT_SIZE 20
FIGURE_WIDTH 19
AVG_LOWERCASE_WIDTH 190
AVG_UPPERCASE_WIDTH 190
ENDPROPERTIES
CHARS 897
STARTCHAR uni0000
ENCODING 0
SWIDTH 0 0
DWIDTH 0 0
BBX 1 1 0 0
BITMAP
00
ENDCHAR
STARTCHAR uni000D
ENCODING 13
SWIDTH 600 0
DWIDTH 19 0
BBX 1 1 0 0
BITMAP
00
ENDCHAR
STARTCHAR space
ENCODING 32
SWIDTH 600 0
DWIDTH 19 0
BBX 1 1 0 0
BITMAP
00
ENDCHAR
STARTCHAR exclam
ENCODING 33
SWIDTH 600 0
DWIDTH 19 0
BBX 4 23 8 0
BITMAP
F0
F0
F0
F0
F0
60
60
60
60
60
60
60
60
60
60
60
00
00
00
F0
F0
F0
60
ENDCHAR
STARTCHAR quotedbl
ENCODING 34
SWIDTH 600 0
DWIDTH 19 0
BBX 11 9 4 14
BITMAP
F1E0
F1E0
F1E0
E1C0
E1C0
E1C0
E1C0
60C0
60C0
ENDCHAR
STARTCHAR numbersign
ENCODING 35
SWIDTH 600 0
DWIDTH 19 0
BBX 18 23 1 0
BITMAP
018300
038700
038700
030600
030600
030600
070E00
7FFFC0
7FFFC0
060C00
060C00
0E1C00
0C1800
0C1800
FFFF80
FFFF80
1C3800
183000
183000
183000
383000
387000
306000
ENDCHAR
STARTCHAR dollar
ENCODING 36
SWIDTH 600 0
DWIDTH 19 0
BBX 13 25 3 -1
BITMAP
0600
0600
0600
1FE0
7FF0
7EF0
E600
E600
E600
E600
7600
3E00
1FC0
07E0
06F0
0638
0638
0638
8638
F7F0
FFE0
7F80
0600
0600
0600
ENDCHAR
STARTCHAR percent
ENCODING 37
SWIDTH 600 0
DWIDTH 19 0
BBX 19 23 0 0
BITMAP
3E0700
7F0600
630E00
E38C00
C19C00
C19800
C19800
E3B800
633000
7F7000
3E6000
00E000
00CF80
01DFC0
0198C0
03B8E0
033060
033060
073060
0638E0
0E18C0
0C1FC0
1C0F80
ENDCHAR
STARTCHAR ampersand
ENCODING 38
SWIDTH 600 0
DWIDTH 19 0
BBX 18 23 1 0
BITMAP
07C000
1FF000
1EF000
383800
383800
383800
383800
1C7000
1CE000
0FC000
0F8000
1F8000
3FC380
79C380
F0E700
E07700
E07F00
E03E00
E01C00
F03E00
7FFF00
3FE780
1F83C0
ENDCHAR
STARTCHAR quotesingle
ENCODING 39
SWIDTH 600 0
DWIDTH 19 0
BBX 4 9 8 14
BITMAP
F0
F0
F0
E0
E0
E0
E0
60
60
ENDCHAR
STARTCHAR parenleft
ENCODING 40
SWIDTH 600 0
DWIDTH 19 0
BBX 8 28 5 -5
BITMAP
07
07
0E
1C
38
38
70
70
70
E0
E0
E0
E0
E0
E0
E0
E0
E0
E0
70
70
70
38
38
1C
0E
07
07
ENDCHAR
STARTCHAR parenright
ENCODING 41
SWIDTH 600 0
DWIDTH 19 0
BBX 9 28 5 -5
BITMAP
F000
7000
3800
1C00
0E00
0E00
0700
0700
0700
0380
0380
0380
0380
0380
0380
0380
0380
0380
0380
0700
0700
0700
0E00
0E00
1C00
3800
7000
7000
ENDCHAR
STARTCHAR asterisk
ENCODING 42
SWIDTH 600 0
DWIDTH 19 0
BBX 15 14 2 10
BITMAP
0380
0380
0380
0380
8382
F9BE
FFFE
0FE0
07C0
0EE0
0EE0
1C70
3C78
0820
ENDCHAR
STARTCHAR plus
ENCODING 43
SWIDTH 600 0
DWIDTH 19 0
BBX 14 14 2 4
BITMAP
0300
0300
0300
0300
0300
0300
FFFC
FFFC
0300
0300
0300
0300
0300
0300
ENDCHAR
STARTCHAR comma
ENCODING 44
SWIDTH 600 0
DWIDTH 19 0
BBX 5 9 7 -5
BITMAP
78
78
70
70
70
60
E0
E0
C0
ENDCHAR
STARTCHAR hyphen
ENCODING 45
SWIDTH 600 0
DWIDTH 19 0
BBX 11 3 4 7
BITMAP
FFE0
FFE0
FFE0
ENDCHAR
STARTCHAR period
ENCODING 46
SWIDTH 600 0
DWIDTH 19 0
BBX 5 5 7 0
BITMAP
70
F8
F8
F8
70
ENDCHAR
STARTCHAR slash
ENCODING 47
SWIDTH 600 0
DWIDTH 19 0
BBX 13 23 3 0
BITMAP
0038
0030
0070
0060
00E0
00E0
01C0
01C0
0380
0380
0300
0700
0600
0E00
0E00
1C00
1C00
3800
3800
3000
7000
6000
E000
ENDCHAR
STARTCHAR zero
ENCODING 48
SWIDTH 600 0
DWIDTH 19 0
BBX 15 23 2 0
BITMAP
07C0
1FF0
3EF8
7838
701C
701C
E00C
E00E
E00E
E00E
E00E
E00E
E00E
E00E
E00E
E00E
E00E
701C
701C
383C
3EF8
1FF0
07C0
ENDCHAR
STARTCHAR one
ENCODING 49
SWIDTH 600 0
DWIDTH 19 0
BBX 9 23 3 0
BITMAP
0380
0F80
1F80
3F80
7B80
E380
4380
0380
0380
0380
0380
0380
0380
0380
0380
0380
0380
0380
0380
0380
0380
0380
0380
ENDCHAR
STARTCHAR two
ENCODING 50
SWIDTH 600 0
DWIDTH 19 0
BBX 15 23 2 0
BITMAP
0FC0
3FF0
FCF8
603C
001C
001C
001C
001C
001C
0038
0038
0070
00E0
01C0
0380
0700
0E00
1C00
3800
7000
FFFE
FFFE
FFFE
ENDCHAR
STARTCHAR three
ENCODING 51
SWIDTH 600 0
DWIDTH 19 0
BBX 14 23 2 0
BITMAP
1FC0
7FE0
FDF0
6078
0038
0038
0038
0038
0070
00E0
1FC0
1FC0
03F0
0038
001C
001C
001C
001C
001C
8038
FBF8
FFF0
3F80
ENDCHAR
STARTCHAR four
ENCODING 52
SWIDTH 600 0
DWIDTH 19 0
BBX 16 23 1 0
BITMAP
0038
0078
00F8
00F8
01F8
03B8
0338
0738
0E38
0C38
1C38
3838
3038
7038
E038
FFFF
FFFF
FFFF
0038
0038
0038
0038
0038
ENDCHAR
STARTCHAR five
ENCODING 53
SWIDTH 600 0
DWIDTH 19 0
BBX 13 23 3 0
BITMAP
7FE0
7FE0
7FE0
6000
E000
E000
E000
E000
E000
FF80
FFE0
73F0
0070
0038
0038
0038
0038
0038
0038
8070
FBE0
FFC0
3F80
ENDCHAR
STARTCHAR six
ENCODING 54
SWIDTH 600 0
DWIDTH 19 0
BBX 15 23 2 0
BITMAP
01F8
0FF8
1F98
3C00
3800
7000
7000
7000
E000
E3E0
EFF8
FC3C
F01C
E00E
E00E
E00E
E00E
600E
700E
781C
3EF8
1FF0
07E0
ENDCHAR
STARTCHAR seven
ENCODING 55
SWIDTH 600 0
DWIDTH 19 0
BBX 15 23 2 0
BITMAP
FFFE
FFFE
FFFE
000C
001C
001C
0038
0038
0070
0070
0060
00E0
00E0
01C0
01C0
0380
0380
0700
0700
0700
0E00
0E00
1C00
ENDCHAR
STARTCHAR eight
ENCODING 56
SWIDTH 600 0
DWIDTH 19 0
BBX 15 23 2 0
BITMAP
07C0
1FF0
3EF8
701C
701C
701C
701C
701C
3838
1EF0
0FE0
0FE0
3CF8
783C
701C
E00E
E00E
E00E
E00E
F01C
7EFC
3FF8
0FE0
ENDCHAR
STARTCHAR nine
ENCODING 57
SWIDTH 600 0
DWIDTH 19 0
BBX 15 23 2 0
BITMAP
0FC0
3FF0
7EF8
703C
E01C
E00C
E00E
E00E
E00E
E00E
701E
787E
3FEE
0F8E
000E
001C
001C
001C
0038
0078
21F0
3FC0
3F00
ENDCHAR
STARTCHAR colon
ENCODING 58
SWIDTH 600 0
DWIDTH 19 0
BBX 4 17 8 0
BITMAP
F0
F0
F0
F0
00
00
00
00
00
00
00
00
00
F0
F0
F0
F0
ENDCHAR
STARTCHAR semicolon
ENCODING 59
SWIDTH 600 0
DWIDTH 19 0
BBX 5 21 7 -4
BITMAP
78
78
78
78
00
00
00
00
00
00
00
00
00
78
78
70
70
70
E0
E0
C0
ENDCHAR
STARTCHAR less
ENCODING 60
SWIDTH 600 0
DWIDTH 19 0
BBX 15 16 2 3
BITMAP
0002
000E
003E
00F8
03E0
0F80
7E00
F000
F000
7E00
0F80
03E0
00F8
003E
000E
0002
ENDCHAR
STARTCHAR equal
ENCODING 61
SWIDTH 600 0
DWIDTH 19 0
BBX 15 9 2 7
BITMAP
FFFE
FFFE
0000
0000
0000
0000
0000
FFFE
FFFE
ENDCHAR
STARTCHAR greater
ENCODING 62
SWIDTH 600 0
DWIDTH 19 0
BBX 15 16 2 3
BITMAP
8000
E000
F800
3E00
0F80
03E0
00FC
001E
001E
00FC
03E0
0F80
3E00
F800
E000
8000
ENDCHAR
STARTCHAR question
ENCODING 63
SWIDTH 600 0
DWIDTH 19 0
BBX 13 23 3 0
BITMAP
1F80
FFE0
FFF0
4078
0038
0038
0038
0038
0070
00F0
01E0
03C0
0700
0700
0600
0600
0000
0000
0000
0F00
0F00
0F00
0600
ENDCHAR
STARTCHAR at
ENCODING 64
SWIDTH 600 0
DWIDTH 19 0
BBX 19 26 0 -3
BITMAP
01F800
07FE00
0E0F00
1C0380
380180
3001C0
60FCC0
63FCE0
670C60
E60C60
CE0C60
CE0C60
CE0C60
CE1C60
CE1C60
CE1C60
CE1CC0
E734C0
67F7C0
63E380
700000
380000
1C0000
1E0300
07FF00
01FC00
ENDCHAR
STARTCHAR A
ENCODING 65
SWIDTH 600 0
DWIDTH 19 0
BBX 17 23 1 0
BITMAP
01C000
01E000
03E000
036000
036000
077000
077000
063000
0E3800
0E3800
0E1800
1C1C00
1C1C00
1FFC00
1FFC00
3FFE00
380E00
380600
700700
700700
700700
E00380
E00380
ENDCHAR
STARTCHAR B
ENCODING 66
SWIDTH 600 0
DWIDTH 19 0
BBX 16 23 2 0
BITMAP
FFE0
FFF8
E1FC
E01E
E00E
E00E
E00E
E00E
E01C
E03C
FFF0
FFF0
E0FC
E00E
E00F
E007
E007
E007
E00F
E00E
E0FE
FFFC
FFF0
ENDCHAR
STARTCHAR C
ENCODING 67
SWIDTH 600 0
DWIDTH 19 0
BBX 16 23 2 0
BITMAP
01FC
07FF
1FFE
3E02
3800
7800
7000
F000
E000
E000
E000
E000
E000
E000
E000
F000
7000
7000
7800
3C00
1FFE
0FFE
03FC
ENDCHAR
STARTCHAR D
ENCODING 68
SWIDTH 600 0
DWIDTH 19 0
BBX 16 23 2 0
BITMAP
FF80
FFE0
E7F8
E07C
E01C
E00E
E00E
E00F
E007
E007
E007
E007
E007
E007
E007
E00E
E00E
E01E
E01C
E07C
E7F8
FFE0
FF80
ENDCHAR
STARTCHAR E
ENCODING 69
SWIDTH 600 0
DWIDTH 19 0
BBX 13 23 3 0
BITMAP
FFF8
FFF8
FFF8
E000
E000
E000
E000
E000
E000
E000
FFF0
FFF0
FFF0
E000
E000
E000
E000
E000
E000
E000
FFF8
FFF8
FFF8
ENDCHAR
STARTCHAR F
ENCODING 70
SWIDTH 600 0
DWIDTH 19 0
BBX 13 23 4 0
BITMAP
FFF8
FFF8
FFF8
E000
E000
E000
E000
E000
E000
E000
E000
FFF0
FFF0
FFF0
E000
E000
E000
E000
E000
E000
E000
E000
E000
ENDCHAR
STARTCHAR G
ENCODING 71
SWIDTH 600 0
DWIDTH 19 0
BBX 15 23 2 0
BITMAP
03F8
0FFE
1FFC
3C04
3800
7000
7000
F000
E000
E000
E000
E07E
E07E
E07E
E00E
E00E
700E
700E
780E
3C0E
1FFE
0FFE
03F8
ENDCHAR
STARTCHAR H
ENCODING 72
SWIDTH 600 0
DWIDTH 19 0
BBX 15 23 2 0
BITMAP
E00E
E00E
E00E
E00E
E00E
E00E
E00E
E00E
E00E
E00E
FFFE
FFFE
FFFE
E00E
E00E
E00E
E00E
E00E
E00E
E00E
E00E
E00E
E00E
ENDCHAR
STARTCHAR I
ENCODING 73
SWIDTH 600 0
DWIDTH 19 0
BBX 13 23 3 0
BITMAP
FFF8
FFF8
0700
0700
0700
0700
0700
0700
0700
0700
0700
0700
0700
0700
0700
0700
0700
0700
0700
0700
0700
FFF8
FFF8
ENDCHAR
STARTCHAR J
ENCODING 74
SWIDTH 600 0
DWIDTH 19 0
BBX 13 23 2 0
BITMAP
0038
0038
0038
0038
0038
0038
0038
0038
0038
0038
0038
0038
0038
0038
0038
0038
0038
0038
0078
00F0
FFE0
FFC0
7F00
ENDCHAR
STARTCHAR K
ENCODING 75
SWIDTH 600 0
DWIDTH 19 0
BBX 16 23 3 0
BITMAP
E00F
E01E
E03C
E038
E070
E0E0
E1C0
E3C0
E780
EF00
EF00
FF00
FB80
E3C0
E1C0
E0E0
E0F0
E070
E038
E03C
E01E
E00E
E00F
ENDCHAR
STARTCHAR L
ENCODING 76
SWIDTH 600 0
DWIDTH 19 0
BBX 12 23 4 0
BITMAP
E000
E000
E000
E000
E000
E000
E000
E000
E000
E000
E000
E000
E000
E000
E000
E000
E000
E000
E000
E000
FFF0
FFF0
FFF0
ENDCHAR
STARTCHAR M
ENCODING 77
SWIDTH 600 0
DWIDTH 19 0
BBX 15 23 2 0
BITMAP
F01E
F01E
F01E
F01E
D836
D836
D836
D836
D836
CC66
CC66
CC66
CC66
CC66
C6C6
C6C6
C6C6
C6C6
C6C6
C386
C386
C386
C386
ENDCHAR
STARTCHAR N
ENCODING 78
SWIDTH 600 0
DWIDTH 19 0
BBX 15 23 2 0
BITMAP
F00E
F00E
F80E
F80E
D80E
DC0E
EC0E
EE0E
E60E
E70E
E30E
E38E
E18E
E1CE
E0CE
E0EE
E06E
E07E
E036
E03E
E03E
E01E
E01E
ENDCHAR
STARTCHAR O
ENCODING 79
SWIDTH 600 0
DWIDTH 19 0
BBX 17 23 1 0
BITMAP
07F000
1FF800
3FFC00
3C1E00
780F00
700700
700700
E00380
E00380
E00380
E00380
E00380
E00380
E00380
E00380
E00380
700700
700700
780F00
3C1E00
3FFC00
1FF800
07F000
ENDCHAR
STARTCHAR P
ENCODING 80
SWIDTH 600 0
DWIDTH 19 0
BBX 14 23 3 0
BITMAP
FFC0
FFF0
E3F8
E078
E03C
E01C
E01C
E01C
E01C
E03C
E038
E0F8
FFF0
FFC0
E000
E000
E000
E000
E000
E000
E000
E000
E000
ENDCHAR
STARTCHAR Q
ENCODING 81
SWIDTH 600 0
DWIDTH 19 0
BBX 17 29 1 -6
BITMAP
07F000
1FF800
3FFC00
3C1E00
780F00
700700
700700
E00380
E00380
E00380
E00380
E00380
E00380
E00380
E00380
E00380
700700
700700
780F00
3C1E00
3FFC00
1FF800
07F800
003800
001C00
001E00
000F80
000700
000300
ENDCHAR
STARTCHAR R
ENCODING 82
SWIDTH 600 0
DWIDTH 19 0
BBX 15 23 3 0
BITMAP
FF80
FFE0
E7F0
E070
E038
E038
E038
E038
E038
E070
E0F0
FFE0
FF80
E380
E1C0
E1E0
E0E0
E070
E070
E038
E03C
E01C
E00E
ENDCHAR
STARTCHAR S
ENCODING 83
SWIDTH 600 0
DWIDTH 19 0
BBX 14 23 3 0
BITMAP
0FF0
3FFC
7FFC
F008
E000
E000
E000
E000
7000
7C00
3F80
0FE0
03F0
00F8
003C
001C
001C
001C
001C
8038
FFF8
FFF0
7FC0
ENDCHAR
STARTCHAR T
ENCODING 84
SWIDTH 600 0
DWIDTH 19 0
BBX 16 23 1 0
BITMAP
FFFF
FFFF
FFFF
01C0
01C0
01C0
01C0
01C0
01C0
01C0
01C0
01C0
01C0
01C0
01C0
01C0
01C0
01C0
01C0
01C0
01C0
01C0
01C0
ENDCHAR
STARTCHAR U
ENCODING 85
SWIDTH 600 0
DWIDTH 19 0
BBX 15 23 2 0
BITMAP
E00E
E00E
E00E
E00E
E00E
E00E
E00E
E00E
E00E
E00E
E00E
E00E
E00E
E00E
E00E
E00E
E00E
E00E
701C
783C
3FF8
3FF0
0FE0
ENDCHAR
STARTCHAR V
ENCODING 86
SWIDTH 600 0
DWIDTH 19 0
BBX 17 23 1 0
BITMAP
E00380
E00780
700700
700700
700700
380E00
380E00
380E00
1C1C00
1C1C00
1C1C00
0C1C00
0E3800
0E3800
0E3800
067000
077000
077000
036000
036000
03E000
01C000
01C000
ENDCHAR
STARTCHAR W
ENCODING 87
SWIDTH 600 0
DWIDTH 19 0
BBX 19 23 0 0
BITMAP
E000E0
E000E0
E000E0
E000E0
6000C0
6000C0
7000C0
70E0C0
70E0C0
71B1C0
71B1C0
31B1C0
31B1C0
33B980
3B1980
3B1980
3B1D80
3F0D80
1E0D80
1E0D80
1E0780
1E0780
1C0700
ENDCHAR
STARTCHAR X
ENCODING 88
SWIDTH 600 0
DWIDTH 19 0
BBX 17 23 1 0
BITMAP
E00700
700E00
780E00
381C00
1C1800
1C3800
0E7000
0F7000
07E000
03E000
03C000
03C000
03E000
07E000
067000
0E3800
0C3800
1C1C00
381C00
380E00
700F00
700700
E00780
ENDCHAR
STARTCHAR Y
ENCODING 89
SWIDTH 600 0
DWIDTH 19 0
BBX 19 23 0 0
BITMAP
E000E0
7001C0
7803C0
380380
1C0700
1C0700
0E0E00
0E0E00
071C00
071C00
03B800
01F000
01F000
00E000
00E000
00E000
00E000
00E000
00E000
00E000
00E000
00E000
00E000
ENDCHAR
STARTCHAR Z
ENCODING 90
SWIDTH 600 0
DWIDTH 19 0
BBX 15 23 2 0
BITMAP
FFFE
FFFE
FFFE
001C
003C
0038
0070
0070
00E0
01C0
01C0
0380
0700
0700
0E00
1C00
1C00
3800
7800
7000
FFFE
FFFE
FFFE
ENDCHAR
STARTCHAR bracketleft
ENCODING 91
SWIDTH 600 0
DWIDTH 19 0
BBX 8 28 6 -5
BITMAP
FF
FF
E0
E0
E0
E0
E0
E0
E0
E0
E0
E0
E0
E0
E0
E0
E0
E0
E0
E0
E0
E0
E0
E0
E0
E0
FF
FF
ENDCHAR
STARTCHAR backslash
ENCODING 92
SWIDTH 600 0
DWIDTH 19 0
BBX 13 23 3 0
BITMAP
E000
6000
7000
3000
3800
3800
1C00
1C00
0E00
0E00
0600
0700
0300
0380
0380
01C0
01C0
00E0
00E0
0060
0070
0030
0038
ENDCHAR
STARTCHAR bracketright
ENCODING 93
SWIDTH 600 0
DWIDTH 19 0
BBX 8 28 5 -5
BITMAP
FF
FF
07
07
07
07
07
07
07
07
07
07
07
07
07
07
07
07
07
07
07
07
07
07
07
07
FF
FF
ENDCHAR
STARTCHAR asciicircum
ENCODING 94
SWIDTH 600 0
DWIDTH 19 0
BBX 15 14 2 9
BITMAP
0300
0780
0780
07C0
0CC0
0CE0
1C60
1870
3830
3038
3018
701C
600C
E00E
ENDCHAR
STARTCHAR underscore
ENCODING 95
SWIDTH 600 0
DWIDTH 19 0
BBX 19 2 0 -5
BITMAP
FFFFE0
FFFFE0
ENDCHAR
STARTCHAR grave
ENCODING 96
SWIDTH 600 0
DWIDTH 19 0
BBX 6 5 6 19
BITMAP
F0
70
38
38
0C
ENDCHAR
STARTCHAR a
ENCODING 97
SWIDTH 600 0
DWIDTH 19 0
BBX 14 17 2 0
BITMAP
0FE0
7FF8
3CF8
203C
001C
001C
001C
07FC
3FFC
781C
F01C
E01C
E01C
E03C
F8FC
7FCC
1F8C
ENDCHAR
STARTCHAR b
ENCODING 98
SWIDTH 600 0
DWIDTH 19 0
BBX 15 24 2 0
BITMAP
E000
E000
E000
E000
E000
E000
E000
E7E0
EFF0
FEF8
F01C
F01C
E00E
E00E
E00E
E00E
E00E
E00E
E00E
F01C
F01C
FEF8
CFF0
C7E0
ENDCHAR
STARTCHAR c
ENCODING 99
SWIDTH 600 0
DWIDTH 19 0
BBX 13 17 3 0
BITMAP
07F0
1FF8
3FF0
7800
7000
E000
E000
E000
E000
E000
E000
E000
7000
7800
3FF8
1FF8
07F0
ENDCHAR
STARTCHAR d
ENCODING 100
SWIDTH 600 0
DWIDTH 19 0
BBX 15 24 2 0
BITMAP
000E
000E
000E
000E
000E
000E
000E
0FCE
1FEE
3EFE
701E
701E
E00E
E00E
E00E
E00E
E00E
E00E
E00E
701E
701E
3EFE
1FEE
0F86
ENDCHAR
STARTCHAR e
ENCODING 101
SWIDTH 600 0
DWIDTH 19 0
BBX 15 17 2 0
BITMAP
07E0
1FF0
3E78
701C
700E
E00E
E00E
FFFE
FFFE
E000
E000
E000
7000
7800
3FFC
1FFC
07F0
ENDCHAR
STARTCHAR f
ENCODING 102
SWIDTH 600 0
DWIDTH 19 0
BBX 15 24 2 0
BITMAP
00FE
03FE
03CC
0700
0700
0700
0700
FFFC
FFFC
0700
0700
0700
0700
0700
0700
0700
0700
0700
0700
0700
0700
0700
0700
0700
ENDCHAR
STARTCHAR g
ENCODING 103
SWIDTH 600 0
DWIDTH 19 0
BBX 15 25 2 -8
BITMAP
0FFE
1FFE
3870
7038
7038
7038
7038
7038
3870
3FE0
0FC0
1800
3800
3800
3FF0
1FFC
7C7E
600E
E00E
E00E
E00E
E01C
787C
7FF8
1FE0
ENDCHAR
STARTCHAR h
ENCODING 104
SWIDTH 600 0
DWIDTH 19 0
BBX 13 24 3 0
BITMAP
E000
E000
E000
E000
E000
E000
E000
E7C0
EFF0
FCF0
F078
F038
E038
E038
E038
E038
E038
E038
E038
E038
E038
E038
E038
E038
ENDCHAR
STARTCHAR i
ENCODING 105
SWIDTH 600 0
DWIDTH 19 0
BBX 13 24 3 0
BITMAP
0700
0700
0700
0700
0000
0000
0000
7F00
7F00
0700
0700
0700
0700
0700
0700
0700
0700
0700
0700
0700
0700
0700
FFF8
FFF8
ENDCHAR
STARTCHAR j
ENCODING 106
SWIDTH 600 0
DWIDTH 19 0
BBX 11 32 2 -8
BITMAP
00E0
00E0
00E0
00E0
0000
0000
0000
3FE0
3FE0
00E0
00E0
00E0
00E0
00E0
00E0
00E0
00E0
00E0
00E0
00E0
00E0
00E0
00E0
00E0
00E0
00E0
00E0
00E0
01E0
C7C0
FF80
FE00
ENDCHAR
STARTCHAR k
ENCODING 107
SWIDTH 600 0
DWIDTH 19 0
BBX 15 24 3 0
BITMAP
E000
E000
E000
E000
E000
E000
E000
E01C
E038
E070
E0E0
E1C0
E380
E700
EE00
FF00
F780
E3C0
E1C0
E0E0
E070
E038
E03C
E01E
ENDCHAR
STARTCHAR l
ENCODING 108
SWIDTH 600 0
DWIDTH 19 0
BBX 13 24 3 0
BITMAP
7F00
7F00
0700
0700
0700
0700
0700
0700
0700
0700
0700
0700
0700
0700
0700
0700
0700
0700
0700
0700
0700
0700
FFF8
FFF8
ENDCHAR
STARTCHAR m
ENCODING 109
SWIDTH 600 0
DWIDTH 19 0
BBX 17 17 1 0
BITMAP
CF1E00
FFBF00
FBB780
E1E380
E1C380
E1C380
E1C380
E1C380
E1C380
E1C380
E1C380
E1C380
E1C380
E1C380
E1C380
E1C380
E1C380
ENDCHAR
STARTCHAR n
ENCODING 110
SWIDTH 600 0
DWIDTH 19 0
BBX 13 17 3 0
BITMAP
C7C0
EFF0
FCF0
F078
F038
E038
E038
E038
E038
E038
E038
E038
E038
E038
E038
E038
E038
ENDCHAR
STARTCHAR o
ENCODING 111
SWIDTH 600 0
DWIDTH 19 0
BBX 15 17 2 0
BITMAP
07C0
1FF0
3EF8
701C
701C
E00E
E00E
E00E
E00E
E00E
E00E
E00E
701C
701C
3EF8
1FF0
07C0
ENDCHAR
STARTCHAR p
ENCODING 112
SWIDTH 600 0
DWIDTH 19 0
BBX 15 25 2 -8
BITMAP
C3E0
EFF0
FEF8
F01C
E01C
E00E
E00E
E00E
E00E
E00E
E00E
E00E
F01C
F01C
FEF8
EFF0
E7E0
E000
E000
E000
E000
E000
E000
E000
E000
ENDCHAR
STARTCHAR q
ENCODING 113
SWIDTH 600 0
DWIDTH 19 0
BBX 15 25 2 -8
BITMAP
0FC6
1FEE
3EFE
701E
701E
E00E
E00E
E00E
E00E
E00E
E00E
E00E
701E
701E
3EFE
1FEE
0F8E
000E
000E
000E
000E
000E
000E
000E
000E
ENDCHAR
STARTCHAR r
ENCODING 114
SWIDTH 600 0
DWIDTH 19 0
BBX 12 17 4 0
BITMAP
C3E0
CFF0
FFF0
F800
F000
E000
E000
E000
E000
E000
E000
E000
E000
E000
E000
E000
E000
ENDCHAR
STARTCHAR s
ENCODING 115
SWIDTH 600 0
DWIDTH 19 0
BBX 13 17 3 0
BITMAP
1FE0
7FF8
FCF0
E000
E000
E000
7800
3F00
0FC0
03F0
0078
0038
0038
0038
F8F0
FFE0
7F80
ENDCHAR
STARTCHAR t
ENCODING 116
SWIDTH 600 0
DWIDTH 19 0
BBX 14 22 2 0
BITMAP
0600
0600
0600
0E00
0E00
7FFC
FFFC
0E00
0E00
0E00
0E00
0E00
0E00
0E00
0E00
0E00
0E00
0E00
0E00
078C
07FC
01FC
ENDCHAR
STARTCHAR u
ENCODING 117
SWIDTH 600 0
DWIDTH 19 0
BBX 13 17 3 0
BITMAP
E038
E038
E038
E038
E038
E038
E038
E038
E038
E038
E038
E038
E038
F078
79F8
7FB8
1F18
ENDCHAR
STARTCHAR v
ENCODING 118
SWIDTH 600 0
DWIDTH 19 0
BBX 17 17 1 0
BITMAP
E00380
700700
700700
700700
380E00
380E00
180C00
1C1C00
1C1C00
0E3800
0E3800
063800
077000
077000
036000
03E000
01E000
ENDCHAR
STARTCHAR w
ENCODING 119
SWIDTH 600 0
DWIDTH 19 0
BBX 19 17 0 0
BITMAP
E0E0E0
E0E0E0
61F0C0
61B0C0
61B0C0
71B1C0
71B1C0
33B980
331980
331980
331980
3B1B80
1E1F00
1E0F00
1E0F00
1E0F00
1E0F00
ENDCHAR
STARTCHAR x
ENCODING 120
SWIDTH 600 0
DWIDTH 19 0
BBX 15 17 2 0
BITMAP
701C
781C
3838
1C70
1C70
0EE0
07C0
07C0
0380
07C0
0EE0
0EE0
1C70
3838
3838
701C
F01E
ENDCHAR
STARTCHAR y
ENCODING 121
SWIDTH 600 0
DWIDTH 19 0
BBX 17 25 1 -8
BITMAP
E00380
700700
700700
700700
380E00
380E00
1C1C00
1C1C00
0C1C00
0E3800
0E3800
077000
077000
037000
03E000
01E000
01C000
01C000
01C000
038000
038000
070000
1F0000
FE0000
F80000
ENDCHAR
STARTCHAR z
ENCODING 122
SWIDTH 600 0
DWIDTH 19 0
BBX 13 17 3 0
BITMAP
7FF8
7FF8
0038
0070
00E0
00E0
01C0
0380
0700
0E00
0E00
1C00
3800
7000
E000
FFF8
FFF8
ENDCHAR
STARTCHAR braceleft
ENCODING 123
SWIDTH 600 0
DWIDTH 19 0
BBX 11 28 4 -5
BITMAP
00E0
03E0
07C0
0700
0700
0700
0700
0700
0700
0700
0700
0700
1E00
FC00
F800
3E00
0F00
0700
0700
0700
0700
0700
0700
0700
0700
07C0
03E0
00E0
ENDCHAR
STARTCHAR bar
ENCODING 124
SWIDTH 600 0
DWIDTH 19 0
BBX 2 32 8 -8
BITMAP
C0
C0
C0
C0
C0
C0
C0
C0
C0
C0
C0
C0
C0
C0
C0
C0
C0
C0
C0
C0
C0
C0
C0
C0
C0
C0
C0
C0
C0
C0
C0
C0
ENDCHAR
STARTCHAR braceright
ENCODING 125
SWIDTH 600 0
DWIDTH 19 0
BBX 11 28 4 -5
BITMAP
E000
F800
7C00
1C00
1C00
1C00
1C00
1C00
1C00
1C00
1C00
1C00
0F00
07E0
03E0
0F80
1E00
1C00
1C00
1C00
1C00
1C00
1C00
1C00
1C00
7C00
F800
E000
ENDCHAR
STARTCHAR asciitilde
ENCODING 126
SWIDTH 600 0
DWIDTH 19 0
BBX 15 4 2 9
BITMAP
3E02
FFCE
E7FE
80F8
ENDCHAR
STARTCHAR uni00A0
ENCODING 160
SWIDTH 600 0
DWIDTH 19 0
BBX 1 1 0 0
BITMAP
00
ENDCHAR
STARTCHAR exclamdown
ENCODING 161
SWIDTH 600 0
DWIDTH 19 0
BBX 4 23 8 -6
BITMAP
E0
F0
F0
E0
00
00
00
60
60
60
60
60
60
60
60
60
60
E0
F0
F0
F0
F0
F0
ENDCHAR
STARTCHAR cent
ENCODING 162
SWIDTH 600 0
DWIDTH 19 0
BBX 13 23 3 0
BITMAP
0380
0380
0380
0FF0
1FF8
3F38
7800
7000
E000
E000
E000
E000
E000
E000
E000
7000
7800
3FF8
1FF8
0FF0
0380
0380
0380
ENDCHAR
STARTCHAR sterling
ENCODING 163
SWIDTH 600 0
DWIDTH 19 0
BBX 15 23 2 0
BITMAP
03F0
07FC
0FBC
1E00
1C00
1C00
1C00
1C00
1C00
1C00
1C00
FFF0
FFF0
1C00
1C00
1C00
1C00
1C00
1800
3800
FFFE
FFFE
FFFE
ENDCHAR
STARTCHAR currency
ENCODING 164
SWIDTH 600 0
DWIDTH 19 0
BBX 14 14 2 4
BITMAP
4008
E79C
7FF8
3870
3030
6038
6018
6018
6018
3030
3870
7FF8
E79C
4008
ENDCHAR
STARTCHAR yen
ENCODING 165
SWIDTH 600 0
DWIDTH 19 0
BBX 17 23 1 0
BITMAP
E00380
700700
700700
380E00
380E00
1C1C00
1C1C00
0C3800
0E3800
067000
077000
03E000
3FFE00
3FFE00
01C000
01C000
01C000
3FFE00
3FFE00
01C000
01C000
01C000
01C000
ENDCHAR
STARTCHAR brokenbar
ENCODING 166
SWIDTH 600 0
DWIDTH 19 0
BBX 2 32 8 -8
BITMAP
C0
C0
C0
C0
C0
C0
C0
C0
C0
C0
C0
C0
00
00
00
00
00
00
00
00
C0
C0
C0
C0
C0
C0
C0
C0
C0
C0
C0
C0
ENDCHAR
STARTCHAR section
ENCODING 167
SWIDTH 600 0
DWIDTH 19 0
BBX 11 24 4 0
BITMAP
1F80
7FE0
F0C0
E000
E000
F000
7C00
3F00
7F80
E1C0
E0E0
C0E0
E0E0
F0E0
7CC0
3FC0
0FC0
01C0
00E0
00E0
00E0
E1C0
FFC0
7F00
ENDCHAR
STARTCHAR dieresis
ENCODING 168
SWIDTH 600 0
DWIDTH 19 0
BBX 9 3 5 20
BITMAP
E380
E380
E380
ENDCHAR
STARTCHAR copyright
ENCODING 169
SWIDTH 600 0
DWIDTH 19 0
BBX 19 23 0 0
BITMAP
03F800
0FFE00
1C0700
380380
30F980
63FCC0
678CC0
C70060
CE0060
CE0060
CE0060
CE0060
CE0060
CE0060
C60060
C78460
63FCC0
60F8C0
300180
300180
1C0700
0FFE00
03F800
ENDCHAR
STARTCHAR ordfeminine
ENCODING 170
SWIDTH 600 0
DWIDTH 19 0
BBX 10 11 4 12
BITMAP
3F00
7F80
41C0
00C0
1FC0
7FC0
E0C0
C1C0
E3C0
FEC0
7CC0
ENDCHAR
STARTCHAR guillemotleft
ENCODING 171
SWIDTH 600 0
DWIDTH 19 0
BBX 13 13 3 2
BITMAP
0410
0E38
1C70
38E0
71C0
71C0
E380
71C0
71C0
38E0
1C70
0E38
0410
ENDCHAR
STARTCHAR logicalnot
ENCODING 172
SWIDTH 600 0
DWIDTH 19 0
BBX 15 8 2 4
BITMAP
FFFE
FFFE
0006
0006
0006
0006
0006
0006
ENDCHAR
STARTCHAR uni00AD
ENCODING 173
SWIDTH 600 0
DWIDTH 19 0
BBX 11 3 4 7
BITMAP
FFE0
FFE0
FFE0
ENDCHAR
STARTCHAR registered
ENCODING 174
SWIDTH 600 0
DWIDTH 19 0
BBX 19 23 0 0
BITMAP
03F800
0FFE00
1C0700
380380
300180
67F0C0
67F8C0
C71C60
C71C60
C71C60
C73C60
C7F860
C7F060
C77060
C73860
C71C60
671CC0
670EC0
300180
300180
1C0700
0FFE00
03F800
ENDCHAR
STARTCHAR macron
ENCODING 175
SWIDTH 600 0
DWIDTH 19 0
BBX 20 2 0 24
BITMAP
FFFFF0
FFFFF0
ENDCHAR
STARTCHAR degree
ENCODING 176
SWIDTH 600 0
DWIDTH 19 0
BBX 9 10 5 13
BITMAP
1C00
7F00
6300
E380
C180
C180
C180
6300
7F00
3E00
ENDCHAR
STARTCHAR plusminus
ENCODING 177
SWIDTH 600 0
DWIDTH 19 0
BBX 14 18 2 0
BITMAP
0300
0300
0300
0300
0300
0300
FFFC
FFFC
0300
0300
0300
0300
0300
0300
0000
0000
FFFC
FFFC
ENDCHAR
STARTCHAR uni00B2
ENCODING 178
SWIDTH 600 0
DWIDTH 19 0
BBX 8 12 5 11
BITMAP
3C
FE
47
03
07
06
0E
1C
30
60
FF
FF
ENDCHAR
STARTCHAR uni00B3
ENCODING 179
SWIDTH 600 0
DWIDTH 19 0
BBX 8 12 5 11
BITMAP
3C
FF
47
03
06
3C
3E
07
03
07
FE
7C
ENDCHAR
STARTCHAR acute
ENCODING 180
SWIDTH 600 0
DWIDTH 19 0
BBX 6 5 6 19
BITMAP
3C
38
70
60
E0
ENDCHAR
STARTCHAR mu
ENCODING 181
SWIDTH 600 0
DWIDTH 19 0
BBX 13 25 3 -8
BITMAP
E038
E038
E038
E038
E038
E038
E038
E038
E038
E038
E038
E038
E038
F078
F9F8
FFB8
EF18
E000
E000
E000
E000
E000
E000
E000
E000
ENDCHAR
STARTCHAR paragraph
ENCODING 182
SWIDTH 600 0
DWIDTH 19 0
BBX 16 28 1 -4
BITMAP
0FFF
3FFF
7FE3
7FE3
FFE3
FFE3
FFE3
FFE3
FFE3
FFE3
FFE3
FFE3
7FE3
7FE3
3FE3
0FE3
0063
0063
0063
0063
0063
0063
0063
0063
0063
0063
0063
0063
ENDCHAR
STARTCHAR periodcentered
ENCODING 183
SWIDTH 600 0
DWIDTH 19 0
BBX 4 4 8 9
BITMAP
F0
F0
F0
F0
ENDCHAR
STARTCHAR cedilla
ENCODING 184
SWIDTH 600 0
DWIDTH 19 0
BBX 6 8 6 -8
BITMAP
30
30
78
1C
0C
0C
F8
F0
ENDCHAR
STARTCHAR uni00B9
ENCODING 185
SWIDTH 600 0
DWIDTH 19 0
BBX 5 12 6 11
BITMAP
18
78
F8
58
18
18
18
18
18
18
18
18
ENDCHAR
STARTCHAR ordmasculine
ENCODING 186
SWIDTH 600 0
DWIDTH 19 0
BBX 10 11 4 12
BITMAP
1E00
7F80
6180
E1C0
C0C0
C0C0
C0C0
E1C0
6180
7F80
1E00
ENDCHAR
STARTCHAR guillemotright
ENCODING 187
SWIDTH 600 0
DWIDTH 19 0
BBX 13 13 3 2
BITMAP
4100
E380
71C0
38E0
1C70
1C70
0E38
1C70
1C70
38E0
71C0
E380
4100
ENDCHAR
STARTCHAR onequarter
ENCODING 188
SWIDTH 600 0
DWIDTH 19 0
BBX 18 23 1 0
BITMAP
180E00
780C00
F81C00
581800
183800
183000
183000
187000
186000
18E000
18C000
19C300
018700
038F00
031F00
071B00
063300
066300
0E6300
0CFFC0
1CFFC0
180300
380300
ENDCHAR
STARTCHAR onehalf
ENCODING 189
SWIDTH 600 0
DWIDTH 19 0
BBX 18 23 0 0
BITMAP
180E00
780C00
F81C00
581800
183800
183000
183000
187000
186000
18E000
18C000
19CF00
01BF80
0391C0
0300C0
0701C0
060180
060380
0E0700
0C0C00
1C1800
183FC0
383FC0
ENDCHAR
STARTCHAR threequarters
ENCODING 190
SWIDTH 600 0
DWIDTH 19 0
BBX 19 23 0 0
BITMAP
3C0380
FF0300
470700
030600
060E00
3C0C00
3E0C00
071C00
031800
073800
FE3000
7C7180
006380
00E780
00CF80
01CD80
019980
01B180
03B180
037FE0
077FE0
060180
0E0180
ENDCHAR
STARTCHAR questiondown
ENCODING 191
SWIDTH 600 0
DWIDTH 19 0
BBX 13 23 3 -6
BITMAP
0180
03C0
03C0
03C0
0000
0000
0000
0180
0180
0380
0780
0F00
1E00
3800
7000
E000
E000
E000
E000
F010
7FF8
3FF8
1FC0
ENDCHAR
STARTCHAR Agrave
ENCODING 192
SWIDTH 600 0
DWIDTH 19 0
BBX 17 30 1 0
BITMAP
078000
038000
01C000
01C000
006000
000000
000000
01C000
01E000
03E000
036000
036000
077000
077000
063000
0E3800
0E3800
0E1800
1C1C00
1C1C00
1FFC00
1FFC00
3FFE00
380E00
380600
700700
700700
700700
E00380
E00380
ENDCHAR
STARTCHAR Aacute
ENCODING 193
SWIDTH 600 0
DWIDTH 19 0
BBX 17 30 1 0
BITMAP
007800
007000
00E000
00C000
01C000
000000
000000
01C000
01E000
03E000
036000
036000
077000
077000
063000
0E3800
0E3800
0E1800
1C1C00
1C1C00
1FFC00
1FFC00
3FFE00
380E00
380600
700700
700700
700700
E00380
E00380
ENDCHAR
STARTCHAR Acircumflex
ENCODING 194
SWIDTH 600 0
DWIDTH 19 0
BBX 17 30 1 0
BITMAP
00E000
01F000
03B000
071800
0E0C00
000000
000000
01C000
01E000
03E000
036000
036000
077000
077000
063000
0E3800
0E3800
0E1800
1C1C00
1C1C00
1FFC00
1FFC00
3FFE00
380E00
380600
700700
700700
700700
E00380
E00380
ENDCHAR
STARTCHAR Atilde
ENCODING 195
SWIDTH 600 0
DWIDTH 19 0
BBX 17 29 1 0
BITMAP
070C00
0FDC00
1DF800
187000
000000
000000
01C000
01E000
03E000
036000
036000
077000
077000
063000
0E3800
0E3800
0E1800
1C1C00
1C1C00
1FFC00
1FFC00
3FFE00
380E00
380600
700700
700700
700700
E00380
E00380
ENDCHAR
STARTCHAR Adieresis
ENCODING 196
SWIDTH 600 0
DWIDTH 19 0
BBX 17 28 1 0
BITMAP
0E3800
0E3800
0E3800
000000
000000
01C000
01E000
03E000
036000
036000
077000
077000
063000
0E3800
0E3800
0E1800
1C1C00
1C1C00
1FFC00
1FFC00
3FFE00
380E00
380600
700700
700700
700700
E00380
E00380
ENDCHAR
STARTCHAR Aring
ENCODING 197
SWIDTH 600 0
DWIDTH 19 0
BBX 17 28 1 0
BITMAP
01C000
07E000
063000
063000
063000
07E000
03E000
03E000
036000
036000
077000
077000
063000
0E3800
0E3800
0E1800
1C1C00
1C1C00
1FFC00
1FFC00
3FFE00
380E00
380600
700700
700700
700700
E00380
E00380
ENDCHAR
STARTCHAR AE
ENCODING 198
SWIDTH 600 0
DWIDTH 19 0
BBX 18 23 0 0
BITMAP
07FFC0
07FFC0
0FFFC0
0EE000
0CE000
0CE000
0CE000
1CE000
1CE000
18E000
18FF80
38FF80
38FF80
3FE000
3FE000
3FE000
70E000
70E000
70E000
60E000
60FFC0
E0FFC0
E0FFC0
ENDCHAR
STARTCHAR Ccedilla
ENCODING 199
SWIDTH 600 0
DWIDTH 19 0
BBX 16 31 2 -8
BITMAP
01FC
07FF
1FFE
3E02
3800
7800
7000
F000
E000
E000
E000
E000
E000
E000
E000
F000
7000
7000
7800
3C00
1FFE
0FFE
03FC
00C0
00C0
01E0
0070
0030
0030
03E0
03C0
ENDCHAR
STARTCHAR Egrave
ENCODING 200
SWIDTH 600 0
DWIDTH 19 0
BBX 13 30 3 0
BITMAP
3C00
1C00
0E00
0E00
0300
0000
0000
FFF8
FFF8
FFF8
E000
E000
E000
E000
E000
E000
E000
FFF0
FFF0
FFF0
E000
E000
E000
E000
E000
E000
E000
FFF8
FFF8
FFF8
ENDCHAR
STARTCHAR Eacute
ENCODING 201
SWIDTH 600 0
DWIDTH 19 0
BBX 13 30 3 0
BITMAP
03C0
0380
0700
0600
0E00
0000
0000
FFF8
FFF8
FFF8
E000
E000
E000
E000
E000
E000
E000
FFF0
FFF0
FFF0
E000
E000
E000
E000
E000
E000
E000
FFF8
FFF8
FFF8
ENDCHAR
STARTCHAR Ecircumflex
ENCODING 202
SWIDTH 600 0
DWIDTH 19 0
BBX 13 30 3 0
BITMAP
0380
07C0
0EC0
1C60
3830
0000
0000
FFF8
FFF8
FFF8
E000
E000
E000
E000
E000
E000
E000
FFF0
FFF0
FFF0
E000
E000
E000
E000
E000
E000
E000
FFF8
FFF8
FFF8
ENDCHAR
STARTCHAR Edieresis
ENCODING 203
SWIDTH 600 0
DWIDTH 19 0
BBX 13 28 3 0
BITMAP
38E0
38E0
38E0
0000
0000
FFF8
FFF8
FFF8
E000
E000
E000
E000
E000
E000
E000
FFF0
FFF0
FFF0
E000
E000
E000
E000
E000
E000
E000
FFF8
FFF8
FFF8
ENDCHAR
STARTCHAR Igrave
ENCODING 204
SWIDTH 600 0
DWIDTH 19 0
BBX 13 30 3 0
BITMAP
3C00
1C00
0E00
0E00
0300
0000
0000
FFF8
FFF8
0700
0700
0700
0700
0700
0700
0700
0700
0700
0700
0700
0700
0700
0700
0700
0700
0700
0700
0700
FFF8
FFF8
ENDCHAR
STARTCHAR Iacute
ENCODING 205
SWIDTH 600 0
DWIDTH 19 0
BBX 13 30 3 0
BITMAP
00F0
00E0
01C0
0180
0380
0000
0000
FFF8
FFF8
0700
0700
0700
0700
0700
0700
0700
0700
0700
0700
0700
0700
0700
0700
0700
0700
0700
0700
0700
FFF8
FFF8
ENDCHAR
STARTCHAR Icircumflex
ENCODING 206
SWIDTH 600 0
DWIDTH 19 0
BBX 13 30 3 0
BITMAP
0380
07C0
0EC0
1C60
3830
0000
0000
FFF8
FFF8
0700
0700
0700
0700
0700
0700
0700
0700
0700
0700
0700
0700
0700
0700
0700
0700
0700
0700
0700
FFF8
FFF8
ENDCHAR
STARTCHAR Idieresis
ENCODING 207
SWIDTH 600 0
DWIDTH 19 0
BBX 13 28 3 0
BITMAP
38E0
38E0
38E0
0000
0000
FFF8
FFF8
0700
0700
0700
0700
0700
0700
0700
0700
0700
0700
0700
0700
0700
0700
0700
0700
0700
0700
0700
FFF8
FFF8
ENDCHAR
STARTCHAR Eth
ENCODING 208
SWIDTH 600 0
DWIDTH 19 0
BBX 18 23 0 0
BITMAP
3FE000
3FF800
39FE00
381F00
380700
380380
380380
3803C0
3801C0
3801C0
FFE1C0
FFE1C0
FFE1C0
3801C0
3801C0
380380
380380
380780
380700
381F00
39FE00
3FF800
3FE000
ENDCHAR
STARTCHAR Ntilde
ENCODING 209
SWIDTH 600 0
DWIDTH 19 0
BBX 15 29 2 0
BITMAP
0E18
1FB8
3BF0
30E0
0000
0000
F00E
F00E
F80E
F80E
D80E
DC0E
EC0E
EE0E
E60E
E70E
E30E
E38E
E18E
E1CE
E0CE
E0EE
E06E
E07E
E036
E03E
E03E
E01E
E01E
ENDCHAR
STARTCHAR Ograve
ENCODING 210
SWIDTH 600 0
DWIDTH 19 0
BBX 17 30 1 0
BITMAP
0F0000
070000
038000
038000
00C000
000000
000000
07F000
1FF800
3FFC00
3C1E00
780F00
700700
700700
E00380
E00380
E00380
E00380
E00380
E00380
E00380
E00380
E00380
700700
700700
780F00
3C1E00
3FFC00
1FF800
07F000
ENDCHAR
STARTCHAR Oacute
ENCODING 211
SWIDTH 600 0
DWIDTH 19 0
BBX 17 30 1 0
BITMAP
007800
007000
00E000
00C000
01C000
000000
000000
07F000
1FF800
3FFC00
3C1E00
780F00
700700
700700
E00380
E00380
E00380
E00380
E00380
E00380
E00380
E00380
E00380
700700
700700
780F00
3C1E00
3FFC00
1FF800
07F000
ENDCHAR
STARTCHAR Ocircumflex
ENCODING 212
SWIDTH 600 0
DWIDTH 19 0
BBX 17 30 1 0
BITMAP
00E000
01F000
03B000
071800
0E0C00
000000
000000
07F000
1FF800
3FFC00
3C1E00
780F00
700700
700700
E00380
E00380
E00380
E00380
E00380
E00380
E00380
E00380
E00380
700700
700700
780F00
3C1E00
3FFC00
1FF800
07F000
ENDCHAR
STARTCHAR Otilde
ENCODING 213
SWIDTH 600 0
DWIDTH 19 0
BBX 17 29 1 0
BITMAP
070C00
0FDC00
1DF800
187000
000000
000000
07F000
1FF800
3FFC00
3C1E00
780F00
700700
700700
E00380
E00380
E00380
E00380
E00380
E00380
E00380
E00380
E00380
700700
700700
780F00
3C1E00
3FFC00
1FF800
07F000
ENDCHAR
STARTCHAR Odieresis
ENCODING 214
SWIDTH 600 0
DWIDTH 19 0
BBX 17 28 1 0
BITMAP
0E3800
0E3800
0E3800
000000
000000
07F000
1FF800
3FFC00
3C1E00
780F00
700700
700700
E00380
E00380
E00380
E00380
E00380
E00380
E00380
E00380
E00380
700700
700700
780F00
3C1E00
3FFC00
1FF800
07F000
ENDCHAR
STARTCHAR multiply
ENCODING 215
SWIDTH 600 0
DWIDTH 19 0
BBX 13 13 3 5
BITMAP
4010
E038
7070
38E0
1DC0
0F80
0700
0F80
1DC0
38E0
7070
E038
4010
ENDCHAR
STARTCHAR Oslash
ENCODING 216
SWIDTH 600 0
DWIDTH 19 0
BBX 17 24 1 -1
BITMAP
07F380
1FFB80
3FFF00
3C1E00
780F00
701F00
703F00
E03B80
E07380
E0E380
E0E380
E1C380
E38380
E38380
E70380
EE0380
7E0700
7C0700
780F00
381E00
7FFC00
7FF800
E7E000
400000
ENDCHAR
STARTCHAR Ugrave
ENCODING 217
SWIDTH 600 0
DWIDTH 19 0
BBX 15 30 2 0
BITMAP
0F00
0700
0380
0380
00C0
0000
0000
E00E
E00E
E00E
E00E
E00E
E00E
E00E
E00E
E00E
E00E
E00E
E00E
E00E
E00E
E00E
E00E
E00E
E00E
701C
783C
3FF8
3FF0
0FE0
ENDCHAR
STARTCHAR Uacute
ENCODING 218
SWIDTH 600 0
DWIDTH 19 0
BBX 15 30 2 0
BITMAP
00F0
00E0
01C0
0180
0380
0000
0000
E00E
E00E
E00E
E00E
E00E
E00E
E00E
E00E
E00E
E00E
E00E
E00E
E00E
E00E
E00E
E00E
E00E
E00E
701C
783C
3FF8
3FF0
0FE0
ENDCHAR
STARTCHAR Ucircumflex
ENCODING 219
SWIDTH 600 0
DWIDTH 19 0
BBX 15 30 2 0
BITMAP
01C0
03E0
0760
0E30
1C18
0000
0000
E00E
E00E
E00E
E00E
E00E
E00E
E00E
E00E
E00E
E00E
E00E
E00E
E00E
E00E
E00E
E00E
E00E
E00E
701C
783C
3FF8
3FF0
0FE0
ENDCHAR
STARTCHAR Udieresis
ENCODING 220
SWIDTH 600 0
DWIDTH 19 0
BBX 15 28 2 0
BITMAP
1C70
1C70
1C70
0000
0000
E00E
E00E
E00E
E00E
E00E
E00E
E00E
E00E
E00E
E00E
E00E
E00E
E00E
E00E
E00E
E00E
E00E
E00E
701C
783C
3FF8
3FF0
0FE0
ENDCHAR
STARTCHAR Yacute
ENCODING 221
SWIDTH 600 0
DWIDTH 19 0
BBX 19 30 0 0
BITMAP
003C00
003800
007000
006000
00E000
000000
000000
E000E0
7001C0
7803C0
380380
1C0700
1C0700
0E0E00
0E0E00
071C00
071C00
03B800
01F000
01F000
00E000
00E000
00E000
00E000
00E000
00E000
00E000
00E000
00E000
00E000
ENDCHAR
STARTCHAR Thorn
ENCODING 222
SWIDTH 600 0
DWIDTH 19 0
BBX 14 23 3 0
BITMAP
E000
E000
E000
E000
FFC0
FFF0
E3F8
E038
E03C
E01C
E01C
E01C
E01C
E03C
E078
E3F0
FFE0
FF80
E000
E000
E000
E000
E000
ENDCHAR
STARTCHAR germandbls
ENCODING 223
SWIDTH 600 0
DWIDTH 19 0
BBX 15 24 3 0
BITMAP
1FC0
3FF0
78F0
E038
E038
E038
E078
E0F0
E1E0
E1C0
E380
E380
E3C0
E1E0
E0F8
E03C
E01C
E00E
E00E
E00E
E00E
E73C
E7FC
E3F0
ENDCHAR
STARTCHAR agrave
ENCODING 224
SWIDTH 600 0
DWIDTH 19 0
BBX 14 24 2 0
BITMAP
1E00
0E00
0700
0700
0180
0000
0000
0FE0
7FF8
3CF8
203C
001C
001C
001C
07FC
3FFC
781C
F01C
E01C
E01C
E03C
F8FC
7FCC
1F8C
ENDCHAR
STARTCHAR aacute
ENCODING 225
SWIDTH 600 0
DWIDTH 19 0
BBX 14 24 2 0
BITMAP
00F0
00E0
01C0
0180
0380
0000
0000
0FE0
7FF8
3CF8
203C
001C
001C
001C
07FC
3FFC
781C
F01C
E01C
E01C
E03C
F8FC
7FCC
1F8C
ENDCHAR
STARTCHAR acircumflex
ENCODING 226
SWIDTH 600 0
DWIDTH 19 0
BBX 14 24 2 0
BITMAP
01C0
03E0
0760
0E30
1C18
0000
0000
0FE0
7FF8
3CF8
203C
001C
001C
001C
07FC
3FFC
781C
F01C
E01C
E01C
E03C
F8FC
7FCC
1F8C
ENDCHAR
STARTCHAR atilde
ENCODING 227
SWIDTH 600 0
DWIDTH 19 0
BBX 14 23 2 0
BITMAP
0E18
1FB8
3BF0
30E0
0000
0000
0FE0
7FF8
3CF8
203C
001C
001C
001C
07FC
3FFC
781C
F01C
E01C
E01C
E03C
F8FC
7FCC
1F8C
ENDCHAR
STARTCHAR adieresis
ENCODING 228
SWIDTH 600 0
DWIDTH 19 0
BBX 14 23 2 0
BITMAP
1C70
1C70
1C70
0000
0000
0000
0FE0
7FF8
3CF8
203C
001C
001C
001C
07FC
3FFC
781C
F01C
E01C
E01C
E03C
F8FC
7FCC
1F8C
ENDCHAR
STARTCHAR aring
ENCODING 229
SWIDTH 600 0
DWIDTH 19 0
BBX 14 26 2 0
BITMAP
0380
0FC0
0C60
0C60
0C60
0FC0
0780
0000
0000
0FE0
7FF8
3CF8
203C
001C
001C
001C
07FC
3FFC
781C
F01C
E01C
E01C
E03C
F8FC
7FCC
1F8C
ENDCHAR
STARTCHAR ae
ENCODING 230
SWIDTH 600 0
DWIDTH 19 0
BBX 17 17 1 0
BITMAP
1E1C00
7F3E00
73F700
01E300
01C380
01C380
01C380
1FFF80
7FFF80
71C000
E1C000
E1C000
E1C000
E3E080
F77F80
7E3F80
3C1F00
ENDCHAR
STARTCHAR ccedilla
ENCODING 231
SWIDTH 600 0
DWIDTH 19 0
BBX 13 25 3 -8
BITMAP
07F0
1FF8
3FF0
7800
7000
E000
E000
E000
E000
E000
E000
E000
7000
7800
3FF8
1FF8
07F0
0300
0300
0780
01C0
00C0
00C0
0F80
0F00
ENDCHAR
STARTCHAR egrave
ENCODING 232
SWIDTH 600 0
DWIDTH 19 0
BBX 15 24 2 0
BITMAP
0F00
0700
0380
0380
00C0
0000
0000
07E0
1FF0
3E78
701C
700E
E00E
E00E
FFFE
FFFE
E000
E000
E000
7000
7800
3FFC
1FFC
07F0
ENDCHAR
STARTCHAR eacute
ENCODING 233
SWIDTH 600 0
DWIDTH 19 0
BBX 15 24 2 0
BITMAP
00F0
00E0
01C0
0180
0380
0000
0000
07E0
1FF0
3E78
701C
700E
E00E
E00E
FFFE
FFFE
E000
E000
E000
7000
7800
3FFC
1FFC
07F0
ENDCHAR
STARTCHAR ecircumflex
ENCODING 234
SWIDTH 600 0
DWIDTH 19 0
BBX 15 24 2 0
BITMAP
01C0
03E0
0760
0E30
1C18
0000
0000
07E0
1FF0
3E78
701C
700E
E00E
E00E
FFFE
FFFE
E000
E000
E000
7000
7800
3FFC
1FFC
07F0
ENDCHAR
STARTCHAR edieresis
ENCODING 235
SWIDTH 600 0
DWIDTH 19 0
BBX 15 23 2 0
BITMAP
0E38
0E38
0E38
0000
0000
0000
07E0
1FF0
3E78
701C
700E
E00E
E00E
FFFE
FFFE
E000
E000
E000
7000
7800
3FFC
1FFC
07F0
ENDCHAR
STARTCHAR igrave
ENCODING 236
SWIDTH 600 0
DWIDTH 19 0
BBX 13 24 3 0
BITMAP
3C00
1C00
0E00
0E00
0300
0000
0000
7F00
7F00
0700
0700
0700
0700
0700
0700
0700
0700
0700
0700
0700
0700
0700
FFF8
FFF8
ENDCHAR
STARTCHAR iacute
ENCODING 237
SWIDTH 600 0
DWIDTH 19 0
BBX 13 24 3 0
BITMAP
01E0
01C0
0380
0300
0700
0000
0000
7F00
7F00
0700
0700
0700
0700
0700
0700
0700
0700
0700
0700
0700
0700
0700
FFF8
FFF8
ENDCHAR
STARTCHAR icircumflex
ENCODING 238
SWIDTH 600 0
DWIDTH 19 0
BBX 13 24 3 0
BITMAP
0700
0F80
1D80
38C0
7060
0000
0000
7F00
7F00
0700
0700
0700
0700
0700
0700
0700
0700
0700
0700
0700
0700
0700
FFF8
FFF8
ENDCHAR
STARTCHAR idieresis
ENCODING 239
SWIDTH 600 0
DWIDTH 19 0
BBX 13 23 3 0
BITMAP
38E0
38E0
38E0
0000
0000
0000
7F00
7F00
0700
0700
0700
0700
0700
0700
0700
0700
0700
0700
0700
0700
0700
FFF8
FFF8
ENDCHAR
STARTCHAR eth
ENCODING 240
SWIDTH 600 0
DWIDTH 19 0
BBX 15 24 2 0
BITMAP
0C10
0E38
07F0
03C0
0FE0
1E70
0838
0038
001C
0FDC
3FEC
7EFE
701E
F01E
E00E
E00E
E00E
E00E
E00E
E01C
701C
3EF8
1FF0
0FC0
ENDCHAR
STARTCHAR ntilde
ENCODING 241
SWIDTH 600 0
DWIDTH 19 0
BBX 13 23 3 0
BITMAP
1C30
3F70
77E0
61C0
0000
0000
C7C0
EFF0
FCF0
F078
F038
E038
E038
E038
E038
E038
E038
E038
E038
E038
E038
E038
E038
ENDCHAR
STARTCHAR ograve
ENCODING 242
SWIDTH 600 0
DWIDTH 19 0
BBX 15 24 2 0
BITMAP
0F00
0700
0380
0380
00C0
0000
0000
07C0
1FF0
3EF8
701C
701C
E00E
E00E
E00E
E00E
E00E
E00E
E00E
701C
701C
3EF8
1FF0
07C0
ENDCHAR
STARTCHAR oacute
ENCODING 243
SWIDTH 600 0
DWIDTH 19 0
BBX 15 24 2 0
BITMAP
00F0
00E0
01C0
0180
0380
0000
0000
07C0
1FF0
3EF8
701C
701C
E00E
E00E
E00E
E00E
E00E
E00E
E00E
701C
701C
3EF8
1FF0
07C0
ENDCHAR
STARTCHAR ocircumflex
ENCODING 244
SWIDTH 600 0
DWIDTH 19 0
BBX 15 24 2 0
BITMAP
01C0
03E0
0760
0E30
1C18
0000
0000
07C0
1FF0
3EF8
701C
701C
E00E
E00E
E00E
E00E
E00E
E00E
E00E
701C
701C
3EF8
1FF0
07C0
ENDCHAR
STARTCHAR otilde
ENCODING 245
SWIDTH 600 0
DWIDTH 19 0
BBX 15 23 2 0
BITMAP
0E18
1FB8
3BF0
30E0
0000
0000
07C0
1FF0
3EF8
701C
701C
E00E
E00E
E00E
E00E
E00E
E00E
E00E
701C
701C
3EF8
1FF0
07C0
ENDCHAR
STARTCHAR odieresis
ENCODING 246
SWIDTH 600 0
DWIDTH 19 0
BBX 15 23 2 0
BITMAP
1C70
1C70
1C70
0000
0000
0000
07C0
1FF0
3EF8
701C
701C
E00E
E00E
E00E
E00E
E00E
E00E
E00E
701C
701C
3EF8
1FF0
07C0
ENDCHAR
STARTCHAR divide
ENCODING 247
SWIDTH 600 0
DWIDTH 19 0
BBX 14 15 3 3
BITMAP
0700
0780
0780
0300
0000
0000
FFFC
FFFC
0000
0000
0000
0300
0780
0780
0700
ENDCHAR
STARTCHAR oslash
ENCODING 248
SWIDTH 600 0
DWIDTH 19 0
BBX 15 19 2 -1
BITMAP
0008
07DC
1FF8
3E78
707C
707C
E0EE
E1CE
E18E
E38E
E30E
E70E
EE0E
7C1C
7C1C
3EF8
3FF0
77C0
2000
ENDCHAR
STARTCHAR ugrave
ENCODING 249
SWIDTH 600 0
DWIDTH 19 0
BBX 13 24 3 0
BITMAP
1E00
0E00
0700
0700
0180
0000
0000
E038
E038
E038
E038
E038
E038
E038
E038
E038
E038
E038
E038
E038
F078
79F8
7FB8
1F18
ENDCHAR
STARTCHAR uacute
ENCODING 250
SWIDTH 600 0
DWIDTH 19 0
BBX 13 24 3 0
BITMAP
01E0
01C0
0380
0300
0700
0000
0000
E038
E038
E038
E038
E038
E038
E038
E038
E038
E038
E038
E038
E038
F078
79F8
7FB8
1F18
ENDCHAR
STARTCHAR ucircumflex
ENCODING 251
SWIDTH 600 0
DWIDTH 19 0
BBX 13 24 3 0
BITMAP
0380
07C0
0EC0
1C60
3830
0000
0000
E038
E038
E038
E038
E038
E038
E038
E038
E038
E038
E038
E038
E038
F078
79F8
7FB8
1F18
ENDCHAR
STARTCHAR udieresis
ENCODING 252
SWIDTH 600 0
DWIDTH 19 0
BBX 13 23 3 0
BITMAP
38E0
38E0
38E0
0000
0000
0000
E038
E038
E038
E038
E038
E038
E038
E038
E038
E038
E038
E038
E038
F078
79F8
7FB8
1F18
ENDCHAR
STARTCHAR yacute
ENCODING 253
SWIDTH 600 0
DWIDTH 19 0
BBX 17 32 1 -8
BITMAP
007800
007000
00E000
00C000
01C000
000000
000000
E00380
700700
700700
700700
380E00
380E00
1C1C00
1C1C00
0C1C00
0E3800
0E3800
077000
077000
037000
03E000
01E000
01C000
01C000
01C000
038000
038000
070000
1F0000
FE0000
F80000
ENDCHAR
STARTCHAR thorn
ENCODING 254
SWIDTH 600 0
DWIDTH 19 0
BBX 15 32 2 -8
BITMAP
E000
E000
E000
E000
E000
E000
E000
E7E0
EFF0
FEF8
F01C
E01C
E00E
E00E
E00E
E00E
E00E
E00E
E00E
F01C
F01C
FEF8
EFF0
E7E0
E000
E000
E000
E000
E000
E000
E000
E000
ENDCHAR
STARTCHAR ydieresis
ENCODING 255
SWIDTH 600 0
DWIDTH 19 0
BBX 17 31 1 -8
BITMAP
0E3800
0E3800
0E3800
000000
000000
000000
E00380
700700
700700
700700
380E00
380E00
1C1C00
1C1C00
0C1C00
0E3800
0E3800
077000
077000
037000
03E000
01E000
01C000
01C000
01C000
038000
038000
070000
1F0000
FE0000
F80000
ENDCHAR
STARTCHAR .notdef
ENCODING -1
SWIDTH 600 0
DWIDTH 19 0
BBX 13 23 3 0
BITMAP
FFF8
FFF8
C018
C018
C018
C018
C018
C018
C018
C018
C018
C018
C018
C018
C018
C018
C018
C018
C018
C018
C018
FFF8
FFF8
ENDCHAR
STARTCHAR Amacron
ENCODING -1
SWIDTH 600 0
DWIDTH 19 0
BBX 17 27 1 0
BITMAP
0FF800
0FF800
000000
000000
01C000
01E000
03E000
036000
036000
077000
077000
063000
0E3800
0E3800
0E1800
1C1C00
1C1C00
1FFC00
1FFC00
3FFE00
380E00
380600
700700
700700
700700
E00380
E00380
ENDCHAR
STARTCHAR amacron
ENCODING -1
SWIDTH 600 0
DWIDTH 19 0
BBX 14 21 2 0
BITMAP
1FF0
1FF0
0000
0000
0FE0
7FF8
3CF8
203C
001C
001C
001C
07FC
3FFC
781C
F01C
E01C
E01C
E03C
F8FC
7FCC
1F8C
ENDCHAR
STARTCHAR Abreve
ENCODING -1
SWIDTH 600 0
DWIDTH 19 0
BBX 17 29 1 0
BITMAP
0C1800
0E7800
07F000
03E000
000000
000000
01C000
01E000
03E000
036000
036000
077000
077000
063000
0E3800
0E3800
0E1800
1C1C00
1C1C00
1FFC00
1FFC00
3FFE00
380E00
380600
700700
700700
700700
E00380
E00380
ENDCHAR
STARTCHAR abreve
ENCODING -1
SWIDTH 600 0
DWIDTH 19 0
BBX 14 23 2 0
BITMAP
1830
1CF0
0FE0
07C0
0000
0000
0FE0
7FF8
3CF8
203C
001C
001C
001C
07FC
3FFC
781C
F01C
E01C
E01C
E03C
F8FC
7FCC
1F8C
ENDCHAR
STARTCHAR Aogonek
ENCODING -1
SWIDTH 600 0
DWIDTH 19 0
BBX 17 30 1 -7
BITMAP
01C000
01E000
03E000
036000
036000
077000
077000
063000
0E3800
0E3800
0E1800
1C1C00
1C1C00
1FFC00
1FFC00
3FFE00
380E00
380600
700700
700700
700700
E00380
E00380
000600
000C00
001C00
001800
001C00
001F80
000F80
ENDCHAR
STARTCHAR aogonek
ENCODING -1
SWIDTH 600 0
DWIDTH 19 0
BBX 15 24 2 -7
BITMAP
0FE0
7FF8
3CF8
203C
001C
001C
001C
07FC
3FFC
781C
F01C
E01C
E01C
E03C
F8FC
7FCC
1F8C
0018
0030
0070
0060
0070
007E
003E
ENDCHAR
STARTCHAR Cacute
ENCODING -1
SWIDTH 600 0
DWIDTH 19 0
BBX 16 30 2 0
BITMAP
003C
0038
0070
0060
00E0
0000
0000
01FC
07FF
1FFE
3E02
3800
7800
7000
F000
E000
E000
E000
E000
E000
E000
E000
F000
7000
7000
7800
3C00
1FFE
0FFE
03FC
ENDCHAR
STARTCHAR cacute
ENCODING -1
SWIDTH 600 0
DWIDTH 19 0
BBX 13 24 3 0
BITMAP
00F0
00E0
01C0
0180
0380
0000
0000
07F0
1FF8
3FF0
7800
7000
E000
E000
E000
E000
E000
E000
E000
7000
7800
3FF8
1FF8
07F0
ENDCHAR
STARTCHAR Ccircumflex
ENCODING -1
SWIDTH 600 0
DWIDTH 19 0
BBX 16 30 2 0
BITMAP
0070
00F8
01D8
038C
0706
0000
0000
01FC
07FF
1FFE
3E02
3800
7800
7000
F000
E000
E000
E000
E000
E000
E000
E000
F000
7000
7000
7800
3C00
1FFE
0FFE
03FC
ENDCHAR
STARTCHAR ccircumflex
ENCODING -1
SWIDTH 600 0
DWIDTH 19 0
BBX 13 24 3 0
BITMAP
01C0
03E0
0760
0E30
1C18
0000
0000
07F0
1FF8
3FF0
7800
7000
E000
E000
E000
E000
E000
E000
E000
7000
7800
3FF8
1FF8
07F0
ENDCHAR
STARTCHAR Cdotaccent
ENCODING -1
SWIDTH 600 0
DWIDTH 19 0
BBX 16 28 2 0
BITMAP
0070
0070
0070
0000
0000
01FC
07FF
1FFE
3E02
3800
7800
7000
F000
E000
E000
E000
E000
E000
E000
E000
F000
7000
7000
7800
3C00
1FFE
0FFE
03FC
ENDCHAR
STARTCHAR cdotaccent
ENCODING -1
SWIDTH 600 0
DWIDTH 19 0
BBX 13 23 3 0
BITMAP
0380
0380
0380
0000
0000
0000
07F0
1FF8
3FF0
7800
7000
E000
E000
E000
E000
E000
E000
E000
7000
7800
3FF8
1FF8
07F0
ENDCHAR
STARTCHAR Ccaron
ENCODING -1
SWIDTH 600 0
DWIDTH 19 0
BBX 16 30 2 0
BITMAP
0706
038C
01D8
00F8
0070
0000
0000
01FC
07FF
1FFE
3E02
3800
7800
7000
F000
E000
E000
E000
E000
E000
E000
E000
F000
7000
7000
7800
3C00
1FFE
0FFE
03FC
ENDCHAR
STARTCHAR ccaron
ENCODING -1
SWIDTH 600 0
DWIDTH 19 0
BBX 13 24 3 0
BITMAP
1C18
0E30
0760
03E0
01C0
0000
0000
07F0
1FF8
3FF0
7800
7000
E000
E000
E000
E000
E000
E000
E000
7000
7800
3FF8
1FF8
07F0
ENDCHAR
STARTCHAR Dcaron
ENCODING -1
SWIDTH 600 0
DWIDTH 19 0
BBX 16 30 2 0
BITMAP
1C18
0E30
0760
03E0
01C0
0000
0000
FF80
FFE0
E7F8
E07C
E01C
E00E
E00E
E00F
E007
E007
E007
E007
E007
E007
E007
E00E
E00E
E01E
E01C
E07C
E7F8
FFE0
FF80
ENDCHAR
STARTCHAR dcaron
ENCODING -1
SWIDTH 600 0
DWIDTH 19 0
BBX 20 24 1 0
BITMAP
000E70
000E70
000E60
000EE0
000EC0
000E00
000E00
0FCE00
1FEE00
3EFE00
701E00
701E00
E00E00
E00E00
E00E00
E00E00
E00E00
E00E00
E00E00
701E00
701E00
3EFE00
1FEE00
0F8600
ENDCHAR
STARTCHAR Dcroat
ENCODING -1
SWIDTH 600 0
DWIDTH 19 0
BBX 18 23 0 0
BITMAP
3FE000
3FF800
39FE00
381F00
380700
380380
380380
3803C0
3801C0
3801C0
FFE1C0
FFE1C0
FFE1C0
3801C0
3801C0
380380
380380
380780
380700
381F00
39FE00
3FF800
3FE000
ENDCHAR
STARTCHAR dcroat
ENCODING -1
SWIDTH 600 0
DWIDTH 19 0
BBX 17 24 2 0
BITMAP
000E00
000E00
000E00
03FF80
03FF80
000E00
000E00
0FCE00
1FEE00
3EFE00
701E00
701E00
E00E00
E00E00
E00E00
E00E00
E00E00
E00E00
E00E00
700E00
701E00
3EFE00
1FEE00
0FC600
ENDCHAR
STARTCHAR Emacron
ENCODING -1
SWIDTH 600 0
DWIDTH 19 0
BBX 13 27 3 0
BITMAP
3FE0
3FE0
0000
0000
FFF8
FFF8
FFF8
E000
E000
E000
E000
E000
E000
E000
FFF0
FFF0
FFF0
E000
E000
E000
E000
E000
E000
E000
FFF8
FFF8
FFF8
ENDCHAR
STARTCHAR emacron
ENCODING -1
SWIDTH 600 0
DWIDTH 19 0
BBX 15 21 2 0
BITMAP
0FF8
0FF8
0000
0000
07E0
1FF0
3E78
701C
700E
E00E
E00E
FFFE
FFFE
E000
E000
E000
7000
7800
3FFC
1FFC
07F0
ENDCHAR
STARTCHAR Ebreve
ENCODING -1
SWIDTH 600 0
DWIDTH 19 0
BBX 13 29 3 0
BITMAP
3060
39E0
1FC0
0F80
0000
0000
FFF8
FFF8
FFF8
E000
E000
E000
E000
E000
E000
E000
FFF0
FFF0
FFF0
E000
E000
E000
E000
E000
E000
E000
FFF8
FFF8
FFF8
ENDCHAR
STARTCHAR ebreve
ENCODING -1
SWIDTH 600 0
DWIDTH 19 0
BBX 15 23 2 0
BITMAP
1830
1CF0
0FE0
07C0
0000
0000
07E0
1FF0
3E78
701C
700E
E00E
E00E
FFFE
FFFE
E000
E000
E000
7000
7800
3FFC
1FFC
07F0
ENDCHAR
STARTCHAR Edotaccent
ENCODING -1
SWIDTH 600 0
DWIDTH 19 0
BBX 13 28 3 0
BITMAP
0700
0700
0700
0000
0000
FFF8
FFF8
FFF8
E000
E000
E000
E000
E000
E000
E000
FFF0
FFF0
FFF0
E000
E000
E000
E000
E000
E000
E000
FFF8
FFF8
FFF8
ENDCHAR
STARTCHAR edotaccent
ENCODING -1
SWIDTH 600 0
DWIDTH 19 0
BBX 15 23 2 0
BITMAP
01C0
01C0
01C0
0000
0000
0000
07E0
1FF0
3E78
701C
700E
E00E
E00E
FFFE
FFFE
E000
E000
E000
7000
7800
3FFC
1FFC
07F0
ENDCHAR
STARTCHAR Eogonek
ENCODING -1
SWIDTH 600 0
DWIDTH 19 0
BBX 13 30 3 -7
BITMAP
FFF8
FFF8
FFF8
E000
E000
E000
E000
E000
E000
E000
FFF0
FFF0
FFF0
E000
E000
E000
E000
E000
E000
E000
FFF8
FFF8
FFF8
0060
00C0
01C0
0180
01C0
01F8
00F8
ENDCHAR
STARTCHAR eogonek
ENCODING -1
SWIDTH 600 0
DWIDTH 19 0
BBX 15 24 2 -7
BITMAP
07E0
1FF0
3E78
701C
700E
E00E
E00E
FFFE
FFFE
E000
E000
E000
7000
7800
3FFC
1FFC
07F0
0030
0060
00E0
00C0
00E0
00FC
007C
ENDCHAR
STARTCHAR Ecaron
ENCODING -1
SWIDTH 600 0
DWIDTH 19 0
BBX 13 30 3 0
BITMAP
3830
1C60
0EC0
07C0
0380
0000
0000
FFF8
FFF8
FFF8
E000
E000
E000
E000
E000
E000
E000
FFF0
FFF0
FFF0
E000
E000
E000
E000
E000
E000
E000
FFF8
FFF8
FFF8
ENDCHAR
STARTCHAR ecaron
ENCODING -1
SWIDTH 600 0
DWIDTH 19 0
BBX 15 24 2 0
BITMAP
1C18
0E30
0760
03E0
01C0
0000
0000
07E0
1FF0
3E78
701C
700E
E00E
E00E
FFFE
FFFE
E000
E000
E000
7000
7800
3FFC
1FFC
07F0
ENDCHAR
STARTCHAR Gcircumflex
ENCODING -1
SWIDTH 600 0
DWIDTH 19 0
BBX 15 30 2 0
BITMAP
00E0
01F0
03B0
0718
0E0C
0000
0000
03F8
0FFE
1FFC
3C04
3800
7000
7000
F000
E000
E000
E000
E07E
E07E
E07E
E00E
E00E
700E
700E
780E
3C0E
1FFE
0FFE
03F8
ENDCHAR
STARTCHAR gcircumflex
ENCODING -1
SWIDTH 600 0
DWIDTH 19 0
BBX 15 32 2 -8
BITMAP
01C0
03E0
0760
0E30
1C18
0000
0000
0FFE
1FFE
3870
7038
7038
7038
7038
7038
3870
3FE0
0FC0
1800
3800
3800
3FF0
1FFC
7C7E
600E
E00E
E00E
E00E
E01C
787C
7FF8
1FE0
ENDCHAR
STARTCHAR Gbreve
ENCODING -1
SWIDTH 600 0
DWIDTH 19 0
BBX 15 29 2 0
BITMAP
060C
073C
03F8
01F0
0000
0000
03F8
0FFE
1FFC
3C04
3800
7000
7000
F000
E000
E000
E000
E07E
E07E
E07E
E00E
E00E
700E
700E
780E
3C0E
1FFE
0FFE
03F8
ENDCHAR
STARTCHAR gbreve
ENCODING -1
SWIDTH 600 0
DWIDTH 19 0
BBX 15 31 2 -8
BITMAP
1830
1CF0
0FE0
07C0
0000
0000
0FFE
1FFE
3870
7038
7038
7038
7038
7038
3870
3FE0
0FC0
1800
3800
3800
3FF0
1FFC
7C7E
600E
E00E
E00E
E00E
E01C
787C
7FF8
1FE0
ENDCHAR
STARTCHAR Gdotaccent
ENCODING -1
SWIDTH 600 0
DWIDTH 19 0
BBX 15 28 2 0
BITMAP
00E0
00E0
00E0
0000
0000
03F8
0FFE
1FFC
3C04
3800
7000
7000
F000
E000
E000
E000
E07E
E07E
E07E
E00E
E00E
700E
700E
780E
3C0E
1FFE
0FFE
03F8
ENDCHAR
STARTCHAR gdotaccent
ENCODING -1
SWIDTH 600 0
DWIDTH 19 0
BBX 15 31 2 -8
BITMAP
0380
0380
0380
0000
0000
0000
0FFE
1FFE
3870
7038
7038
7038
7038
7038
3870
3FE0
0FC0
1800
3800
3800
3FF0
1FFC
7C7E
600E
E00E
E00E
E00E
E01C
787C
7FF8
1FE0
ENDCHAR
STARTCHAR uni0122
ENCODING -1
SWIDTH 600 0
DWIDTH 19 0
BBX 15 30 2 -7
BITMAP
03F8
0FFE
1FFC
3C04
3800
7000
7000
F000
E000
E000
E000
E07E
E07E
E07E
E00E
E00E
700E
700E
780E
3C0E
1FFE
0FFE
03F8
0000
0000
00E0
00E0
00C0
01C0
0180
ENDCHAR
STARTCHAR uni0123
ENCODING -1
SWIDTH 600 0
DWIDTH 19 0
BBX 15 32 2 -8
BITMAP
00C0
01C0
0180
0380
0380
0000
0000
0FFE
1FFE
3870
7038
7038
7038
7038
7038
3870
3FE0
0FC0
1800
3800
3800
3FF0
1FFC
7C7E
600E
E00E
E00E
E00E
E01C
787C
7FF8
1FE0
ENDCHAR
STARTCHAR Hcircumflex
ENCODING -1
SWIDTH 600 0
DWIDTH 19 0
BBX 15 30 2 0
BITMAP
01C0
03E0
0760
0E30
1C18
0000
0000
E00E
E00E
E00E
E00E
E00E
E00E
E00E
E00E
E00E
E00E
FFFE
FFFE
FFFE
E00E
E00E
E00E
E00E
E00E
E00E
E00E
E00E
E00E
E00E
ENDCHAR
STARTCHAR hcircumflex
ENCODING -1
SWIDTH 600 0
DWIDTH 19 0
BBX 13 30 3 0
BITMAP
0380
07C0
0EC0
1C60
3830
0000
E000
E000
E000
E000
E000
E000
E000
E7C0
EFF0
FCF0
F078
F038
E038
E038
E038
E038
E038
E038
E038
E038
E038
E038
E038
E038
ENDCHAR
STARTCHAR Hbar
ENCODING -1
SWIDTH 600 0
DWIDTH 19 0
BBX 19 23 0 0
BITMAP
380380
380380
380380
380380
FFFFE0
FFFFE0
380380
380380
380380
380380
3FFF80
3FFF80
3FFF80
380380
380380
380380
380380
380380
380380
380380
380380
380380
380380
ENDCHAR
STARTCHAR hbar
ENCODING -1
SWIDTH 600 0
DWIDTH 19 0
BBX 15 24 1 0
BITMAP
3800
3800
3800
FFE0
FFE0
3800
3800
39F0
3BFC
3F3C
3C1E
3C0E
380E
380E
380E
380E
380E
380E
380E
380E
380E
380E
380E
380E
ENDCHAR
STARTCHAR Itilde
ENCODING -1
SWIDTH 600 0
DWIDTH 19 0
BBX 13 29 3 0
BITMAP
1C30
3F70
77E0
61C0
0000
0000
FFF8
FFF8
0700
0700
0700
0700
0700
0700
0700
0700
0700
0700
0700
0700
0700
0700
0700
0700
0700
0700
0700
FFF8
FFF8
ENDCHAR
STARTCHAR itilde
ENCODING -1
SWIDTH 600 0
DWIDTH 19 0
BBX 13 23 3 0
BITMAP
1C30
3F70
77E0
61C0
0000
0000
7F00
7F00
0700
0700
0700
0700
0700
0700
0700
0700
0700
0700
0700
0700
0700
FFF8
FFF8
ENDCHAR
STARTCHAR Imacron
ENCODING -1
SWIDTH 600 0
DWIDTH 19 0
BBX 13 27 3 0
BITMAP
3FE0
3FE0
0000
0000
FFF8
FFF8
0700
0700
0700
0700
0700
0700
0700
0700
0700
0700
0700
0700
0700
0700
0700
0700
0700
0700
0700
FFF8
FFF8
ENDCHAR
STARTCHAR imacron
ENCODING -1
SWIDTH 600 0
DWIDTH 19 0
BBX 13 21 3 0
BITMAP
3FE0
3FE0
0000
0000
7F00
7F00
0700
0700
0700
0700
0700
0700
0700
0700
0700
0700
0700
0700
0700
FFF8
FFF8
ENDCHAR
STARTCHAR Ibreve
ENCODING -1
SWIDTH 600 0
DWIDTH 19 0
BBX 13 29 3 0
BITMAP
3060
39E0
1FC0
0F80
0000
0000
FFF8
FFF8
0700
0700
0700
0700
0700
0700
0700
0700
0700
0700
0700
0700
0700
0700
0700
0700
0700
0700
0700
FFF8
FFF8
ENDCHAR
STARTCHAR ibreve
ENCODING -1
SWIDTH 600 0
DWIDTH 19 0
BBX 13 23 3 0
BITMAP
1830
1CF0
0FE0
07C0
0000
0000
7F00
7F00
0700
0700
0700
0700
0700
0700
0700
0700
0700
0700
0700
0700
0700
FFF8
FFF8
ENDCHAR
STARTCHAR Iogonek
ENCODING -1
SWIDTH 600 0
DWIDTH 19 0
BBX 13 30 3 -7
BITMAP
FFF8
FFF8
0700
0700
0700
0700
0700
0700
0700
0700
0700
0700
0700
0700
0700
0700
0700
0700
0700
0700
0700
FFF8
FFF8
0300
0600
0E00
0C00
0E00
0FC0
07C0
ENDCHAR
STARTCHAR iogonek
ENCODING -1
SWIDTH 600 0
DWIDTH 19 0
BBX 13 31 3 -7
BITMAP
0700
0700
0700
0700
0000
0000
0000
7F00
7F00
0700
0700
0700
0700
0700
0700
0700
0700
0700
0700
0700
0700
0700
FFF8
FFF8
0300
0600
0E00
0C00
0E00
0FC0
07C0
ENDCHAR
STARTCHAR Idotaccent
ENCODING -1
SWIDTH 600 0
DWIDTH 19 0
BBX 13 28 3 0
BITMAP
0700
0700
0700
0000
0000
FFF8
FFF8
0700
0700
0700
0700
0700
0700
0700
0700
0700
0700
0700
0700
0700
0700
0700
0700
0700
0700
0700
FFF8
FFF8
ENDCHAR
STARTCHAR dotlessi
ENCODING -1
SWIDTH 600 0
DWIDTH 19 0
BBX 13 17 3 0
BITMAP
7F00
7F00
0700
0700
0700
0700
0700
0700
0700
0700
0700
0700
0700
0700
0700
FFF8
FFF8
ENDCHAR
STARTCHAR IJ
ENCODING -1
SWIDTH 600 0
DWIDTH 19 0
BBX 14 23 2 0
BITMAP
E01C
E01C
E01C
E01C
E01C
E01C
E01C
E01C
E01C
E01C
E01C
E01C
E01C
E01C
E01C
E01C
E01C
E01C
E01C
E03C
E378
E3F0
E3E0
ENDCHAR
STARTCHAR ij
ENCODING -1
SWIDTH 600 0
DWIDTH 19 0
BBX 13 32 3 -8
BITMAP
E038
E038
E038
E030
0000
0000
0000
E1F8
E1F8
E038
E038
E038
E038
E038
E038
E038
E038
E038
E038
E038
E038
E038
E038
E038
0038
0038
0038
0038
0038
04F0
07F0
07C0
ENDCHAR
STARTCHAR Jcircumflex
ENCODING -1
SWIDTH 600 0
DWIDTH 19 0
BBX 17 30 2 0
BITMAP
001C00
003E00
007600
00E300
01C180
000000
000000
003800
003800
003800
003800
003800
003800
003800
003800
003800
003800
003800
003800
003800
003800
003800
003800
003800
003800
007800
00F000
FFE000
FFC000
7F0000
ENDCHAR
STARTCHAR jcircumflex
ENCODING -1
SWIDTH 600 0
DWIDTH 19 0
BBX 12 32 3 -8
BITMAP
0380
07C0
0EC0
1C60
3830
0000
0000
3FE0
3FE0
00E0
00E0
00E0
00E0
00E0
00E0
00E0
00E0
00E0
00E0
00E0
00E0
00E0
00E0
00E0
00E0
00E0
00E0
00E0
01E0
C7C0
FF80
FE00
ENDCHAR
STARTCHAR uni0136
ENCODING -1
SWIDTH 600 0
DWIDTH 19 0
BBX 16 30 3 -7
BITMAP
E00F
E01E
E03C
E038
E070
E0E0
E1C0
E3C0
E780
EF00
EF00
FF00
FB80
E3C0
E1C0
E0E0
E0F0
E070
E038
E03C
E01E
E00E
E00F
0000
0000
0380
0380
0300
0700
0600
ENDCHAR
STARTCHAR uni0137
ENCODING -1
SWIDTH 600 0
DWIDTH 19 0
BBX 15 31 3 -7
BITMAP
E000
E000
E000
E000
E000
E000
E000
E01C
E038
E070
E0E0
E1C0
E380
E700
EE00
FF00
F780
E3C0
E1C0
E0E0
E070
E038
E03C
E01E
0000
0000
0380
0380
0300
0700
0600
ENDCHAR
STARTCHAR kgreenlandic
ENCODING -1
SWIDTH 600 0
DWIDTH 19 0
BBX 15 17 3 0
BITMAP
E01C
E038
E070
E0E0
E1C0
E380
E700
EE00
FE00
FF00
F380
E3C0
E1E0
E0F0
E078
E03C
E01E
ENDCHAR
STARTCHAR Lacute
ENCODING -1
SWIDTH 600 0
DWIDTH 19 0
BBX 12 30 4 0
BITMAP
3C00
3800
7000
6000
E000
0000
0000
E000
E000
E000
E000
E000
E000
E000
E000
E000
E000
E000
E000
E000
E000
E000
E000
E000
E000
E000
E000
FFF0
FFF0
FFF0
ENDCHAR
STARTCHAR lacute
ENCODING -1
SWIDTH 600 0
DWIDTH 19 0
BBX 13 30 3 0
BITMAP
01E0
01C0
0380
0300
0700
0000
7F00
7F00
0700
0700
0700
0700
0700
0700
0700
0700
0700
0700
0700
0700
0700
0700
0700
0700
0700
0700
0700
0700
FFF8
FFF8
ENDCHAR
STARTCHAR uni013B
ENCODING -1
SWIDTH 600 0
DWIDTH 19 0
BBX 12 30 4 -7
BITMAP
E000
E000
E000
E000
E000
E000
E000
E000
E000
E000
E000
E000
E000
E000
E000
E000
E000
E000
E000
E000
FFF0
FFF0
FFF0
0000
0000
0700
0700
0600
0E00
0C00
ENDCHAR
STARTCHAR uni013C
ENCODING -1
SWIDTH 600 0
DWIDTH 19 0
BBX 13 31 3 -7
BITMAP
7F00
7F00
0700
0700
0700
0700
0700
0700
0700
0700
0700
0700
0700
0700
0700
0700
0700
0700
0700
0700
0700
0700
FFF8
FFF8
0000
0000
0700
0700
0600
0E00
0C00
ENDCHAR
STARTCHAR Lcaron
ENCODING -1
SWIDTH 600 0
DWIDTH 19 0
BBX 12 23 4 0
BITMAP
E070
E070
E060
E0E0
E0C0
E000
E000
E000
E000
E000
E000
E000
E000
E000
E000
E000
E000
E000
E000
E000
FFF0
FFF0
FFF0
ENDCHAR
STARTCHAR lcaron
ENCODING -1
SWIDTH 600 0
DWIDTH 19 0
BBX 14 24 3 0
BITMAP
7F1C
7F1C
0718
0738
0730
0700
0700
0700
0700
0700
0700
0700
0700
0700
0700
0700
0700
0700
0700
0700
0700
0700
FFF8
FFF8
ENDCHAR
STARTCHAR Ldot
ENCODING -1
SWIDTH 600 0
DWIDTH 19 0
BBX 12 23 4 0
BITMAP
E000
E000
E000
E000
E000
E000
E000
E000
E000
E000
E0E0
E0E0
E0E0
E000
E000
E000
E000
E000
E000
E000
FFF0
FFF0
FFF0
ENDCHAR
STARTCHAR ldot
ENCODING -1
SWIDTH 600 0
DWIDTH 19 0
BBX 14 24 3 0
BITMAP
7F00
7F00
0700
0700
0700
0700
0700
0700
0700
0700
0700
0700
071C
071C
071C
0700
0700
0700
0700
0700
0700
0700
FFF8
FFF8
ENDCHAR
STARTCHAR Lslash
ENCODING -1
SWIDTH 600 0
DWIDTH 19 0
BBX 16 23 1 0
BITMAP
1C00
1C00
1C00
1C00
1C00
1C00
1C00
1C00
1C20
1CF0
1FE0
1F80
1E00
7C00
FC00
5C00
1C00
1C00
1C00
1C00
1FFF
1FFF
1FFF
ENDCHAR
STARTCHAR lslash
ENCODING -1
SWIDTH 600 0
DWIDTH 19 0
BBX 13 24 3 0
BITMAP
7F00
7F00
0700
0700
0700
0700
0700
0700
0700
0720
07F0
07E0
0780
1F00
3F00
1700
0700
0700
0700
0700
0700
0700
FFF8
FFF8
ENDCHAR
STARTCHAR Nacute
ENCODING -1
SWIDTH 600 0
DWIDTH 19 0
BBX 15 30 2 0
BITMAP
00F0
00E0
01C0
0180
0380
0000
0000
F00E
F00E
F80E
F80E
D80E
DC0E
EC0E
EE0E
E60E
E70E
E30E
E38E
E18E
E1CE
E0CE
E0EE
E06E
E07E
E036
E03E
E03E
E01E
E01E
ENDCHAR
STARTCHAR nacute
ENCODING -1
SWIDTH 600 0
DWIDTH 19 0
BBX 13 24 3 0
BITMAP
01E0
01C0
0380
0300
0700
0000
0000
C7C0
EFF0
FCF0
F078
F038
E038
E038
E038
E038
E038
E038
E038
E038
E038
E038
E038
E038
ENDCHAR
STARTCHAR uni0145
ENCODING -1
SWIDTH 600 0
DWIDTH 19 0
BBX 15 30 2 -7
BITMAP
F00E
F00E
F80E
F80E
D80E
DC0E
EC0E
EE0E
E60E
E70E
E30E
E38E
E18E
E1CE
E0CE
E0EE
E06E
E07E
E036
E03E
E03E
E01E
E01E
0000
0000
0380
0380
0300
0700
0600
ENDCHAR
STARTCHAR uni0146
ENCODING -1
SWIDTH 600 0
DWIDTH 19 0
BBX 13 24 3 -7
BITMAP
C7C0
EFF0
FCF0
F078
F038
E038
E038
E038
E038
E038
E038
E038
E038
E038
E038
E038
E038
0000
0000
0700
0700
0600
0E00
0C00
ENDCHAR
STARTCHAR Ncaron
ENCODING -1
SWIDTH 600 0
DWIDTH 19 0
BBX 15 30 2 0
BITMAP
1C18
0E30
0760
03E0
01C0
0000
0000
F00E
F00E
F80E
F80E
D80E
DC0E
EC0E
EE0E
E60E
E70E
E30E
E38E
E18E
E1CE
E0CE
E0EE
E06E
E07E
E036
E03E
E03E
E01E
E01E
ENDCHAR
STARTCHAR ncaron
ENCODING -1
SWIDTH 600 0
DWIDTH 19 0
BBX 13 24 3 0
BITMAP
3830
1C60
0EC0
07C0
0380
0000
0000
C7C0
EFF0
FCF0
F078
F038
E038
E038
E038
E038
E038
E038
E038
E038
E038
E038
E038
E038
ENDCHAR
STARTCHAR napostrophe
ENCODING -1
SWIDTH 600 0
DWIDTH 19 0
BBX 17 24 0 0
BITMAP
380000
780000
700000
700000
700000
600000
E00000
CC7C00
0EFF00
0FCF00
0F0780
0F0380
0E0380
0E0380
0E0380
0E0380
0E0380
0E0380
0E0380
0E0380
0E0380
0E0380
0E0380
0E0380
ENDCHAR
STARTCHAR Eng
ENCODING -1
SWIDTH 600 0
DWIDTH 19 0
BBX 15 29 2 -6
BITMAP
F00E
F00E
F80E
F80E
DC0E
DC0E
EE0E
EE0E
E70E
E70E
E38E
E38E
E1CE
E1CE
E0EE
E0EE
E07E
E076
E03E
E01E
E01E
E00E
E00E
000E
000E
000E
01FC
01F8
01F0
ENDCHAR
STARTCHAR eng
ENCODING -1
SWIDTH 600 0
DWIDTH 19 0
BBX 13 25 3 -8
BITMAP
C7C0
EFF0
FCF0
F078
F038
E038
E038
E038
E038
E038
E038
E038
E038
E038
E038
E038
E038
0038
0038
0038
0038
0038
0178
01F0
01E0
ENDCHAR
STARTCHAR Omacron
ENCODING -1
SWIDTH 600 0
DWIDTH 19 0
BBX 17 27 1 0
BITMAP
0FF800
0FF800
000000
000000
07F000
1FF800
3FFC00
3C1E00
780F00
700700
700700
E00380
E00380
E00380
E00380
E00380
E00380
E00380
E00380
E00380
700700
700700
780F00
3C1E00
3FFC00
1FF800
07F000
ENDCHAR
STARTCHAR omacron
ENCODING -1
SWIDTH 600 0
DWIDTH 19 0
BBX 15 21 2 0
BITMAP
1FF0
1FF0
0000
0000
07C0
1FF0
3EF8
701C
701C
E00E
E00E
E00E
E00E
E00E
E00E
E00E
701C
701C
3EF8
1FF0
07C0
ENDCHAR
STARTCHAR Obreve
ENCODING -1
SWIDTH 600 0
DWIDTH 19 0
BBX 17 29 1 0
BITMAP
0C1800
0E7800
07F000
03E000
000000
000000
07F000
1FF800
3FFC00
3C1E00
780F00
700700
700700
E00380
E00380
E00380
E00380
E00380
E00380
E00380
E00380
E00380
700700
700700
780F00
3C1E00
3FFC00
1FF800
07F000
ENDCHAR
STARTCHAR obreve
ENCODING -1
SWIDTH 600 0
DWIDTH 19 0
BBX 15 23 2 0
BITMAP
1830
1CF0
0FE0
07C0
0000
0000
07C0
1FF0
3EF8
701C
701C
E00E
E00E
E00E
E00E
E00E
E00E
E00E
701C
701C
3EF8
1FF0
07C0
ENDCHAR
STARTCHAR Ohungarumlaut
ENCODING -1
SWIDTH 600 0
DWIDTH 19 0
BBX 17 30 1 0
BITMAP
03CF00
038E00
071C00
061800
0C3000
000000
000000
07F000
1FF800
3FFC00
3C1E00
780F00
700700
700700
E00380
E00380
E00380
E00380
E00380
E00380
E00380
E00380
E00380
700700
700700
780F00
3C1E00
3FFC00
1FF800
07F000
ENDCHAR
STARTCHAR ohungarumlaut
ENCODING -1
SWIDTH 600 0
DWIDTH 19 0
BBX 15 24 2 0
BITMAP
079E
071C
0E38
0C30
1860
0000
0000
07C0
1FF0
3EF8
701C
701C
E00E
E00E
E00E
E00E
E00E
E00E
E00E
701C
701C
3EF8
1FF0
07C0
ENDCHAR
STARTCHAR OE
ENCODING -1
SWIDTH 600 0
DWIDTH 19 0
BBX 18 23 0 0
BITMAP
07FFC0
1FFFC0
3FFFC0
387000
707000
707000
E07000
E07000
E07000
E07000
E07F80
E07F80
E07F80
E07000
E07000
E07000
E07000
707000
707000
787000
3FFFC0
1FFFC0
07FFC0
ENDCHAR
STARTCHAR oe
ENCODING -1
SWIDTH 600 0
DWIDTH 19 0
BBX 17 17 1 0
BITMAP
1E1E00
3F3F00
7BB700
71E300
E0E380
E0E380
E0E380
E0FF80
E0FF80
E0E000
E0E000
E0E000
E0E000
71F000
7BBB00
3F3F00
1E1E00
ENDCHAR
STARTCHAR Racute
ENCODING -1
SWIDTH 600 0
DWIDTH 19 0
BBX 15 30 3 0
BITMAP
03C0
0380
0700
0600
0E00
0000
0000
FF80
FFE0
E7F0
E070
E038
E038
E038
E038
E038
E070
E0F0
FFE0
FF80
E380
E1C0
E1E0
E0E0
E070
E070
E038
E03C
E01C
E00E
ENDCHAR
STARTCHAR racute
ENCODING -1
SWIDTH 600 0
DWIDTH 19 0
BBX 12 24 4 0
BITMAP
03C0
0380
0700
0600
0E00
0000
0000
C3E0
CFF0
FFF0
F800
F000
E000
E000
E000
E000
E000
E000
E000
E000
E000
E000
E000
E000
ENDCHAR
STARTCHAR uni0156
ENCODING -1
SWIDTH 600 0
DWIDTH 19 0
BBX 15 30 3 -7
BITMAP
FF80
FFE0
E7F0
E070
E038
E038
E038
E038
E038
E070
E0F0
FFE0
FF80
E380
E1C0
E1E0
E0E0
E070
E070
E038
E03C
E01C
E00E
0000
0000
0380
0380
0300
0700
0600
ENDCHAR
STARTCHAR uni0157
ENCODING -1
SWIDTH 600 0
DWIDTH 19 0
BBX 13 24 3 -7
BITMAP
61F0
67F8
7FF8
7C00
7800
7000
7000
7000
7000
7000
7000
7000
7000
7000
7000
7000
7000
0000
0000
7000
7000
6000
E000
C000
ENDCHAR
STARTCHAR Rcaron
ENCODING -1
SWIDTH 600 0
DWIDTH 19 0
BBX 15 30 3 0
BITMAP
7060
38C0
1D80
0F80
0700
0000
0000
FF80
FFE0
E7F0
E070
E038
E038
E038
E038
E038
E070
E0F0
FFE0
FF80
E380
E1C0
E1E0
E0E0
E070
E070
E038
E03C
E01C
E00E
ENDCHAR
STARTCHAR rcaron
ENCODING -1
SWIDTH 600 0
DWIDTH 19 0
BBX 12 24 4 0
BITMAP
7060
38C0
1D80
0F80
0700
0000
0000
C3E0
CFF0
FFF0
F800
F000
E000
E000
E000
E000
E000
E000
E000
E000
E000
E000
E000
E000
ENDCHAR
STARTCHAR Sacute
ENCODING -1
SWIDTH 600 0
DWIDTH 19 0
BBX 14 30 3 0
BITMAP
00F0
00E0
01C0
0180
0380
0000
0000
0FF0
3FFC
7FFC
F008
E000
E000
E000
E000
7000
7C00
3F80
0FE0
03F0
00F8
003C
001C
001C
001C
001C
8038
FFF8
FFF0
7FC0
ENDCHAR
STARTCHAR sacute
ENCODING -1
SWIDTH 600 0
DWIDTH 19 0
BBX 13 24 3 0
BITMAP
01E0
01C0
0380
0300
0700
0000
0000
1FE0
7FF8
FCF0
E000
E000
E000
7800
3F00
0FC0
03F0
0078
0038
0038
0038
F8F0
FFE0
7F80
ENDCHAR
STARTCHAR Scircumflex
ENCODING -1
SWIDTH 600 0
DWIDTH 19 0
BBX 14 30 3 0
BITMAP
01C0
03E0
0760
0E30
1C18
0000
0000
0FF0
3FFC
7FFC
F008
E000
E000
E000
E000
7000
7C00
3F80
0FE0
03F0
00F8
003C
001C
001C
001C
001C
8038
FFF8
FFF0
7FC0
ENDCHAR
STARTCHAR scircumflex
ENCODING -1
SWIDTH 600 0
DWIDTH 19 0
BBX 13 24 3 0
BITMAP
0380
07C0
0EC0
1C60
3830
0000
0000
1FE0
7FF8
FCF0
E000
E000
E000
7800
3F00
0FC0
03F0
0078
0038
0038
0038
F8F0
FFE0
7F80
ENDCHAR
STARTCHAR Scedilla
ENCODING -1
SWIDTH 600 0
DWIDTH 19 0
BBX 14 31 3 -8
BITMAP
0FF0
3FFC
7FFC
F008
E000
E000
E000
E000
7000
7C00
3F80
0FE0
03F0
00F8
003C
001C
001C
001C
001C
8038
FFF8
FFF0
7FC0
0300
0300
0780
01C0
00C0
00C0
0F80
0F00
ENDCHAR
STARTCHAR scedilla
ENCODING -1
SWIDTH 600 0
DWIDTH 19 0
BBX 13 25 3 -8
BITMAP
1FE0
7FF8
FCF0
E000
E000
E000
7800
3F00
0FC0
03F0
0078
0038
0038
0038
F8F0
FFE0
7F80
0300
0300
0780
01C0
00C0
00C0
0F80
0F00
ENDCHAR
STARTCHAR Scaron
ENCODING -1
SWIDTH 600 0
DWIDTH 19 0
BBX 14 30 3 0
BITMAP
1C18
0E30
0760
03E0
01C0
0000
0000
0FF0
3FFC
7FFC
F008
E000
E000
E000
E000
7000
7C00
3F80
0FE0
03F0
00F8
003C
001C
001C
001C
001C
8038
FFF8
FFF0
7FC0
ENDCHAR
STARTCHAR scaron
ENCODING -1
SWIDTH 600 0
DWIDTH 19 0
BBX 13 24 3 0
BITMAP
3830
1C60
0EC0
07C0
0380
0000
0000
1FE0
7FF8
FCF0
E000
E000
E000
7800
3F00
0FC0
03F0
0078
0038
0038
0038
F8F0
FFE0
7F80
ENDCHAR
STARTCHAR uni021A
ENCODING -1
SWIDTH 600 0
DWIDTH 19 0
BBX 16 30 1 -7
BITMAP
FFFF
FFFF
FFFF
01C0
01C0
01C0
01C0
01C0
01C0
01C0
01C0
01C0
01C0
01C0
01C0
01C0
01C0
01C0
01C0
01C0
01C0
01C0
01C0
0000
0000
01C0
01C0
0180
0380
0300
ENDCHAR
STARTCHAR uni021B
ENCODING -1
SWIDTH 600 0
DWIDTH 19 0
BBX 14 29 2 -7
BITMAP
0600
0600
0600
0E00
0E00
7FFC
FFFC
0E00
0E00
0E00
0E00
0E00
0E00
0E00
0E00
0E00
0E00
0E00
0E00
078C
07FC
01FC
0000
0000
01C0
01C0
0180
0380
0300
ENDCHAR
STARTCHAR Tcaron
ENCODING -1
SWIDTH 600 0
DWIDTH 19 0
BBX 16 30 1 0
BITMAP
1C18
0E30
0760
03E0
01C0
0000
0000
FFFF
FFFF
FFFF
01C0
01C0
01C0
01C0
01C0
01C0
01C0
01C0
01C0
01C0
01C0
01C0
01C0
01C0
01C0
01C0
01C0
01C0
01C0
01C0
ENDCHAR
STARTCHAR tcaron
ENCODING -1
SWIDTH 600 0
DWIDTH 19 0
BBX 15 24 2 0
BITMAP
000E
000E
060C
061C
0618
0E00
0E00
7FFC
FFFC
0E00
0E00
0E00
0E00
0E00
0E00
0E00
0E00
0E00
0E00
0E00
0E00
078C
07FC
01FC
ENDCHAR
STARTCHAR Tbar
ENCODING -1
SWIDTH 600 0
DWIDTH 19 0
BBX 16 23 1 0
BITMAP
FFFF
FFFF
FFFF
01C0
01C0
01C0
01C0
01C0
01C0
01C0
3FFC
3FFC
01C0
01C0
01C0
01C0
01C0
01C0
01C0
01C0
01C0
01C0
01C0
ENDCHAR
STARTCHAR tbar
ENCODING -1
SWIDTH 600 0
DWIDTH 19 0
BBX 14 22 2 0
BITMAP
0600
0600
0600
0E00
0E00
7FFC
FFFC
0E00
0E00
0E00
0E00
3FF0
3FF0
0E00
0E00
0E00
0E00
0E00
0E00
078C
07FC
01FC
ENDCHAR
STARTCHAR Utilde
ENCODING -1
SWIDTH 600 0
DWIDTH 19 0
BBX 15 29 2 0
BITMAP
0E18
1FB8
3BF0
30E0
0000
0000
E00E
E00E
E00E
E00E
E00E
E00E
E00E
E00E
E00E
E00E
E00E
E00E
E00E
E00E
E00E
E00E
E00E
E00E
701C
783C
3FF8
3FF0
0FE0
ENDCHAR
STARTCHAR utilde
ENCODING -1
SWIDTH 600 0
DWIDTH 19 0
BBX 13 23 3 0
BITMAP
1C30
3F70
77E0
61C0
0000
0000
E038
E038
E038
E038
E038
E038
E038
E038
E038
E038
E038
E038
E038
F078
79F8
7FB8
1F18
ENDCHAR
STARTCHAR Umacron
ENCODING -1
SWIDTH 600 0
DWIDTH 19 0
BBX 15 27 2 0
BITMAP
1FF0
1FF0
0000
0000
E00E
E00E
E00E
E00E
E00E
E00E
E00E
E00E
E00E
E00E
E00E
E00E
E00E
E00E
E00E
E00E
E00E
E00E
701C
783C
3FF8
3FF0
0FE0
ENDCHAR
STARTCHAR umacron
ENCODING -1
SWIDTH 600 0
DWIDTH 19 0
BBX 13 21 3 0
BITMAP
3FE0
3FE0
0000
0000
E038
E038
E038
E038
E038
E038
E038
E038
E038
E038
E038
E038
E038
F078
79F8
7FB8
1F18
ENDCHAR
STARTCHAR Ubreve
ENCODING -1
SWIDTH 600 0
DWIDTH 19 0
BBX 15 29 2 0
BITMAP
1830
1CF0
0FE0
07C0
0000
0000
E00E
E00E
E00E
E00E
E00E
E00E
E00E
E00E
E00E
E00E
E00E
E00E
E00E
E00E
E00E
E00E
E00E
E00E
701C
783C
3FF8
3FF0
0FE0
ENDCHAR
STARTCHAR ubreve
ENCODING -1
SWIDTH 600 0
DWIDTH 19 0
BBX 13 23 3 0
BITMAP
3060
39E0
1FC0
0F80
0000
0000
E038
E038
E038
E038
E038
E038
E038
E038
E038
E038
E038
E038
E038
F078
79F8
7FB8
1F18
ENDCHAR
STARTCHAR Uring
ENCODING -1
SWIDTH 600 0
DWIDTH 19 0
BBX 15 32 2 0
BITMAP
0380
0FC0
0C60
0C60
0C60
0FC0
0780
0000
0000
E00E
E00E
E00E
E00E
E00E
E00E
E00E
E00E
E00E
E00E
E00E
E00E
E00E
E00E
E00E
E00E
E00E
E00E
701C
783C
3FF8
3FF0
0FE0
ENDCHAR
STARTCHAR uring
ENCODING -1
SWIDTH 600 0
DWIDTH 19 0
BBX 13 26 3 0
BITMAP
0700
1F80
18C0
18C0
18C0
1F80
0F00
0000
0000
E038
E038
E038
E038
E038
E038
E038
E038
E038
E038
E038
E038
E038
F078
79F8
7FB8
1F18
ENDCHAR
STARTCHAR Uhungarumlaut
ENCODING -1
SWIDTH 600 0
DWIDTH 19 0
BBX 15 30 2 0
BITMAP
079E
071C
0E38
0C30
1860
0000
0000
E00E
E00E
E00E
E00E
E00E
E00E
E00E
E00E
E00E
E00E
E00E
E00E
E00E
E00E
E00E
E00E
E00E
E00E
701C
783C
3FF8
3FF0
0FE0
ENDCHAR
STARTCHAR uhungarumlaut
ENCODING -1
SWIDTH 600 0
DWIDTH 19 0
BBX 14 24 3 0
BITMAP
0F3C
0E38
1C70
1860
30C0
0000
0000
E038
E038
E038
E038
E038
E038
E038
E038
E038
E038
E038
E038
E038
F078
79F8
7FB8
1F18
ENDCHAR
STARTCHAR Uogonek
ENCODING -1
SWIDTH 600 0
DWIDTH 19 0
BBX 15 30 2 -7
BITMAP
E00E
E00E
E00E
E00E
E00E
E00E
E00E
E00E
E00E
E00E
E00E
E00E
E00E
E00E
E00E
E00E
E00E
E00E
701C
783C
3FF8
3FF0
0FE0
0180
0300
0700
0600
0700
07E0
03E0
ENDCHAR
STARTCHAR uogonek
ENCODING -1
SWIDTH 600 0
DWIDTH 19 0
BBX 14 24 3 -7
BITMAP
E038
E038
E038
E038
E038
E038
E038
E038
E038
E038
E038
E038
E038
F078
79F8
7FB8
1F18
0030
0060
00E0
00C0
00E0
00FC
007C
ENDCHAR
STARTCHAR Wcircumflex
ENCODING -1
SWIDTH 600 0
DWIDTH 19 0
BBX 19 30 0 0
BITMAP
007000
00F800
01D800
038C00
070600
000000
000000
E000E0
E000E0
E000E0
E000E0
6000C0
6000C0
7000C0
70E0C0
70E0C0
71B1C0
71B1C0
31B1C0
31B1C0
33B980
3B1980
3B1980
3B1D80
3F0D80
1E0D80
1E0D80
1E0780
1E0780
1C0700
ENDCHAR
STARTCHAR wcircumflex
ENCODING -1
SWIDTH 600 0
DWIDTH 19 0
BBX 19 24 0 0
BITMAP
007000
00F800
01D800
038C00
070600
000000
000000
E0E0E0
E0E0E0
61F0C0
61B0C0
61B0C0
71B1C0
71B1C0
33B980
331980
331980
331980
3B1B80
1E1F00
1E0F00
1E0F00
1E0F00
1E0F00
ENDCHAR
STARTCHAR Ycircumflex
ENCODING -1
SWIDTH 600 0
DWIDTH 19 0
BBX 19 30 0 0
BITMAP
007000
00F800
01D800
038C00
070600
000000
000000
E000E0
7001C0
7803C0
380380
1C0700
1C0700
0E0E00
0E0E00
071C00
071C00
03B800
01F000
01F000
00E000
00E000
00E000
00E000
00E000
00E000
00E000
00E000
00E000
00E000
ENDCHAR
STARTCHAR ycircumflex
ENCODING -1
SWIDTH 600 0
DWIDTH 19 0
BBX 17 32 1 -8
BITMAP
00E000
01F000
03B000
071800
0E0C00
000000
000000
E00380
700700
700700
700700
380E00
380E00
1C1C00
1C1C00
0C1C00
0E3800
0E3800
077000
077000
037000
03E000
01E000
01C000
01C000
01C000
038000
038000
070000
1F0000
FE0000
F80000
ENDCHAR
STARTCHAR Ydieresis
ENCODING -1
SWIDTH 600 0
DWIDTH 19 0
BBX 19 28 0 0
BITMAP
071C00
071C00
071C00
000000
000000
E000E0
7001C0
7803C0
380380
1C0700
1C0700
0E0E00
0E0E00
071C00
071C00
03B800
01F000
01F000
00E000
00E000
00E000
00E000
00E000
00E000
00E000
00E000
00E000
00E000
ENDCHAR
STARTCHAR Zacute
ENCODING -1
SWIDTH 600 0
DWIDTH 19 0
BBX 15 30 2 0
BITMAP
00F0
00E0
01C0
0180
0380
0000
0000
FFFE
FFFE
FFFE
001C
003C
0038
0070
0070
00E0
01C0
01C0
0380
0700
0700
0E00
1C00
1C00
3800
7800
7000
FFFE
FFFE
FFFE
ENDCHAR
STARTCHAR zacute
ENCODING -1
SWIDTH 600 0
DWIDTH 19 0
BBX 13 24 3 0
BITMAP
01E0
01C0
0380
0300
0700
0000
0000
7FF8
7FF8
0038
0070
00E0
00E0
01C0
0380
0700
0E00
0E00
1C00
3800
7000
E000
FFF8
FFF8
ENDCHAR
STARTCHAR Zdotaccent
ENCODING -1
SWIDTH 600 0
DWIDTH 19 0
BBX 15 28 2 0
BITMAP
0380
0380
0380
0000
0000
FFFE
FFFE
FFFE
001C
003C
0038
0070
0070
00E0
01C0
01C0
0380
0700
0700
0E00
1C00
1C00
3800
7800
7000
FFFE
FFFE
FFFE
ENDCHAR
STARTCHAR zdotaccent
ENCODING -1
SWIDTH 600 0
DWIDTH 19 0
BBX 13 23 3 0
BITMAP
0700
0700
0700
0000
0000
0000
7FF8
7FF8
0038
0070
00E0
00E0
01C0
0380
0700
0E00
0E00
1C00
3800
7000
E000
FFF8
FFF8
ENDCHAR
STARTCHAR Zcaron
ENCODING -1
SWIDTH 600 0
DWIDTH 19 0
BBX 15 30 2 0
BITMAP
1C18
0E30
0760
03E0
01C0
0000
0000
FFFE
FFFE
FFFE
001C
003C
0038
0070
0070
00E0
01C0
01C0
0380
0700
0700
0E00
1C00
1C00
3800
7800
7000
FFFE
FFFE
FFFE
ENDCHAR
STARTCHAR zcaron
ENCODING -1
SWIDTH 600 0
DWIDTH 19 0
BBX 13 24 3 0
BITMAP
3830
1C60
0EC0
07C0
0380
0000
0000
7FF8
7FF8
0038
0070
00E0
00E0
01C0
0380
0700
0E00
0E00
1C00
3800
7000
E000
FFF8
FFF8
ENDCHAR
STARTCHAR longs
ENCODING -1
SWIDTH 600 0
DWIDTH 19 0
BBX 10 24 6 0
BITMAP
1FC0
7FC0
7980
E000
E000
E000
E000
E000
E000
E000
E000
E000
E000
E000
E000
E000
E000
E000
E000
E000
E000
E000
E000
E000
ENDCHAR
STARTCHAR florin
ENCODING -1
SWIDTH 600 0
DWIDTH 19 0
BBX 12 31 4 -8
BITMAP
03F0
07F0
0FA0
0E00
0E00
0E00
0E00
0E00
3FC0
7FC0
0E00
0E00
0E00
0E00
0E00
0E00
0E00
0E00
0E00
0E00
0E00
0E00
0E00
0E00
0E00
0E00
0E00
0E00
BC00
FC00
F000
ENDCHAR
STARTCHAR Aringacute
ENCODING -1
SWIDTH 600 0
DWIDTH 19 0
BBX 17 34 1 0
BITMAP
00F000
00E000
01C000
018000
038000
000000
01C000
07E000
063000
063000
063000
07E000
03E000
03E000
036000
036000
077000
077000
063000
0E3800
0E3800
0E1800
1C1C00
1C1C00
1FFC00
1FFC00
3FFE00
380E00
380600
700700
700700
700700
E00380
E00380
ENDCHAR
STARTCHAR aringacute
ENCODING -1
SWIDTH 600 0
DWIDTH 19 0
BBX 14 31 2 0
BITMAP
01E0
01C0
0380
0300
0700
0380
0FC0
0C60
0C60
0C60
0FC0
0780
0000
0000
0FE0
7FF8
3CF8
203C
001C
001C
001C
07FC
3FFC
781C
F01C
E01C
E01C
E03C
F8FC
7FCC
1F8C
ENDCHAR
STARTCHAR AEacute
ENCODING -1
SWIDTH 600 0
DWIDTH 19 0
BBX 18 30 0 0
BITMAP
000F00
000E00
001C00
001800
003800
000000
000000
07FFC0
07FFC0
0FFFC0
0EE000
0CE000
0CE000
0CE000
1CE000
1CE000
18E000
18FF80
38FF80
38FF80
3FE000
3FE000
3FE000
70E000
70E000
70E000
60E000
60FFC0
E0FFC0
E0FFC0
ENDCHAR
STARTCHAR aeacute
ENCODING -1
SWIDTH 600 0
DWIDTH 19 0
BBX 17 24 1 0
BITMAP
003C00
003800
007000
006000
00E000
000000
000000
1E1C00
7F3E00
73F700
01E300
01C380
01C380
01C380
1FFF80
7FFF80
71C000
E1C000
E1C000
E1C000
E3E080
F77F80
7E3F80
3C1F00
ENDCHAR
STARTCHAR Oslashacute
ENCODING -1
SWIDTH 600 0
DWIDTH 19 0
BBX 17 31 1 -1
BITMAP
007800
007000
00E000
00C000
01C000
000000
000000
07F380
1FFB80
3FFF00
3C1E00
780F00
701F00
703F00
E03B80
E07380
E0E380
E0E380
E1C380
E38380
E38380
E70380
EE0380
7E0700
7C0700
780F00
381E00
7FFC00
7FF800
E7E000
400000
ENDCHAR
STARTCHAR oslashacute
ENCODING -1
SWIDTH 600 0
DWIDTH 19 0
BBX 15 25 2 -1
BITMAP
00F0
00E0
01C0
0180
0380
0000
0008
07DC
1FF8
3E78
707C
707C
E0EE
E1CE
E18E
E38E
E30E
E70E
EE0E
7C1C
7C1C
3EF8
3FF0
77C0
2000
ENDCHAR
STARTCHAR uni0218
ENCODING -1
SWIDTH 600 0
DWIDTH 19 0
BBX 14 30 3 -7
BITMAP
0FF0
3FFC
7FFC
F008
E000
E000
E000
E000
7000
7C00
3F80
0FE0
03F0
00F8
003C
001C
001C
001C
001C
8038
FFF8
FFF0
7FC0
0000
0000
0380
0380
0300
0700
0600
ENDCHAR
STARTCHAR uni0219
ENCODING -1
SWIDTH 600 0
DWIDTH 19 0
BBX 13 24 3 -7
BITMAP
1FE0
7FF8
FCF0
E000
E000
E000
7800
3F00
0FC0
03F0
0078
0038
0038
0038
F8F0
FFE0
7F80
0000
0000
0700
0700
0600
0E00
0C00
ENDCHAR
STARTCHAR circumflex
ENCODING -1
SWIDTH 600 0
DWIDTH 19 0
BBX 10 5 5 19
BITMAP
0E00
1F00
3B00
7180
E0C0
ENDCHAR
STARTCHAR caron
ENCODING -1
SWIDTH 600 0
DWIDTH 19 0
BBX 10 5 5 19
BITMAP
E0C0
7180
3B00
1F00
0E00
ENDCHAR
STARTCHAR uni02C9
ENCODING -1
SWIDTH 600 0
DWIDTH 19 0
BBX 9 2 5 19
BITMAP
FF80
FF80
ENDCHAR
STARTCHAR breve
ENCODING -1
SWIDTH 600 0
DWIDTH 19 0
BBX 9 4 5 19
BITMAP
C180
E780
7F00
3E00
ENDCHAR
STARTCHAR dotaccent
ENCODING -1
SWIDTH 600 0
DWIDTH 19 0
BBX 3 3 8 20
BITMAP
E0
E0
E0
ENDCHAR
STARTCHAR ring
ENCODING -1
SWIDTH 600 0
DWIDTH 19 0
BBX 7 7 6 19
BITMAP
38
FC
C6
C6
C6
FC
78
ENDCHAR
STARTCHAR ogonek
ENCODING -1
SWIDTH 600 0
DWIDTH 19 0
BBX 6 7 7 -7
BITMAP
30
60
E0
C0
E0
FC
7C
ENDCHAR
STARTCHAR tilde
ENCODING -1
SWIDTH 600 0
DWIDTH 19 0
BBX 11 4 4 19
BITMAP
3860
7EE0
EFC0
C380
ENDCHAR
STARTCHAR hungarumlaut
ENCODING -1
SWIDTH 600 0
DWIDTH 19 0
BBX 12 5 3 19
BITMAP
3CF0
38E0
71C0
6180
C300
ENDCHAR
STARTCHAR tonos
ENCODING -1
SWIDTH 600 0
DWIDTH 19 0
BBX 4 5 7 19
BITMAP
70
70
60
E0
C0
ENDCHAR
STARTCHAR dieresistonos
ENCODING -1
SWIDTH 600 0
DWIDTH 19 0
BBX 10 6 5 20
BITMAP
0F00
0E00
0E00
EDC0
EDC0
E1C0
ENDCHAR
STARTCHAR Alphatonos
ENCODING -1
SWIDTH 600 0
DWIDTH 19 0
BBX 17 23 1 0
BITMAP
71C000
71E000
63E000
E36000
C36000
077000
077000
063000
0E3800
0E3800
0E1800
1C1C00
1C1C00
1FFC00
1FFC00
3FFE00
380E00
380600
700700
700700
700700
E00380
E00380
ENDCHAR
STARTCHAR anoteleia
ENCODING -1
SWIDTH 600 0
DWIDTH 19 0
BBX 4 4 8 9
BITMAP
F0
F0
F0
F0
ENDCHAR
STARTCHAR Epsilontonos
ENCODING -1
SWIDTH 600 0
DWIDTH 19 0
BBX 18 23 -2 0
BITMAP
77FFC0
77FFC0
67FFC0
E70000
C70000
070000
070000
070000
070000
070000
07FF80
07FF80
07FF80
070000
070000
070000
070000
070000
070000
070000
07FFC0
07FFC0
07FFC0
ENDCHAR
STARTCHAR Etatonos
ENCODING -1
SWIDTH 600 0
DWIDTH 19 0
BBX 19 23 -2 0
BITMAP
7E00E0
7E00E0
6E00E0
EE00E0
CE00E0
0E00E0
0E00E0
0E00E0
0E00E0
0E00E0
0FFFE0
0FFFE0
0FFFE0
0E00E0
0E00E0
0E00E0
0E00E0
0E00E0
0E00E0
0E00E0
0E00E0
0E00E0
0E00E0
ENDCHAR
STARTCHAR Iotatonos
ENCODING -1
SWIDTH 600 0
DWIDTH 19 0
BBX 17 23 -1 0
BITMAP
7FFF80
7FFF80
607000
E07000
C07000
007000
007000
007000
007000
007000
007000
007000
007000
007000
007000
007000
007000
007000
007000
007000
007000
0FFF80
0FFF80
ENDCHAR
STARTCHAR Omicrontonos
ENCODING -1
SWIDTH 600 0
DWIDTH 19 0
BBX 20 23 -2 0
BITMAP
70FE00
73FF00
67FF80
E783C0
CF01E0
0E00E0
0E00E0
1C0070
1C0070
1C0070
1C0070
1C0070
1C0070
1C0070
1C0070
1C0070
0E00E0
0E00E0
0F01E0
0783C0
07FF80
03FF00
00FE00
ENDCHAR
STARTCHAR Upsilontonos
ENCODING -1
SWIDTH 600 0
DWIDTH 19 0
BBX 22 23 -3 0
BITMAP
7C001C
7E0038
6F0078
E70070
C380E0
0380E0
01C1C0
01C1C0
00E380
00E380
007700
003E00
003E00
001C00
001C00
001C00
001C00
001C00
001C00
001C00
001C00
001C00
001C00
ENDCHAR
STARTCHAR Omegatonos
ENCODING -1
SWIDTH 600 0
DWIDTH 19 0
BBX 20 23 -2 0
BITMAP
70FE00
71FF00
67FFC0
E701C0
CE00E0
0E00E0
1E00F0
1C0070
1C0070
1C0070
1C0070
1C0070
1C0070
1C0070
1C00E0
0E00E0
0E00E0
0701C0
070380
038700
1FCFF0
1FCFF0
1FCFF0
ENDCHAR
STARTCHAR iotadieresistonos
ENCODING -1
SWIDTH 600 0
DWIDTH 19 0
BBX 12 26 4 0
BITMAP
0F00
0E00
0E00
EDC0
EDC0
E1C0
0000
0000
0000
1C00
1C00
1C00
1C00
1C00
1C00
1C00
1C00
1C00
1C00
1C00
1C00
1C00
1C00
0F30
0FF0
03F0
ENDCHAR
STARTCHAR Alpha
ENCODING -1
SWIDTH 600 0
DWIDTH 19 0
BBX 17 23 1 0
BITMAP
01C000
01E000
03E000
036000
036000
077000
077000
063000
0E3800
0E3800
0E1800
1C1C00
1C1C00
1FFC00
1FFC00
3FFE00
380E00
380600
700700
700700
700700
E00380
E00380
ENDCHAR
STARTCHAR Beta
ENCODING -1
SWIDTH 600 0
DWIDTH 19 0
BBX 16 23 2 0
BITMAP
FFE0
FFF8
E1FC
E01E
E00E
E00E
E00E
E00E
E01C
E03C
FFF0
FFF0
E0FC
E00E
E00F
E007
E007
E007
E00F
E00E
E0FE
FFFC
FFF0
ENDCHAR
STARTCHAR Gamma
ENCODING -1
SWIDTH 600 0
DWIDTH 19 0
BBX 13 23 4 0
BITMAP
FFF8
FFF8
FFF8
E000
E000
E000
E000
E000
E000
E000
E000
E000
E000
E000
E000
E000
E000
E000
E000
E000
E000
E000
E000
ENDCHAR
STARTCHAR uni0394
ENCODING -1
SWIDTH 600 0
DWIDTH 19 0
BBX 17 23 1 0
BITMAP
01C000
01C000
03E000
036000
036000
077000
077000
063000
0E3800
0E3800
0C1800
1C1C00
1C1C00
180C00
380E00
380E00
700600
700700
700700
E00700
FFFF80
FFFF80
FFFF80
ENDCHAR
STARTCHAR Epsilon
ENCODING -1
SWIDTH 600 0
DWIDTH 19 0
BBX 13 23 3 0
BITMAP
FFF8
FFF8
FFF8
E000
E000
E000
E000
E000
E000
E000
FFF0
FFF0
FFF0
E000
E000
E000
E000
E000
E000
E000
FFF8
FFF8
FFF8
ENDCHAR
STARTCHAR Zeta
ENCODING -1
SWIDTH 600 0
DWIDTH 19 0
BBX 15 23 2 0
BITMAP
FFFE
FFFE
FFFE
001C
003C
0038
0070
0070
00E0
01C0
01C0
0380
0700
0700
0E00
1C00
1C00
3800
7800
7000
FFFE
FFFE
FFFE
ENDCHAR
STARTCHAR Eta
ENCODING -1
SWIDTH 600 0
DWIDTH 19 0
BBX 15 23 2 0
BITMAP
E00E
E00E
E00E
E00E
E00E
E00E
E00E
E00E
E00E
E00E
FFFE
FFFE
FFFE
E00E
E00E
E00E
E00E
E00E
E00E
E00E
E00E
E00E
E00E
ENDCHAR
STARTCHAR Theta
ENCODING -1
SWIDTH 600 0
DWIDTH 19 0
BBX 17 23 1 0
BITMAP
07F000
1FF800
3FFC00
3C1E00
780F00
700700
700700
E00380
E00380
E00380
E7F380
E7F380
E00380
E00380
E00380
E00380
700700
700700
780F00
3C1E00
3FFC00
1FF800
07F000
ENDCHAR
STARTCHAR Iota
ENCODING -1
SWIDTH 600 0
DWIDTH 19 0
BBX 13 23 3 0
BITMAP
FFF8
FFF8
0700
0700
0700
0700
0700
0700
0700
0700
0700
0700
0700
0700
0700
0700
0700
0700
0700
0700
0700
FFF8
FFF8
ENDCHAR
STARTCHAR Kappa
ENCODING -1
SWIDTH 600 0
DWIDTH 19 0
BBX 16 23 3 0
BITMAP
E00F
E01E
E03C
E038
E070
E0E0
E1C0
E3C0
E780
EF00
EF00
FF00
FB80
E3C0
E1C0
E0E0
E0F0
E070
E038
E03C
E01E
E00E
E00F
ENDCHAR
STARTCHAR Lambda
ENCODING -1
SWIDTH 600 0
DWIDTH 19 0
BBX 18 23 1 0
BITMAP
01E000
01E000
01E000
03F000
03F000
033000
073800
073800
073800
0E1C00
0E1C00
0E1C00
1C0E00
1C0E00
1C0E00
380700
380700
380700
700780
700380
700380
F003C0
E001C0
ENDCHAR
STARTCHAR Mu
ENCODING -1
SWIDTH 600 0
DWIDTH 19 0
BBX 15 23 2 0
BITMAP
F01E
F01E
F01E
F01E
D836
D836
D836
D836
D836
CC66
CC66
CC66
CC66
CC66
C6C6
C6C6
C6C6
C6C6
C6C6
C386
C386
C386
C386
ENDCHAR
STARTCHAR Nu
ENCODING -1
SWIDTH 600 0
DWIDTH 19 0
BBX 15 23 2 0
BITMAP
F00E
F00E
F80E
F80E
D80E
DC0E
EC0E
EE0E
E60E
E70E
E30E
E38E
E18E
E1CE
E0CE
E0EE
E06E
E07E
E036
E03E
E03E
E01E
E01E
ENDCHAR
STARTCHAR Xi
ENCODING -1
SWIDTH 600 0
DWIDTH 19 0
BBX 15 23 2 0
BITMAP
7FFC
7FFC
7FFC
0000
0000
0000
0000
0000
0000
0000
3FF8
3FF8
3FF8
0000
0000
0000
0000
0000
0000
0000
FFFE
FFFE
FFFE
ENDCHAR
STARTCHAR Omicron
ENCODING -1
SWIDTH 600 0
DWIDTH 19 0
BBX 17 23 1 0
BITMAP
07F000
1FF800
3FFC00
3C1E00
780F00
700700
700700
E00380
E00380
E00380
E00380
E00380
E00380
E00380
E00380
E00380
700700
700700
780F00
3C1E00
3FFC00
1FF800
07F000
ENDCHAR
STARTCHAR Pi
ENCODING -1
SWIDTH 600 0
DWIDTH 19 0
BBX 15 23 2 0
BITMAP
FFFE
FFFE
FFFE
E00E
E00E
E00E
E00E
E00E
E00E
E00E
E00E
E00E
E00E
E00E
E00E
E00E
E00E
E00E
E00E
E00E
E00E
E00E
E00E
ENDCHAR
STARTCHAR Rho
ENCODING -1
SWIDTH 600 0
DWIDTH 19 0
BBX 14 23 3 0
BITMAP
FFC0
FFF0
E3F8
E078
E03C
E01C
E01C
E01C
E01C
E03C
E038
E0F8
FFF0
FFC0
E000
E000
E000
E000
E000
E000
E000
E000
E000
ENDCHAR
STARTCHAR Sigma
ENCODING -1
SWIDTH 600 0
DWIDTH 19 0
BBX 15 23 2 0
BITMAP
FFFC
FFFC
FFFC
7000
3800
3800
1C00
0E00
0E00
0700
0380
0380
0700
0F00
0E00
1C00
1C00
3800
7000
7000
FFFE
FFFE
FFFE
ENDCHAR
STARTCHAR Tau
ENCODING -1
SWIDTH 600 0
DWIDTH 19 0
BBX 16 23 1 0
BITMAP
FFFF
FFFF
FFFF
01C0
01C0
01C0
01C0
01C0
01C0
01C0
01C0
01C0
01C0
01C0
01C0
01C0
01C0
01C0
01C0
01C0
01C0
01C0
01C0
ENDCHAR
STARTCHAR Upsilon
ENCODING -1
SWIDTH 600 0
DWIDTH 19 0
BBX 19 23 0 0
BITMAP
E000E0
7001C0
7803C0
380380
1C0700
1C0700
0E0E00
0E0E00
071C00
071C00
03B800
01F000
01F000
00E000
00E000
00E000
00E000
00E000
00E000
00E000
00E000
00E000
00E000
ENDCHAR
STARTCHAR Phi
ENCODING -1
SWIDTH 600 0
DWIDTH 19 0
BBX 18 23 0 0
BITMAP
00E000
00E000
00E000
0FFC00
1FFF00
3EFF00
78E380
70E380
E0E1C0
E0E1C0
E0E1C0
E0E1C0
E0E1C0
E0E1C0
70E380
78E380
3FFF00
1FFE00
07FC00
00E000
00E000
00E000
00E000
ENDCHAR
STARTCHAR Chi
ENCODING -1
SWIDTH 600 0
DWIDTH 19 0
BBX 17 23 1 0
BITMAP
E00700
700E00
780E00
381C00
1C1800
1C3800
0E7000
0F7000
07E000
03E000
03C000
03C000
03E000
07E000
067000
0E3800
0C3800
1C1C00
381C00
380E00
700F00
700700
E00780
ENDCHAR
STARTCHAR Psi
ENCODING -1
SWIDTH 600 0
DWIDTH 19 0
BBX 17 23 1 0
BITMAP
E1C380
E1C380
E1C380
E1C380
E1C380
E1C380
E1C380
E1C380
E1C380
E1C380
E1C380
E1C380
71C700
7FFF00
3FFE00
0FF800
01C000
01C000
01C000
01C000
01C000
01C000
01C000
ENDCHAR
STARTCHAR uni03A9
ENCODING -1
SWIDTH 600 0
DWIDTH 19 0
BBX 17 23 1 0
BITMAP
07F000
0FF800
3FFE00
380E00
700700
700700
F00780
E00380
E00380
E00380
E00380
E00380
E00380
E00380
E00700
700700
700700
380E00
381C00
1C3800
FE7F80
FE7F80
FE7F80
ENDCHAR
STARTCHAR Iotadieresis
ENCODING -1
SWIDTH 600 0
DWIDTH 19 0
BBX 13 28 3 0
BITMAP
38E0
38E0
38E0
0000
0000
FFF8
FFF8
0700
0700
0700
0700
0700
0700
0700
0700
0700
0700
0700
0700
0700
0700
0700
0700
0700
0700
0700
FFF8
FFF8
ENDCHAR
STARTCHAR Upsilondieresis
ENCODING -1
SWIDTH 600 0
DWIDTH 19 0
BBX 19 28 0 0
BITMAP
071C00
071C00
071C00
000000
000000
E000E0
7001C0
7803C0
380380
1C0700
1C0700
0E0E00
0E0E00
071C00
071C00
03B800
01F000
01F000
00E000
00E000
00E000
00E000
00E000
00E000
00E000
00E000
00E000
00E000
ENDCHAR
STARTCHAR alphatonos
ENCODING -1
SWIDTH 600 0
DWIDTH 19 0
BBX 16 24 2 0
BITMAP
01C0
01C0
0180
0380
0300
0000
0000
0F8E
3FCC
3CEC
703C
701C
E01C
E01C
E01C
E01C
E01C
E01C
E01C
701C
703C
7CFE
3FCF
0F87
ENDCHAR
STARTCHAR epsilontonos
ENCODING -1
SWIDTH 600 0
DWIDTH 19 0
BBX 13 24 3 0
BITMAP
01C0
01C0
0180
0380
0300
0000
0000
0FE0
3FF8
7C78
7000
7000
7000
3800
1FC0
1FC0
7C00
E000
E000
E000
E000
7C78
3FF8
0FE0
ENDCHAR
STARTCHAR etatonos
ENCODING -1
SWIDTH 600 0
DWIDTH 19 0
BBX 13 32 3 -8
BITMAP
01C0
01C0
0180
0380
0300
0000
0000
C7C0
EFF0
FCF0
F078
F038
E038
E038
E038
E038
E038
E038
E038
E038
E038
E038
E038
E038
0038
0038
0038
0038
0038
0038
0038
0038
ENDCHAR
STARTCHAR iotatonos
ENCODING -1
SWIDTH 600 0
DWIDTH 19 0
BBX 9 24 7 0
BITMAP
3800
3800
3000
7000
6000
0000
0000
E000
E000
E000
E000
E000
E000
E000
E000
E000
E000
E000
E000
E000
E000
7980
7F80
1F80
ENDCHAR
STARTCHAR upsilondieresistonos
ENCODING -1
SWIDTH 600 0
DWIDTH 19 0
BBX 14 26 3 0
BITMAP
03C0
0380
0380
3B70
3B70
3870
0000
0000
0000
E038
E038
E01C
E01C
E01C
E01C
E01C
E01C
E01C
E01C
E01C
E01C
E038
7038
7CF0
3FE0
0FC0
ENDCHAR
STARTCHAR alpha
ENCODING -1
SWIDTH 600 0
DWIDTH 19 0
BBX 16 17 2 0
BITMAP
0F8E
3FCC
3CEC
703C
701C
E01C
E01C
E01C
E01C
E01C
E01C
E01C
701C
703C
7CFE
3FCF
0F87
ENDCHAR
STARTCHAR beta
ENCODING -1
SWIDTH 600 0
DWIDTH 19 0
BBX 15 32 2 -8
BITMAP
0FC0
3FF0
7CF8
703C
E01C
E01C
E01C
E01C
E038
E070
E7E0
E7E0
E0F8
E03C
E01C
E00E
E00E
E00E
E00E
E00E
E01C
FCFC
FFF8
EFE0
E000
E000
E000
E000
E000
E000
E000
E000
ENDCHAR
STARTCHAR gamma
ENCODING -1
SWIDTH 600 0
DWIDTH 19 0
BBX 17 25 1 -8
BITMAP
E00380
700700
700700
700700
380E00
380E00
1C1C00
1C1C00
0E1C00
0E3800
0E3800
077000
077000
036000
03E000
01E000
01C000
01C000
01C000
038000
038000
038000
038000
038000
038000
ENDCHAR
STARTCHAR delta
ENCODING -1
SWIDTH 600 0
DWIDTH 19 0
BBX 15 24 2 0
BITMAP
07E0
0FFC
1E7C
1C08
1C00
1C00
0E00
0F00
07C0
01E0
0FF8
1E38
381C
701E
F00E
E00E
E00E
E00E
E00E
F01C
701C
7EF8
3FF0
0FE0
ENDCHAR
STARTCHAR epsilon
ENCODING -1
SWIDTH 600 0
DWIDTH 19 0
BBX 13 17 3 0
BITMAP
0FE0
3FF8
7C78
7000
7000
7000
3800
1FC0
1FC0
7C00
E000
E000
E000
E000
7C78
3FF8
0FE0
ENDCHAR
STARTCHAR zeta
ENCODING -1
SWIDTH 600 0
DWIDTH 19 0
BBX 13 30 3 -6
BITMAP
7FF8
7FF8
0078
00E0
01C0
0380
0700
0E00
1C00
3800
3800
7000
7000
E000
E000
E000
E000
E000
E000
F000
7800
7F80
1FF0
07F8
0078
0038
0038
0038
0070
0060
ENDCHAR
STARTCHAR eta
ENCODING -1
SWIDTH 600 0
DWIDTH 19 0
BBX 13 25 3 -8
BITMAP
C7C0
EFF0
FCF0
F078
F038
E038
E038
E038
E038
E038
E038
E038
E038
E038
E038
E038
E038
0038
0038
0038
0038
0038
0038
0038
0038
ENDCHAR
STARTCHAR theta
ENCODING -1
SWIDTH 600 0
DWIDTH 19 0
BBX 15 23 2 0
BITMAP
07C0
1FF0
3EF8
7838
701C
601C
E00E
E00E
E00E
E00E
FFFE
FFFE
E00E
E00E
E00E
E00E
E00E
701C
701C
383C
3C78
1FF0
07C0
ENDCHAR
STARTCHAR iota
ENCODING -1
SWIDTH 600 0
DWIDTH 19 0
BBX 9 17 7 0
BITMAP
E000
E000
E000
E000
E000
E000
E000
E000
E000
E000
E000
E000
E000
E000
7980
7F80
1F80
ENDCHAR
STARTCHAR kappa
ENCODING -1
SWIDTH 600 0
DWIDTH 19 0
BBX 15 17 3 0
BITMAP
E01C
E038
E070
E0E0
E1C0
E380
E700
EE00
FE00
FF00
F380
E3C0
E1E0
E0F0
E078
E03C
E01E
ENDCHAR
STARTCHAR lambda
ENCODING -1
SWIDTH 600 0
DWIDTH 19 0
BBX 17 24 1 0
BITMAP
3E0000
3F0000
278000
038000
01C000
01C000
01C000
00E000
01E000
01E000
03F000
037000
073000
073800
0E3800
0E1800
1C1C00
1C1C00
181C00
380E00
380E00
700F00
700780
E00380
ENDCHAR
STARTCHAR uni03BC
ENCODING -1
SWIDTH 600 0
DWIDTH 19 0
BBX 13 25 3 -8
BITMAP
E038
E038
E038
E038
E038
E038
E038
E038
E038
E038
E038
E038
E038
F078
F9F8
FFB8
EF18
E000
E000
E000
E000
E000
E000
E000
E000
ENDCHAR
STARTCHAR nu
ENCODING -1
SWIDTH 600 0
DWIDTH 19 0
BBX 16 17 1 0
BITMAP
E007
E007
7007
7007
7007
3807
3806
1C0E
1C0E
1C0C
0E1C
0E18
0638
0770
07E0
03E0
03C0
ENDCHAR
STARTCHAR xi
ENCODING -1
SWIDTH 600 0
DWIDTH 19 0
BBX 13 30 3 -6
BITMAP
7FF0
7FF0
07C0
1C00
3800
7000
7000
7000
7000
3C00
1FF0
1FF0
3C00
7000
7000
E000
E000
E000
E000
F000
7800
7F80
1FF0
07F8
0078
0038
0038
0038
0070
0060
ENDCHAR
STARTCHAR omicron
ENCODING -1
SWIDTH 600 0
DWIDTH 19 0
BBX 15 17 2 0
BITMAP
07C0
1FF0
3EF8
701C
701C
E00E
E00E
E00E
E00E
E00E
E00E
E00E
701C
701C
3EF8
1FF0
07C0
ENDCHAR
STARTCHAR pi
ENCODING -1
SWIDTH 600 0
DWIDTH 19 0
BBX 18 17 1 0
BITMAP
7FFFC0
FFFFC0
1C0E00
1C0E00
1C0E00
1C0E00
1C0E00
1C0E00
1C0E00
1C0E00
1C0E00
1C0E00
1C0E00
1C0E00
1C0F40
1C07C0
1C03C0
ENDCHAR
STARTCHAR rho
ENCODING -1
SWIDTH 600 0
DWIDTH 19 0
BBX 15 25 2 -8
BITMAP
07C0
1FF0
3EF8
701C
701C
E00E
E00E
E00E
E00E
E00E
E00E
E00E
E01C
E01C
FEF8
FFF0
E7C0
E000
E000
E000
E000
E000
E000
E000
E000
ENDCHAR
STARTCHAR sigma1
ENCODING -1
SWIDTH 600 0
DWIDTH 19 0
BBX 13 23 3 -6
BITMAP
07F0
1FF8
3FF0
7800
7000
E000
E000
E000
E000
E000
E000
E000
F000
7800
3F00
1FE0
07F0
0078
0038
0038
0038
0070
0060
ENDCHAR
STARTCHAR sigma
ENCODING -1
SWIDTH 600 0
DWIDTH 19 0
BBX 16 17 2 0
BITMAP
07FF
1FFF
3F30
7838
701C
E01C
E00E
E00E
E00E
E00E
E00E
E00E
701C
781C
3EF8
1FF0
0FC0
ENDCHAR
STARTCHAR tau
ENCODING -1
SWIDTH 600 0
DWIDTH 19 0
BBX 15 17 2 0
BITMAP
7FFE
FFFE
0700
0700
0700
0700
0700
0700
0700
0700
0700
0700
0700
0700
03CC
03FC
00FC
ENDCHAR
STARTCHAR upsilon
ENCODING -1
SWIDTH 600 0
DWIDTH 19 0
BBX 14 17 3 0
BITMAP
E038
E038
E01C
E01C
E01C
E01C
E01C
E01C
E01C
E01C
E01C
E01C
E038
7038
7CF0
3FE0
0FC0
ENDCHAR
STARTCHAR phi
ENCODING -1
SWIDTH 600 0
DWIDTH 19 0
BBX 17 25 1 -8
BITMAP
107C00
38FE00
71EF00
71C700
61C380
E18380
E18380
C18380
C18380
C18380
E18380
E18380
618700
718F00
3DBE00
1FFC00
0FF000
018000
018000
018000
018000
018000
018000
018000
018000
ENDCHAR
STARTCHAR chi
ENCODING -1
SWIDTH 600 0
DWIDTH 19 0
BBX 17 25 1 -8
BITMAP
780700
7C0E00
3C0E00
0E1C00
0E1C00
0E3800
073800
077000
03F000
03E000
03E000
01C000
01C000
03E000
03E000
07E000
0E7000
0E7000
1C3800
1C3800
383800
381C00
701E00
700F80
E00780
ENDCHAR
STARTCHAR psi
ENCODING -1
SWIDTH 600 0
DWIDTH 19 0
BBX 17 32 1 -8
BITMAP
018000
018000
018000
018000
018000
018000
018000
E18700
E18380
E18380
E18380
E18380
E18380
E18380
E18380
E18380
E18380
E18380
E18380
F18700
718F00
7DBE00
3FFC00
0FF000
018000
018000
018000
018000
018000
018000
018000
018000
ENDCHAR
STARTCHAR omega
ENCODING -1
SWIDTH 600 0
DWIDTH 19 0
BBX 17 17 1 0
BITMAP
700700
700700
600300
600300
E00380
E00380
E18380
C18180
C18180
C18180
C18380
E18380
E1C380
63C300
77EF00
7F7E00
1E3C00
ENDCHAR
STARTCHAR iotadieresis
ENCODING -1
SWIDTH 600 0
DWIDTH 19 0
BBX 11 23 5 0
BITMAP
E380
E380
E380
0000
0000
0000
3800
3800
3800
3800
3800
3800
3800
3800
3800
3800
3800
3800
3800
3800
1E60
1FE0
07E0
ENDCHAR
STARTCHAR upsilondieresis
ENCODING -1
SWIDTH 600 0
DWIDTH 19 0
BBX 14 23 3 0
BITMAP
1C70
1C70
1C70
0000
0000
0000
E038
E038
E01C
E01C
E01C
E01C
E01C
E01C
E01C
E01C
E01C
E01C
E038
7038
7CF0
3FE0
0FC0
ENDCHAR
STARTCHAR omicrontonos
ENCODING -1
SWIDTH 600 0
DWIDTH 19 0
BBX 15 24 2 0
BITMAP
00E0
00E0
00C0
01C0
0180
0000
0000
07C0
1FF0
3EF8
701C
701C
E00E
E00E
E00E
E00E
E00E
E00E
E00E
701C
701C
3EF8
1FF0
07C0
ENDCHAR
STARTCHAR upsilontonos
ENCODING -1
SWIDTH 600 0
DWIDTH 19 0
BBX 14 24 3 0
BITMAP
01C0
01C0
0180
0380
0300
0000
0000
E038
E038
E01C
E01C
E01C
E01C
E01C
E01C
E01C
E01C
E01C
E01C
E038
7038
7CF0
3FE0
0FC0
ENDCHAR
STARTCHAR omegatonos
ENCODING -1
SWIDTH 600 0
DWIDTH 19 0
BBX 17 24 1 0
BITMAP
007000
007000
006000
00E000
00C000
000000
000000
700700
700700
600300
600300
E00380
E00380
E18380
C18180
C18180
C18180
C18380
E18380
E1C380
63C300
77EF00
7F7E00
1E3C00
ENDCHAR
STARTCHAR uni0401
ENCODING -1
SWIDTH 600 0
DWIDTH 19 0
BBX 13 28 3 0
BITMAP
38E0
38E0
38E0
0000
0000
FFF8
FFF8
FFF8
E000
E000
E000
E000
E000
E000
E000
FFF0
FFF0
FFF0
E000
E000
E000
E000
E000
E000
E000
FFF8
FFF8
FFF8
ENDCHAR
STARTCHAR uni0402
ENCODING -1
SWIDTH 600 0
DWIDTH 19 0
BBX 18 23 0 0
BITMAP
FFF800
FFF800
FFF800
070000
070000
070000
070000
070000
070000
07FE00
07FF00
07FF80
0703C0
0701C0
0701C0
0701C0
0701C0
0701C0
0701C0
0703C0
073F80
073F00
073E00
ENDCHAR
STARTCHAR uni0403
ENCODING -1
SWIDTH 600 0
DWIDTH 19 0
BBX 13 30 4 0
BITMAP
01E0
01C0
0380
0300
0700
0000
0000
FFF8
FFF8
FFF8
E000
E000
E000
E000
E000
E000
E000
E000
E000
E000
E000
E000
E000
E000
E000
E000
E000
E000
E000
E000
ENDCHAR
STARTCHAR uni0404
ENCODING -1
SWIDTH 600 0
DWIDTH 19 0
BBX 16 23 2 0
BITMAP
01FC
07FF
1FFE
3E02
3C00
7800
7000
F000
E000
E000
FFF8
FFF8
FFF8
E000
E000
E000
7000
7000
7800
3C00
1FFE
0FFE
03FC
ENDCHAR
STARTCHAR uni0405
ENCODING -1
SWIDTH 600 0
DWIDTH 19 0
BBX 14 23 3 0
BITMAP
0FF0
3FFC
7FFC
F008
E000
E000
E000
E000
7000
7C00
3F80
0FE0
03F0
00F8
003C
001C
001C
001C
001C
8038
FFF8
FFF0
7FC0
ENDCHAR
STARTCHAR uni0406
ENCODING -1
SWIDTH 600 0
DWIDTH 19 0
BBX 13 23 3 0
BITMAP
FFF8
FFF8
0700
0700
0700
0700
0700
0700
0700
0700
0700
0700
0700
0700
0700
0700
0700
0700
0700
0700
0700
FFF8
FFF8
ENDCHAR
STARTCHAR uni0407
ENCODING -1
SWIDTH 600 0
DWIDTH 19 0
BBX 13 28 3 0
BITMAP
38E0
38E0
38E0
0000
0000
FFF8
FFF8
0700
0700
0700
0700
0700
0700
0700
0700
0700
0700
0700
0700
0700
0700
0700
0700
0700
0700
0700
FFF8
FFF8
ENDCHAR
STARTCHAR uni0408
ENCODING -1
SWIDTH 600 0
DWIDTH 19 0
BBX 13 23 2 0
BITMAP
0038
0038
0038
0038
0038
0038
0038
0038
0038
0038
0038
0038
0038
0038
0038
0038
0038
0038
0078
00F0
FFE0
FFC0
7F00
ENDCHAR
STARTCHAR uni0409
ENCODING -1
SWIDTH 600 0
DWIDTH 19 0
BBX 19 23 0 0
BITMAP
0FF000
0FF000
0FF000
0C7000
0C7000
0C7000
0C7000
0C7000
0C7000
0C7000
0C7F00
0C7F80
1C7FC0
1C71E0
1C70E0
1C70E0
1C70E0
1C70E0
1870E0
1871C0
3877C0
F87F80
E07E00
ENDCHAR
STARTCHAR uni040A
ENCODING -1
SWIDTH 600 0
DWIDTH 19 0
BBX 18 23 1 0
BITMAP
E0E000
E0E000
E0E000
E0E000
E0E000
E0E000
E0E000
E0E000
E0E000
E0E000
FFFE00
FFFF00
FFFF80
E0E3C0
E0E1C0
E0E1C0
E0E1C0
E0E1C0
E0E1C0
E0E380
E0EF80
E0FF00
E0FC00
ENDCHAR
STARTCHAR uni040B
ENCODING -1
SWIDTH 600 0
DWIDTH 19 0
BBX 18 23 0 0
BITMAP
FFF800
FFF800
FFF800
070000
070000
070000
070000
070000
070000
07FE00
07FF00
07FF80
0703C0
0701C0
0701C0
0701C0
0701C0
0701C0
0701C0
0701C0
0701C0
0701C0
0701C0
ENDCHAR
STARTCHAR uni040C
ENCODING -1
SWIDTH 600 0
DWIDTH 19 0
BBX 16 30 3 0
BITMAP
00F0
00E0
01C0
0180
0380
0000
0000
E007
E00E
E01C
E038
E070
E0E0
E1C0
E380
E700
EF00
FE00
FE00
EE00
E700
E380
E3C0
E1E0
E0F0
E070
E038
E01C
E00E
E00F
ENDCHAR
STARTCHAR uni040E
ENCODING -1
SWIDTH 600 0
DWIDTH 19 0
BBX 19 30 0 0
BITMAP
0E0700
0E0700
070E00
07FE00
01F800
000000
000000
E000E0
7001C0
7001C0
380380
380380
1C0380
1C0700
0E0700
0E0E00
070E00
071C00
039C00
039800
01F800
01F800
00F000
00F000
00E000
00E000
01C000
7F8000
7F0000
7E0000
ENDCHAR
STARTCHAR uni040F
ENCODING -1
SWIDTH 600 0
DWIDTH 19 0
BBX 15 29 2 -6
BITMAP
E00E
E00E
E00E
E00E
E00E
E00E
E00E
E00E
E00E
E00E
E00E
E00E
E00E
E00E
E00E
E00E
E00E
E00E
E00E
E00E
FFFE
FFFE
FFFE
0380
0380
0380
0380
0380
0380
ENDCHAR
STARTCHAR uni0410
ENCODING -1
SWIDTH 600 0
DWIDTH 19 0
BBX 17 23 1 0
BITMAP
01C000
01E000
03E000
036000
036000
077000
077000
063000
0E3800
0E3800
0E1800
1C1C00
1C1C00
1FFC00
1FFC00
3FFE00
380E00
380600
700700
700700
700700
E00380
E00380
ENDCHAR
STARTCHAR uni0411
ENCODING -1
SWIDTH 600 0
DWIDTH 19 0
BBX 16 23 2 0
BITMAP
FFFE
FFFE
FFFE
E000
E000
E000
E000
E000
E000
E000
FFE0
FFFC
FFFE
E00E
E00F
E007
E007
E007
E00F
E00E
E0FE
FFFC
FFF0
ENDCHAR
STARTCHAR uni0412
ENCODING -1
SWIDTH 600 0
DWIDTH 19 0
BBX 16 23 2 0
BITMAP
FFE0
FFF8
E1FC
E01E
E00E
E00E
E00E
E00E
E01C
E03C
FFF0
FFF0
E0FC
E00E
E00F
E007
E007
E007
E00F
E00E
E0FE
FFFC
FFF0
ENDCHAR
STARTCHAR uni0413
ENCODING -1
SWIDTH 600 0
DWIDTH 19 0
BBX 13 23 4 0
BITMAP
FFF8
FFF8
FFF8
E000
E000
E000
E000
E000
E000
E000
E000
E000
E000
E000
E000
E000
E000
E000
E000
E000
E000
E000
E000
ENDCHAR
STARTCHAR uni0414
ENCODING -1
SWIDTH 600 0
DWIDTH 19 0
BBX 19 29 0 -6
BITMAP
01FF00
01FF00
01FF00
01C700
01C700
03C700
038700
038700
038700
038700
038700
070700
070700
070700
0F0700
0E0700
0E0700
1C0700
1C0700
3C0700
FFFFE0
FFFFE0
FFFFE0
E000E0
E000E0
E000E0
E000E0
E000E0
E000E0
ENDCHAR
STARTCHAR uni0415
ENCODING -1
SWIDTH 600 0
DWIDTH 19 0
BBX 13 23 3 0
BITMAP
FFF8
FFF8
FFF8
E000
E000
E000
E000
E000
E000
E000
FFF0
FFF0
FFF0
E000
E000
E000
E000
E000
E000
E000
FFF8
FFF8
FFF8
ENDCHAR
STARTCHAR uni0416
ENCODING -1
SWIDTH 600 0
DWIDTH 19 0
BBX 19 23 0 0
BITMAP
E0E0E0
60E0C0
70E1C0
30E180
38E380
18E300
1CE700
0CE600
0EEE00
06EC00
07FC00
07FC00
06FC00
0EEE00
0EEE00
1CE700
1CE700
38E380
38E380
70E1C0
70E1C0
E0E0E0
E0E0E0
ENDCHAR
STARTCHAR uni0417
ENCODING -1
SWIDTH 600 0
DWIDTH 19 0
BBX 15 23 2 0
BITMAP
0FE0
7FF8
FFFC
601E
000E
000E
000E
001E
001C
0078
3FE0
3FE0
07F8
003C
001E
000E
000E
000E
001E
803C
FFFC
FFF0
3FC0
ENDCHAR
STARTCHAR uni0418
ENCODING -1
SWIDTH 600 0
DWIDTH 19 0
BBX 15 23 2 0
BITMAP
E01E
E01E
E03E
E03E
E076
E07E
E06E
E0EE
E0CE
E1CE
E18E
E38E
E30E
E70E
E60E
EE0E
EC0E
FC0E
FC0E
F80E
F80E
F00E
F00E
ENDCHAR
STARTCHAR uni0419
ENCODING -1
SWIDTH 600 0
DWIDTH 19 0
BBX 15 30 2 0
BITMAP
381C
381C
1C38
1FF8
07E0
0000
0000
E01E
E01E
E03E
E03E
E076
E07E
E06E
E0EE
E0CE
E1CE
E18E
E38E
E30E
E70E
E60E
EE0E
EC0E
FC0E
FC0E
F80E
F80E
F00E
F00E
ENDCHAR
STARTCHAR uni041A
ENCODING -1
SWIDTH 600 0
DWIDTH 19 0
BBX 16 23 3 0
BITMAP
E007
E00E
E01C
E038
E070
E0E0
E1C0
E380
E700
EF00
FE00
FE00
EE00
E700
E380
E3C0
E1E0
E0F0
E070
E038
E01C
E00E
E00F
ENDCHAR
STARTCHAR uni041B
ENCODING -1
SWIDTH 600 0
DWIDTH 19 0
BBX 17 23 0 0
BITMAP
01FF80
01FF80
01FF80
01C380
03C380
03C380
038380
038380
038380
038380
038380
078380
078380
070380
070380
070380
0F0380
0E0380
0E0380
1E0380
FC0380
FC0380
F80380
ENDCHAR
STARTCHAR uni041C
ENCODING -1
SWIDTH 600 0
DWIDTH 19 0
BBX 15 23 2 0
BITMAP
F01E
F01E
F01E
F01E
D836
D836
D836
D836
D836
CC66
CC66
CC66
CC66
CC66
C6C6
C6C6
C6C6
C6C6
C6C6
C386
C386
C386
C386
ENDCHAR
STARTCHAR uni041D
ENCODING -1
SWIDTH 600 0
DWIDTH 19 0
BBX 15 23 2 0
BITMAP
E00E
E00E
E00E
E00E
E00E
E00E
E00E
E00E
E00E
E00E
FFFE
FFFE
FFFE
E00E
E00E
E00E
E00E
E00E
E00E
E00E
E00E
E00E
E00E
ENDCHAR
STARTCHAR uni041E
ENCODING -1
SWIDTH 600 0
DWIDTH 19 0
BBX 17 23 1 0
BITMAP
07F000
1FF800
3FFC00
3C1E00
780F00
700700
700700
E00380
E00380
E00380
E00380
E00380
E00380
E00380
E00380
E00380
700700
700700
780F00
3C1E00
3FFC00
1FF800
07F000
ENDCHAR
STARTCHAR uni041F
ENCODING -1
SWIDTH 600 0
DWIDTH 19 0
BBX 15 23 2 0
BITMAP
FFFE
FFFE
FFFE
E00E
E00E
E00E
E00E
E00E
E00E
E00E
E00E
E00E
E00E
E00E
E00E
E00E
E00E
E00E
E00E
E00E
E00E
E00E
E00E
ENDCHAR
STARTCHAR uni0420
ENCODING -1
SWIDTH 600 0
DWIDTH 19 0
BBX 14 23 3 0
BITMAP
FFC0
FFF0
E3F8
E078
E03C
E01C
E01C
E01C
E01C
E03C
E038
E0F8
FFF0
FFC0
E000
E000
E000
E000
E000
E000
E000
E000
E000
ENDCHAR
STARTCHAR uni0421
ENCODING -1
SWIDTH 600 0
DWIDTH 19 0
BBX 16 23 2 0
BITMAP
01FC
07FF
1FFE
3E02
3800
7800
7000
F000
E000
E000
E000
E000
E000
E000
E000
F000
7000
7000
7800
3C00
1FFE
0FFE
03FC
ENDCHAR
STARTCHAR uni0422
ENCODING -1
SWIDTH 600 0
DWIDTH 19 0
BBX 16 23 1 0
BITMAP
FFFF
FFFF
FFFF
01C0
01C0
01C0
01C0
01C0
01C0
01C0
01C0
01C0
01C0
01C0
01C0
01C0
01C0
01C0
01C0
01C0
01C0
01C0
01C0
ENDCHAR
STARTCHAR uni0423
ENCODING -1
SWIDTH 600 0
DWIDTH 19 0
BBX 19 23 0 0
BITMAP
E000E0
7001C0
7001C0
380380
380380
1C0380
1C0700
0E0700
0E0E00
070E00
071C00
039C00
039800
01F800
01F800
00F000
00F000
00E000
00E000
01C000
7F8000
7F0000
7E0000
ENDCHAR
STARTCHAR uni0424
ENCODING -1
SWIDTH 600 0
DWIDTH 19 0
BBX 18 23 0 0
BITMAP
00E000
00E000
00E000
0FFC00
1FFF00
3EFF00
78E380
70E380
E0E1C0
E0E1C0
E0E1C0
E0E1C0
E0E1C0
E0E1C0
70E380
78E380
3FFF00
1FFE00
07FC00
00E000
00E000
00E000
00E000
ENDCHAR
STARTCHAR uni0425
ENCODING -1
SWIDTH 600 0
DWIDTH 19 0
BBX 17 23 1 0
BITMAP
E00700
700E00
780E00
381C00
1C1800
1C3800
0E7000
0F7000
07E000
03E000
03C000
03C000
03E000
07E000
067000
0E3800
0C3800
1C1C00
381C00
380E00
700F00
700700
E00780
ENDCHAR
STARTCHAR uni0426
ENCODING -1
SWIDTH 600 0
DWIDTH 19 0
BBX 17 29 2 -6
BITMAP
E01C00
E01C00
E01C00
E01C00
E01C00
E01C00
E01C00
E01C00
E01C00
E01C00
E01C00
E01C00
E01C00
E01C00
E01C00
E01C00
E01C00
E01C00
E01C00
E01C00
FFFF80
FFFF80
FFFF80
000380
000380
000380
000380
000380
000380
ENDCHAR
STARTCHAR uni0427
ENCODING -1
SWIDTH 600 0
DWIDTH 19 0
BBX 15 23 2 0
BITMAP
E00E
E00E
E00E
E00E
E00E
E00E
E00E
E00E
E00E
E00E
E00E
F01E
7FFE
7FFE
1F8E
000E
000E
000E
000E
000E
000E
000E
000E
ENDCHAR
STARTCHAR uni0428
ENCODING -1
SWIDTH 600 0
DWIDTH 19 0
BBX 15 23 2 0
BITMAP
E38E
E38E
E38E
E38E
E38E
E38E
E38E
E38E
E38E
E38E
E38E
E38E
E38E
E38E
E38E
E38E
E38E
E38E
E38E
E38E
FFFE
FFFE
FFFE
ENDCHAR
STARTCHAR uni0429
ENCODING -1
SWIDTH 600 0
DWIDTH 19 0
BBX 18 29 1 -6
BITMAP
E38E00
E38E00
E38E00
E38E00
E38E00
E38E00
E38E00
E38E00
E38E00
E38E00
E38E00
E38E00
E38E00
E38E00
E38E00
E38E00
E38E00
E38E00
E38E00
E38E00
FFFFC0
FFFFC0
FFFFC0
0001C0
0001C0
0001C0
0001C0
0001C0
0001C0
ENDCHAR
STARTCHAR uni042A
ENCODING -1
SWIDTH 600 0
DWIDTH 19 0
BBX 18 23 0 0
BITMAP
FF0000
FF0000
FF0000
070000
070000
070000
070000
070000
070000
070000
07F800
07FE00
07FF80
070380
0703C0
0701C0
0701C0
0701C0
0703C0
070380
073F80
07FE00
07F800
ENDCHAR
STARTCHAR uni042B
ENCODING -1
SWIDTH 600 0
DWIDTH 19 0
BBX 15 23 2 0
BITMAP
E00E
E00E
E00E
E00E
E00E
E00E
E00E
E00E
E00E
E00E
FE0E
FF8E
FFCE
E1CE
E0EE
E0EE
E0EE
E0EE
E0EE
E1CE
EFCE
FF8E
FE0E
ENDCHAR
STARTCHAR uni042C
ENCODING -1
SWIDTH 600 0
DWIDTH 19 0
BBX 14 23 3 0
BITMAP
E000
E000
E000
E000
E000
E000
E000
E000
E000
E000
FFC0
FFF0
FFF8
E038
E03C
E01C
E01C
E01C
E03C
E038
E3F8
FFF0
FFC0
ENDCHAR
STARTCHAR uni042D
ENCODING -1
SWIDTH 600 0
DWIDTH 19 0
BBX 16 23 1 0
BITMAP
3F80
FFF0
FFF8
407C
001C
001E
000E
000F
0007
0007
1FFF
1FFF
1FFF
0007
0007
000E
000E
000E
001C
007C
FFF8
FFE0
7F80
ENDCHAR
STARTCHAR uni042E
ENCODING -1
SWIDTH 600 0
DWIDTH 19 0
BBX 16 23 2 0
BITMAP
E0F8
E1FC
E3FE
E38E
E306
E307
E707
E707
E707
E707
FF07
FF07
FF07
E707
E707
E707
E707
E707
E306
E38E
E3FE
E1FC
E0F8
ENDCHAR
STARTCHAR uni042F
ENCODING -1
SWIDTH 600 0
DWIDTH 19 0
BBX 15 23 1 0
BITMAP
03FE
0FFE
1F8E
3C0E
380E
380E
380E
380E
380E
1C0E
1E0E
0FFE
07FE
070E
070E
0E0E
0E0E
1C0E
3C0E
380E
780E
700E
E00E
ENDCHAR
STARTCHAR uni0430
ENCODING -1
SWIDTH 600 0
DWIDTH 19 0
BBX 14 17 2 0
BITMAP
0FE0
7FF8
3CF8
203C
001C
001C
001C
07FC
3FFC
781C
F01C
E01C
E01C
E03C
F8FC
7FCC
1F8C
ENDCHAR
STARTCHAR uni0431
ENCODING -1
SWIDTH 600 0
DWIDTH 19 0
BBX 15 24 2 0
BITMAP
000C
01FE
0FFE
1F80
3C00
7800
7000
6000
E3E0
EFF8
FE7C
F81C
F01E
E00E
E00E
E00E
E00E
E00E
700E
701C
781C
3EF8
1FF0
07E0
ENDCHAR
STARTCHAR uni0432
ENCODING -1
SWIDTH 600 0
DWIDTH 19 0
BBX 14 17 3 0
BITMAP
FFE0
FFF0
E0F8
E038
E038
E038
E070
FFE0
FFE0
E078
E01C
E01C
E01C
E01C
E078
FFF8
FFE0
ENDCHAR
STARTCHAR uni0433
ENCODING -1
SWIDTH 600 0
DWIDTH 19 0
BBX 11 17 5 0
BITMAP
FFE0
FFE0
E000
E000
E000
E000
E000
E000
E000
E000
E000
E000
E000
E000
E000
E000
E000
ENDCHAR
STARTCHAR uni0434
ENCODING -1
SWIDTH 600 0
DWIDTH 19 0
BBX 16 23 1 -6
BITMAP
07FC
07FC
061C
061C
061C
0E1C
0E1C
0E1C
0E1C
1C1C
1C1C
1C1C
381C
381C
701C
FFFF
FFFF
E007
E007
E007
E007
E007
E007
ENDCHAR
STARTCHAR uni0435
ENCODING -1
SWIDTH 600 0
DWIDTH 19 0
BBX 15 17 2 0
BITMAP
07E0
1FF0
3E78
701C
700E
E00E
E00E
FFFE
FFFE
E000
E000
E000
7000
7800
3FFC
1FFC
07F0
ENDCHAR
STARTCHAR uni0436
ENCODING -1
SWIDTH 600 0
DWIDTH 19 0
BBX 19 17 0 0
BITMAP
E0E0E0
70E1C0
70E1C0
38E380
1CE700
0CE600
0EEE00
07FC00
07FC00
06EC00
0EEE00
1CE700
1CE700
38E380
70E1C0
70E1C0
E0E0E0
ENDCHAR
STARTCHAR uni0437
ENCODING -1
SWIDTH 600 0
DWIDTH 19 0
BBX 13 17 3 0
BITMAP
3F80
FFE0
F1F0
0070
0070
0070
00E0
1FC0
1FC0
01F0
0038
0038
0038
0038
F9F0
FFE0
7FC0
ENDCHAR
STARTCHAR uni0438
ENCODING -1
SWIDTH 600 0
DWIDTH 19 0
BBX 13 17 3 0
BITMAP
E078
E078
E0F8
E0F8
E1F8
E1B8
E3B8
E338
E738
E638
EE38
EC38
FC38
F838
F838
F038
F038
ENDCHAR
STARTCHAR uni0439
ENCODING -1
SWIDTH 600 0
DWIDTH 19 0
BBX 13 24 3 0
BITMAP
7038
7038
3870
3FF0
0FC0
0000
0000
E078
E078
E0F8
E0F8
E1F8
E1B8
E3B8
E338
E738
E638
EE38
EC38
FC38
F838
F838
F038
F038
ENDCHAR
STARTCHAR uni043A
ENCODING -1
SWIDTH 600 0
DWIDTH 19 0
BBX 15 17 3 0
BITMAP
E03C
E078
E0F0
E1E0
E3C0
E780
EF00
EE00
FE00
EF00
E780
E3C0
E1E0
E0F0
E078
E03C
E01E
ENDCHAR
STARTCHAR uni043B
ENCODING -1
SWIDTH 600 0
DWIDTH 19 0
BBX 16 17 0 0
BITMAP
07FF
07FF
0607
0607
0607
0E07
0E07
0E07
0E07
0E07
0C07
1C07
1C07
1807
3807
F007
E007
ENDCHAR
STARTCHAR uni043C
ENCODING -1
SWIDTH 600 0
DWIDTH 19 0
BBX 15 17 2 0
BITMAP
F00E
F01E
F01E
D016
D836
D836
D836
CC66
CC66
CC66
CEE6
C6C6
C6C6
C6C6
C386
C386
C386
ENDCHAR
STARTCHAR uni043D
ENCODING -1
SWIDTH 600 0
DWIDTH 19 0
BBX 13 17 3 0
BITMAP
E038
E038
E038
E038
E038
E038
E038
FFF8
FFF8
E038
E038
E038
E038
E038
E038
E038
E038
ENDCHAR
STARTCHAR uni043E
ENCODING -1
SWIDTH 600 0
DWIDTH 19 0
BBX 15 17 2 0
BITMAP
07C0
1FF0
3EF8
701C
701C
E00E
E00E
E00E
E00E
E00E
E00E
E00E
701C
701C
3EF8
1FF0
07C0
ENDCHAR
STARTCHAR uni043F
ENCODING -1
SWIDTH 600 0
DWIDTH 19 0
BBX 13 17 3 0
BITMAP
FFF8
FFF8
E038
E038
E038
E038
E038
E038
E038
E038
E038
E038
E038
E038
E038
E038
E038
ENDCHAR
STARTCHAR uni0440
ENCODING -1
SWIDTH 600 0
DWIDTH 19 0
BBX 15 25 2 -8
BITMAP
C3E0
EFF0
FEF8
F01C
E01C
E00E
E00E
E00E
E00E
E00E
E00E
E00E
F01C
F01C
FEF8
EFF0
E7E0
E000
E000
E000
E000
E000
E000
E000
E000
ENDCHAR
STARTCHAR uni0441
ENCODING -1
SWIDTH 600 0
DWIDTH 19 0
BBX 13 17 3 0
BITMAP
07F0
1FF8
3FF0
7800
7000
E000
E000
E000
E000
E000
E000
E000
7000
7800
3FF8
1FF8
07F0
ENDCHAR
STARTCHAR uni0442
ENCODING -1
SWIDTH 600 0
DWIDTH 19 0
BBX 15 17 2 0
BITMAP
FFFE
FFFE
0380
0380
0380
0380
0380
0380
0380
0380
0380
0380
0380
0380
0380
0380
0380
ENDCHAR
STARTCHAR uni0443
ENCODING -1
SWIDTH 600 0
DWIDTH 19 0
BBX 17 25 1 -8
BITMAP
E00380
700700
700700
700700
380E00
380E00
1C1C00
1C1C00
0C1C00
0E3800
0E3800
077000
077000
037000
03E000
01E000
01C000
01C000
01C000
038000
038000
070000
1F0000
FE0000
F80000
ENDCHAR
STARTCHAR uni0444
ENCODING -1
SWIDTH 600 0
DWIDTH 19 0
BBX 17 32 1 -8
BITMAP
018000
018000
018000
018000
018000
018000
018000
07F000
1FFC00
3DBE00
718700
618300
E18380
E18380
C18180
C18180
C18380
E18380
E18380
618300
718700
3DBE00
1FFC00
07F000
018000
018000
018000
018000
018000
018000
018000
018000
ENDCHAR
STARTCHAR uni0445
ENCODING -1
SWIDTH 600 0
DWIDTH 19 0
BBX 15 17 2 0
BITMAP
701C
781C
3838
1C70
1C70
0EE0
07C0
07C0
0380
07C0
0EE0
0EE0
1C70
3838
3838
701C
F01E
ENDCHAR
STARTCHAR uni0446
ENCODING -1
SWIDTH 600 0
DWIDTH 19 0
BBX 17 23 2 -6
BITMAP
E01C00
E01C00
E01C00
E01C00
E01C00
E01C00
E01C00
E01C00
E01C00
E01C00
E01C00
E01C00
E01C00
E01C00
E01C00
FFFF80
FFFF80
000380
000380
000380
000380
000380
000380
ENDCHAR
STARTCHAR uni0447
ENCODING -1
SWIDTH 600 0
DWIDTH 19 0
BBX 14 17 2 0
BITMAP
E01C
E01C
E01C
E01C
E01C
E01C
E01C
E03C
F9FC
7FDC
1F1C
001C
001C
001C
001C
001C
001C
ENDCHAR
STARTCHAR uni0448
ENCODING -1
SWIDTH 600 0
DWIDTH 19 0
BBX 15 17 2 0
BITMAP
C306
C306
C306
C306
C306
C306
C306
C306
C306
C306
C306
C306
C306
C306
C306
FFFE
FFFE
ENDCHAR
STARTCHAR uni0449
ENCODING -1
SWIDTH 600 0
DWIDTH 19 0
BBX 17 23 2 -6
BITMAP
C30600
C30600
C30600
C30600
C30600
C30600
C30600
C30600
C30600
C30600
C30600
C30600
C30600
C30600
C30600
FFFF80
FFFF80
000180
000180
000180
000180
000180
000180
ENDCHAR
STARTCHAR uni044A
ENCODING -1
SWIDTH 600 0
DWIDTH 19 0
BBX 17 17 1 0
BITMAP
FF8000
FF8000
038000
038000
038000
038000
038000
03FC00
03FF00
038F80
038380
038180
038180
038380
038F00
03FF00
03FC00
ENDCHAR
STARTCHAR uni044B
ENCODING -1
SWIDTH 600 0
DWIDTH 19 0
BBX 15 17 2 0
BITMAP
C006
C006
C006
C006
C006
C006
C006
FF06
FFC6
C3C6
C0E6
C066
C066
C0E6
C3C6
FFC6
FF06
ENDCHAR
STARTCHAR uni044C
ENCODING -1
SWIDTH 600 0
DWIDTH 19 0
BBX 14 17 3 0
BITMAP
E000
E000
E000
E000
E000
E000
E000
FFE0
FFF8
E078
E01C
E01C
E01C
E01C
E078
FFF8
FFE0
ENDCHAR
STARTCHAR uni044D
ENCODING -1
SWIDTH 600 0
DWIDTH 19 0
BBX 13 17 3 0
BITMAP
7F00
FFC0
FFE0
00F0
0070
0038
0038
3FF8
3FF8
0038
0038
0038
0070
00F0
FFE0
FFC0
7F00
ENDCHAR
STARTCHAR uni044E
ENCODING -1
SWIDTH 600 0
DWIDTH 19 0
BBX 16 17 2 0
BITMAP
C0F8
C1FC
C3DE
C306
C707
C707
C707
FE03
FE03
C603
C707
C707
C707
C306
C3DE
C1FC
C0F8
ENDCHAR
STARTCHAR uni044F
ENCODING -1
SWIDTH 600 0
DWIDTH 19 0
BBX 14 17 2 0
BITMAP
0FFC
3FFC
3C1C
701C
701C
701C
701C
781C
3FFC
1FFC
0E1C
1C1C
1C1C
381C
701C
701C
E01C
ENDCHAR
STARTCHAR uni0451
ENCODING -1
SWIDTH 600 0
DWIDTH 19 0
BBX 15 23 2 0
BITMAP
0E38
0E38
0E38
0000
0000
0000
07E0
1FF0
3E78
701C
700E
E00E
E00E
FFFE
FFFE
E000
E000
E000
7000
7800
3FFC
1FFC
07F0
ENDCHAR
STARTCHAR uni0452
ENCODING -1
SWIDTH 600 0
DWIDTH 19 0
BBX 15 32 1 -8
BITMAP
3800
3800
3800
FFC0
FFC0
3800
3800
39F0
3BFC
3F3C
3C1E
3C0E
380E
380E
380E
380E
380E
380E
380E
380E
380E
380E
380E
380E
000E
000E
000E
000E
000E
000E
007C
0078
ENDCHAR
STARTCHAR uni0453
ENCODING -1
SWIDTH 600 0
DWIDTH 19 0
BBX 11 24 5 0
BITMAP
03C0
0380
0700
0600
0E00
0000
0000
FFE0
FFE0
E000
E000
E000
E000
E000
E000
E000
E000
E000
E000
E000
E000
E000
E000
E000
ENDCHAR
STARTCHAR uni0454
ENCODING -1
SWIDTH 600 0
DWIDTH 19 0
BBX 13 17 3 0
BITMAP
07F0
1FF8
3F78
7800
7000
E000
E000
FFE0
FFE0
E000
E000
E000
7000
7800
3FF8
1FF8
07F0
ENDCHAR
STARTCHAR uni0455
ENCODING -1
SWIDTH 600 0
DWIDTH 19 0
BBX 13 17 3 0
BITMAP
1FE0
7FF8
FCF0
E000
E000
E000
7800
3F00
0FC0
03F0
0078
0038
0038
0038
F8F0
FFE0
7F80
ENDCHAR
STARTCHAR uni0456
ENCODING -1
SWIDTH 600 0
DWIDTH 19 0
BBX 13 24 3 0
BITMAP
0700
0700
0700
0700
0000
0000
0000
7F00
7F00
0700
0700
0700
0700
0700
0700
0700
0700
0700
0700
0700
0700
0700
FFF8
FFF8
ENDCHAR
STARTCHAR uni0457
ENCODING -1
SWIDTH 600 0
DWIDTH 19 0
BBX 13 23 3 0
BITMAP
38E0
38E0
38E0
0000
0000
0000
7F00
7F00
0700
0700
0700
0700
0700
0700
0700
0700
0700
0700
0700
0700
0700
FFF8
FFF8
ENDCHAR
STARTCHAR uni0458
ENCODING -1
SWIDTH 600 0
DWIDTH 19 0
BBX 11 32 2 -8
BITMAP
00E0
00E0
00E0
00E0
0000
0000
0000
3FE0
3FE0
00E0
00E0
00E0
00E0
00E0
00E0
00E0
00E0
00E0
00E0
00E0
00E0
00E0
00E0
00E0
00E0
00E0
00E0
00E0
01E0
C7C0
FF80
FE00
ENDCHAR
STARTCHAR uni0459
ENCODING -1
SWIDTH 600 0
DWIDTH 19 0
BBX 18 17 0 0
BITMAP
1FE000
1FE000
18E000
18E000
18E000
18E000
18E000
38FE00
38FF80
38E780
38E1C0
38E0C0
30E0C0
30E1C0
70E780
F0FF80
E0FE00
ENDCHAR
STARTCHAR uni045A
ENCODING -1
SWIDTH 600 0
DWIDTH 19 0
BBX 16 17 2 0
BITMAP
C180
C180
C180
C180
C180
C180
C180
FFF8
FFFE
C18F
C187
C183
C183
C187
C19E
C1FE
C1F8
ENDCHAR
STARTCHAR uni045B
ENCODING -1
SWIDTH 600 0
DWIDTH 19 0
BBX 15 24 1 0
BITMAP
3800
3800
3800
FFE0
FFE0
3800
3800
39F0
3BFC
3F3C
3C1E
3C0E
380E
380E
380E
380E
380E
380E
380E
380E
380E
380E
380E
380E
ENDCHAR
STARTCHAR uni045C
ENCODING -1
SWIDTH 600 0
DWIDTH 19 0
BBX 15 24 3 0
BITMAP
01E0
01C0
0380
0300
0700
0000
0000
E01C
E038
E070
E0E0
E1C0
E380
E700
EE00
FE00
FF00
F380
E3C0
E1E0
E0F0
E078
E03C
E01E
ENDCHAR
STARTCHAR uni045E
ENCODING -1
SWIDTH 600 0
DWIDTH 19 0
BBX 17 32 1 -8
BITMAP
1C0E00
1C0E00
0E1C00
0FFC00
03F000
000000
000000
E00380
700700
700700
700700
380E00
380E00
1C1C00
1C1C00
0C1C00
0E3800
0E3800
077000
077000
037000
03E000
01E000
01C000
01C000
01C000
038000
038000
070000
1F0000
FE0000
F80000
ENDCHAR
STARTCHAR uni045F
ENCODING -1
SWIDTH 600 0
DWIDTH 19 0
BBX 13 23 3 -6
BITMAP
E038
E038
E038
E038
E038
E038
E038
E038
E038
E038
E038
E038
E038
E038
E038
FFF8
FFF8
0700
0700
0700
0700
0700
0700
ENDCHAR
STARTCHAR uni0490
ENCODING -1
SWIDTH 600 0
DWIDTH 19 0
BBX 12 28 4 0
BITMAP
0070
0070
0070
0070
0070
FFF0
FFF0
FFF0
E000
E000
E000
E000
E000
E000
E000
E000
E000
E000
E000
E000
E000
E000
E000
E000
E000
E000
E000
E000
ENDCHAR
STARTCHAR uni0491
ENCODING -1
SWIDTH 600 0
DWIDTH 19 0
BBX 11 22 5 0
BITMAP
00E0
00E0
00E0
00E0
00E0
FFE0
FFE0
E000
E000
E000
E000
E000
E000
E000
E000
E000
E000
E000
E000
E000
E000
E000
ENDCHAR
STARTCHAR Wgrave
ENCODING -1
SWIDTH 600 0
DWIDTH 19 0
BBX 19 30 0 0
BITMAP
078000
038000
01C000
01C000
006000
000000
000000
E000E0
E000E0
E000E0
E000E0
6000C0
6000C0
7000C0
70E0C0
70E0C0
71B1C0
71B1C0
31B1C0
31B1C0
33B980
3B1980
3B1980
3B1D80
3F0D80
1E0D80
1E0D80
1E0780
1E0780
1C0700
ENDCHAR
STARTCHAR wgrave
ENCODING -1
SWIDTH 600 0
DWIDTH 19 0
BBX 19 24 0 0
BITMAP
078000
038000
01C000
01C000
006000
000000
000000
E0E0E0
E0E0E0
61F0C0
61B0C0
61B0C0
71B1C0
71B1C0
33B980
331980
331980
331980
3B1B80
1E1F00
1E0F00
1E0F00
1E0F00
1E0F00
ENDCHAR
STARTCHAR Wacute
ENCODING -1
SWIDTH 600 0
DWIDTH 19 0
BBX 19 30 0 0
BITMAP
003C00
003800
007000
006000
00E000
000000
000000
E000E0
E000E0
E000E0
E000E0
6000C0
6000C0
7000C0
70E0C0
70E0C0
71B1C0
71B1C0
31B1C0
31B1C0
33B980
3B1980
3B1980
3B1D80
3F0D80
1E0D80
1E0D80
1E0780
1E0780
1C0700
ENDCHAR
STARTCHAR wacute
ENCODING -1
SWIDTH 600 0
DWIDTH 19 0
BBX 19 24 0 0
BITMAP
003C00
003800
007000
006000
00E000
000000
000000
E0E0E0
E0E0E0
61F0C0
61B0C0
61B0C0
71B1C0
71B1C0
33B980
331980
331980
331980
3B1B80
1E1F00
1E0F00
1E0F00
1E0F00
1E0F00
ENDCHAR
STARTCHAR Wdieresis
ENCODING -1
SWIDTH 600 0
DWIDTH 19 0
BBX 19 28 0 0
BITMAP
071C00
071C00
071C00
000000
000000
E000E0
E000E0
E000E0
E000E0
6000C0
6000C0
7000C0
70E0C0
70E0C0
71B1C0
71B1C0
31B1C0
31B1C0
33B980
3B1980
3B1980
3B1D80
3F0D80
1E0D80
1E0D80
1E0780
1E0780
1C0700
ENDCHAR
STARTCHAR wdieresis
ENCODING -1
SWIDTH 600 0
DWIDTH 19 0
BBX 19 23 0 0
BITMAP
071C00
071C00
071C00
000000
000000
000000
E0E0E0
E0E0E0
61F0C0
61B0C0
61B0C0
71B1C0
71B1C0
33B980
331980
331980
331980
3B1B80
1E1F00
1E0F00
1E0F00
1E0F00
1E0F00
ENDCHAR
STARTCHAR Ygrave
ENCODING -1
SWIDTH 600 0
DWIDTH 19 0
BBX 19 30 0 0
BITMAP
078000
038000
01C000
01C000
006000
000000
000000
E000E0
7001C0
7803C0
380380
1C0700
1C0700
0E0E00
0E0E00
071C00
071C00
03B800
01F000
01F000
00E000
00E000
00E000
00E000
00E000
00E000
00E000
00E000
00E000
00E000
ENDCHAR
STARTCHAR ygrave
ENCODING -1
SWIDTH 600 0
DWIDTH 19 0
BBX 17 32 1 -8
BITMAP
0F0000
070000
038000
038000
00C000
000000
000000
E00380
700700
700700
700700
380E00
380E00
1C1C00
1C1C00
0C1C00
0E3800
0E3800
077000
077000
037000
03E000
01E000
01C000
01C000
01C000
038000
038000
070000
1F0000
FE0000
F80000
ENDCHAR
STARTCHAR endash
ENCODING -1
SWIDTH 600 0
DWIDTH 19 0
BBX 13 3 3 7
BITMAP
FFF8
FFF8
FFF8
ENDCHAR
STARTCHAR emdash
ENCODING -1
SWIDTH 600 0
DWIDTH 19 0
BBX 19 3 0 7
BITMAP
FFFFE0
FFFFE0
FFFFE0
ENDCHAR
STARTCHAR uni2015
ENCODING -1
SWIDTH 600 0
DWIDTH 19 0
BBX 19 3 0 7
BITMAP
FFFFE0
FFFFE0
FFFFE0
ENDCHAR
STARTCHAR underscoredbl
ENCODING -1
SWIDTH 600 0
DWIDTH 19 0
BBX 19 6 0 -7
BITMAP
FFFFE0
FFFFE0
000000
000000
FFFFE0
FFFFE0
ENDCHAR
STARTCHAR quoteleft
ENCODING -1
SWIDTH 600 0
DWIDTH 19 0
BBX 5 8 7 15
BITMAP
38
38
38
70
70
70
F0
F0
ENDCHAR
STARTCHAR quoteright
ENCODING -1
SWIDTH 600 0
DWIDTH 19 0
BBX 5 8 7 15
BITMAP
78
78
70
70
70
E0
E0
E0
ENDCHAR
STARTCHAR quotesinglbase
ENCODING -1
SWIDTH 600 0
DWIDTH 19 0
BBX 5 9 7 -5
BITMAP
78
78
70
70
70
70
E0
E0
C0
ENDCHAR
STARTCHAR quotereversed
ENCODING -1
SWIDTH 600 0
DWIDTH 19 0
BBX 5 8 7 15
BITMAP
F0
F0
70
70
70
38
38
38
ENDCHAR
STARTCHAR quotedblleft
ENCODING -1
SWIDTH 600 0
DWIDTH 19 0
BBX 12 8 4 15
BITMAP
3870
3870
3870
70E0
70E0
70E0
F1E0
F1E0
ENDCHAR
STARTCHAR quotedblright
ENCODING -1
SWIDTH 600 0
DWIDTH 19 0
BBX 12 8 4 15
BITMAP
78F0
78F0
70E0
70E0
70E0
E1C0
E1C0
E1C0
ENDCHAR
STARTCHAR quotedblbase
ENCODING -1
SWIDTH 600 0
DWIDTH 19 0
BBX 12 9 4 -5
BITMAP
78F0
78F0
70E0
70E0
70E0
70C0
E1C0
E1C0
C180
ENDCHAR
STARTCHAR dagger
ENCODING -1
SWIDTH 600 0
DWIDTH 19 0
BBX 12 24 4 0
BITMAP
0E00
0E00
0E00
0E00
0600
0600
FFF0
FFF0
E6F0
0600
0600
0600
0600
0600
0600
0E00
0E00
0E00
0E00
0E00
0E00
0E00
0E00
0E00
ENDCHAR
STARTCHAR daggerdbl
ENCODING -1
SWIDTH 600 0
DWIDTH 19 0
BBX 12 24 4 0
BITMAP
0E00
0E00
0E00
0600
0600
FFF0
FFF0
E6F0
0600
0E00
0E00
0E00
0E00
0E00
0600
0600
E6F0
FFF0
FFF0
0600
0600
0E00
0E00
0E00
ENDCHAR
STARTCHAR bullet
ENCODING -1
SWIDTH 600 0
DWIDTH 19 0
BBX 7 8 6 8
BITMAP
7C
7C
FE
FE
FE
FE
7C
38
ENDCHAR
STARTCHAR ellipsis
ENCODING -1
SWIDTH 600 0
DWIDTH 19 0
BBX 16 4 2 0
BITMAP
F3CF
F3CF
F3CF
6186
ENDCHAR
STARTCHAR perthousand
ENCODING -1
SWIDTH 600 0
DWIDTH 19 0
BBX 18 23 0 0
BITMAP
3C0000
7E0000
E70000
C30000
C30000
C30000
C70000
E70000
7E6000
3DE000
078000
3C0000
F00000
CF0F00
1F9F80
39F9C0
30F0C0
30F0C0
30F0C0
31F1C0
39F9C0
1F9F80
0F0F00
ENDCHAR
STARTCHAR minute
ENCODING -1
SWIDTH 600 0
DWIDTH 19 0
BBX 4 9 8 14
BITMAP
F0
F0
F0
E0
E0
E0
E0
60
60
ENDCHAR
STARTCHAR second
ENCODING -1
SWIDTH 600 0
DWIDTH 19 0
BBX 11 9 4 14
BITMAP
F1E0
F1E0
F1E0
E1C0
E1C0
E1C0
E1C0
60C0
60C0
ENDCHAR
STARTCHAR guilsinglleft
ENCODING -1
SWIDTH 600 0
DWIDTH 19 0
BBX 7 13 6 2
BITMAP
04
0E
1C
38
70
70
E0
70
70
38
1C
0E
04
ENDCHAR
STARTCHAR guilsinglright
ENCODING -1
SWIDTH 600 0
DWIDTH 19 0
BBX 7 13 6 2
BITMAP
40
E0
70
38
1C
1C
0E
1C
1C
38
70
E0
40
ENDCHAR
STARTCHAR exclamdbl
ENCODING -1
SWIDTH 600 0
DWIDTH 19 0
BBX 12 23 4 0
BITMAP
F0F0
F0F0
F0F0
F0F0
F0F0
6060
6060
6060
6060
6060
6060
6060
6060
6060
6060
6060
0000
0000
0000
F0F0
F0F0
F0F0
6060
ENDCHAR
STARTCHAR fraction
ENCODING -1
SWIDTH 600 0
DWIDTH 19 0
BBX 13 23 3 0
BITMAP
0038
0030
0070
0060
00E0
00C0
00C0
01C0
0180
0380
0300
0700
0600
0E00
0C00
1C00
1800
1800
3800
3000
7000
6000
E000
ENDCHAR
STARTCHAR uni207F
ENCODING -1
SWIDTH 600 0
DWIDTH 19 0
BBX 9 11 5 12
BITMAP
CE00
DF00
E380
E180
C180
C180
C180
C180
C180
C180
C180
ENDCHAR
STARTCHAR franc
ENCODING -1
SWIDTH 600 0
DWIDTH 19 0
BBX 14 23 2 0
BITMAP
1FFC
1FFC
1FFC
1C00
1C00
1C00
1C00
1C00
1C00
1C00
1C00
1FF8
1FF8
1FF8
1C00
1C00
1C00
FFC0
FFC0
1C00
1C00
1C00
1C00
ENDCHAR
STARTCHAR lira
ENCODING -1
SWIDTH 600 0
DWIDTH 19 0
BBX 15 23 2 0
BITMAP
03F0
07FC
0FBC
1E00
1C00
1C00
1C00
1C00
1C00
FFF0
FFF0
1C00
1C00
1C00
FFF0
FFF0
1C00
1C00
1800
3800
FFFE
FFFE
FFFE
ENDCHAR
STARTCHAR peseta
ENCODING -1
SWIDTH 600 0
DWIDTH 19 0
BBX 17 23 1 0
BITMAP
FE0000
FF8000
EFC000
E1C000
E1E000
E0E000
E0E000
E0E000
E0E000
E0E800
E1D800
E3D800
FFBF80
FE7F80
E01800
E01800
E01800
E01800
E01800
E01800
E01C00
E01F80
E00F80
ENDCHAR
STARTCHAR Euro
ENCODING -1
SWIDTH 600 0
DWIDTH 19 0
BBX 16 23 2 0
BITMAP
00FC
03FF
07FE
0F02
1E00
1C00
3C00
3800
FFF0
FFF0
3800
3800
3800
FFE0
FFE0
3800
1C00
1C00
1E00
0F00
07FE
03FE
01FC
ENDCHAR
STARTCHAR uni2105
ENCODING -1
SWIDTH 600 0
DWIDTH 19 0
BBX 19 23 0 0
BITMAP
1F0700
7F0600
600E00
E00C00
C01C00
C01800
C03800
E03000
607000
7F6000
1FE000
00C000
01CF80
019FC0
0398C0
0338E0
073060
063060
0E3060
0C38E0
1C18C0
181FC0
380F80
ENDCHAR
STARTCHAR uni2113
ENCODING -1
SWIDTH 600 0
DWIDTH 19 0
BBX 11 23 4 0
BITMAP
0700
0F80
1CC0
1CC0
1CC0
1CC0
1CC0
1CC0
1D80
1D80
1F00
1E00
3C00
FC00
DC00
1C00
1C00
1C60
1C60
1CE0
1EC0
0FC0
0780
ENDCHAR
STARTCHAR uni2116
ENCODING -1
SWIDTH 600 0
DWIDTH 19 0
BBX 19 23 0 0
BITMAP
E0C000
E0C000
E0C000
F0C000
F0C000
F0C000
F8C000
D8C000
D8C780
D8CFC0
CCDCC0
CCD860
CCD860
C6D860
C6D860
C6D860
C6DCE0
C3CFC0
C3C780
C3C000
C1C000
C1CFC0
C1CFC0
ENDCHAR
STARTCHAR trademark
ENCODING -1
SWIDTH 600 0
DWIDTH 19 0
BBX 18 11 0 12
BITMAP
FFE1C0
FFE1C0
18F1C0
18F3C0
18F2C0
18D2C0
18DEC0
18DEC0
18CCC0
18CCC0
18CCC0
ENDCHAR
STARTCHAR Omega
ENCODING -1
SWIDTH 600 0
DWIDTH 19 0
BBX 17 23 1 0
BITMAP
07F000
0FF800
3FFE00
380E00
700700
700700
F00780
E00380
E00380
E00380
E00380
E00380
E00380
E00380
E00700
700700
700700
380E00
381C00
1C3800
FE7F80
FE7F80
FE7F80
ENDCHAR
STARTCHAR estimated
ENCODING -1
SWIDTH 600 0
DWIDTH 19 0
BBX 17 17 1 0
BITMAP
07F000
1E3C00
300600
700700
700700
F00780
F00780
FFFF80
F00000
F00000
F00000
F00000
700300
700200
380E00
1F3C00
07F000
ENDCHAR
STARTCHAR oneeighth
ENCODING -1
SWIDTH 600 0
DWIDTH 19 0
BBX 18 23 1 0
BITMAP
181C00
781800
F83800
583000
187000
186000
186000
18E000
18C000
19C000
198000
1B9F00
037FC0
0760C0
0660C0
0E7380
0C1F00
0C3F80
1C71C0
1860C0
3861C0
303F80
701F00
ENDCHAR
STARTCHAR threeeighths
ENCODING -1
SWIDTH 600 0
DWIDTH 19 0
BBX 20 23 0 0
BITMAP
3C0700
FF0600
470E00
030C00
061C00
3C1800
3E1800
073800
033000
077000
FE6000
7CE7C0
00DFF0
01D830
019830
039CE0
0307C0
030FE0
071C70
061830
0E1870
0C0FE0
1C07C0
ENDCHAR
STARTCHAR fiveeighths
ENCODING -1
SWIDTH 600 0
DWIDTH 19 0
BBX 20 23 0 0
BITMAP
FE0700
FE0600
C00E00
C00C00
FC1C00
FE1800
071800
033800
033000
077000
FE6000
FCE7C0
00DFF0
01D830
019830
039CE0
0307C0
030FE0
071C70
061830
0E1870
0C0FE0
1C07C0
ENDCHAR
STARTCHAR seveneighths
ENCODING -1
SWIDTH 600 0
DWIDTH 19 0
BBX 19 23 1 0
BITMAP
FF9C00
FF9800
033800
033000
067000
066000
0C6000
1CE000
18C000
39C000
318000
738F80
033FE0
073060
063060
0E39C0
0C0F80
0C1FC0
1C38E0
183060
3830E0
301FC0
700F80
ENDCHAR
STARTCHAR partialdiff
ENCODING -1
SWIDTH 600 0
DWIDTH 19 0
BBX 15 23 2 0
BITMAP
07E0
0FF8
0E7C
001C
001E
000E
000E
07CE
1FFE
3E7E
381E
781E
700E
F01C
E01C
E01C
E03C
E038
E078
F0F0
79E0
7FC0
1F00
ENDCHAR
STARTCHAR Delta
ENCODING -1
SWIDTH 600 0
DWIDTH 19 0
BBX 17 23 1 0
BITMAP
01C000
01C000
03E000
036000
036000
077000
077000
063000
0E3800
0E3800
0C1800
1C1C00
1C1C00
180C00
380E00
380E00
300600
700700
700700
600300
FFFF80
FFFF80
FFFF80
ENDCHAR
STARTCHAR product
ENCODING -1
SWIDTH 600 0
DWIDTH 19 0
BBX 15 31 2 -8
BITMAP
FFFE
FFFE
FFFE
E00E
E00E
E00E
E00E
E00E
E00E
E00E
E00E
E00E
E00E
E00E
E00E
E00E
E00E
E00E
E00E
E00E
E00E
E00E
E00E
E00E
E00E
E00E
E00E
E00E
E00E
E00E
E00E
ENDCHAR
STARTCHAR summation
ENCODING -1
SWIDTH 600 0
DWIDTH 19 0
BBX 17 31 1 -8
BITMAP
FFFF00
FFFF00
7FFF00
780000
3C0000
1C0000
1E0000
0F0000
070000
038000
03C000
01C000
00E000
00F000
007000
00F000
00E000
01E000
01C000
038000
078000
070000
0F0000
1E0000
1C0000
3C0000
380000
780000
FFFF80
FFFF80
FFFF80
ENDCHAR
STARTCHAR minus
ENCODING -1
SWIDTH 600 0
DWIDTH 19 0
BBX 15 2 2 10
BITMAP
FFFE
FFFE
ENDCHAR
STARTCHAR radical
ENCODING -1
SWIDTH 600 0
DWIDTH 19 0
BBX 19 27 0 0
BITMAP
000060
0000C0
0000C0
0001C0
000180
000180
000380
000300
000300
000700
000600
000E00
F80E00
F80C00
1C1C00
1C1C00
0C1800
0E3800
0E3000
063000
077000
036000
03E000
03E000
01C000
01C000
01C000
ENDCHAR
STARTCHAR infinity
ENCODING -1
SWIDTH 600 0
DWIDTH 19 0
BBX 17 10 1 6
BITMAP
3C1E00
7E3F00
E77700
C3E380
C1C180
C1C180
E3C380
E36380
7E3F00
3C1E00
ENDCHAR
STARTCHAR integral
ENCODING -1
SWIDTH 600 0
DWIDTH 19 0
BBX 12 32 3 -8
BITMAP
01F0
03F0
0390
0700
0600
0600
0600
0600
0600
0600
0600
0600
0600
0600
0600
0600
0600
0600
0600
0600
0600
0600
0600
0600
0600
0600
0600
0600
0600
8E00
FC00
F800
ENDCHAR
STARTCHAR approxequal
ENCODING -1
SWIDTH 600 0
DWIDTH 19 0
BBX 15 10 2 6
BITMAP
3E02
FFCE
E7FE
80F8
0000
0000
3E02
FFCE
E7FE
80F8
ENDCHAR
STARTCHAR notequal
ENCODING -1
SWIDTH 600 0
DWIDTH 19 0
BBX 15 17 2 3
BITMAP
0038
0030
0070
0060
FFFE
FFFE
01C0
0180
0380
0300
0700
FFFE
FFFE
0C00
1C00
3800
3800
ENDCHAR
STARTCHAR lessequal
ENCODING -1
SWIDTH 600 0
DWIDTH 19 0
BBX 15 19 2 0
BITMAP
0002
000E
003E
00F8
03E0
0F80
7E00
F000
F000
7E00
0F80
03E0
00F8
003E
000E
0002
0000
FFFE
FFFE
ENDCHAR
STARTCHAR greaterequal
ENCODING -1
SWIDTH 600 0
DWIDTH 19 0
BBX 15 19 2 0
BITMAP
8000
E000
F800
3E00
0F80
03E0
00FC
001E
001E
00FC
03E0
0F80
3E00
F800
E000
8000
0000
FFFE
FFFE
ENDCHAR
STARTCHAR lozenge
ENCODING -1
SWIDTH 600 0
DWIDTH 19 0
BBX 15 23 2 0
BITMAP
0100
0380
07C0
07C0
0EE0
0C60
1C70
3838
3838
701C
600C
E00E
600C
701C
3838
3838
1C70
0C60
0EE0
06C0
07C0
0380
0100
ENDCHAR
STARTCHAR uniFB01
ENCODING -1
SWIDTH 600 0
DWIDTH 19 0
BBX 15 24 1 0
BITMAP
07C0
0FCE
1E4E
1C0E
1C0E
1C00
1C00
7F8E
FF8E
1C0E
1C0E
1C0E
1C0E
1C0E
1C0E
1C0E
1C0E
1C0E
1C0E
1C0E
1C0E
1C0E
1C0E
1C0E
ENDCHAR
STARTCHAR uniFB02
ENCODING -1
SWIDTH 600 0
DWIDTH 19 0
BBX 15 24 1 0
BITMAP
07CE
0FCE
1E4E
1C0E
1C0E
1C0E
1C0E
7F8E
FF8E
1C0E
1C0E
1C0E
1C0E
1C0E
1C0E
1C0E
1C0E
1C0E
1C0E
1C0E
1C0E
1C0E
1C0E
1C0E
ENDCHAR
STARTCHAR glyph566
ENCODING -1
SWIDTH 600 0
DWIDTH 19 0
BBX 12 5 3 19
BITMAP
E070
E070
70E0
7FE0
1F80
ENDCHAR
STARTCHAR glyph567
ENCODING -1
SWIDTH 600 0
DWIDTH 19 0
BBX 11 25 2 -8
BITMAP
3FE0
3FE0
00E0
00E0
00E0
00E0
00E0
00E0
00E0
00E0
00E0
00E0
00E0
00E0
00E0
00E0
00E0
00E0
00E0
00E0
00E0
01E0
C7C0
FF80
FE00
ENDCHAR
STARTCHAR glyph568
ENCODING -1
SWIDTH 600 0
DWIDTH 19 0
BBX 4 5 7 19
BITMAP
70
70
60
E0
C0
ENDCHAR
STARTCHAR glyph569
ENCODING -1
SWIDTH 600 0
DWIDTH 19 0
BBX 4 5 7 -7
BITMAP
70
70
60
E0
C0
ENDCHAR
STARTCHAR glyph570
ENCODING -1
SWIDTH 600 0
DWIDTH 19 0
BBX 4 5 7 19
BITMAP
30
70
60
E0
E0
ENDCHAR
STARTCHAR glyph571
ENCODING -1
SWIDTH 600 0
DWIDTH 19 0
BBX 10 12 4 11
BITMAP
0300
0700
0F00
1F00
1B00
3300
6300
6300
FFC0
FFC0
0300
0300
ENDCHAR
STARTCHAR glyph572
ENCODING -1
SWIDTH 600 0
DWIDTH 19 0
BBX 8 12 5 11
BITMAP
FE
FE
C0
C0
FC
FE
07
03
03
07
FE
FC
ENDCHAR
STARTCHAR glyph573
ENCODING -1
SWIDTH 600 0
DWIDTH 19 0
BBX 9 12 6 11
BITMAP
FF80
FF80
0300
0300
0600
0600
0C00
1C00
1800
3800
3000
7000
ENDCHAR
STARTCHAR glyph574
ENCODING -1
SWIDTH 600 0
DWIDTH 19 0
BBX 9 12 5 11
BITMAP
3E00
FF80
C180
C180
E700
3E00
7F00
E380
C180
C380
7F00
3E00
ENDCHAR
STARTCHAR uni2000
ENCODING -1
SWIDTH 600 0
DWIDTH 19 0
BBX 1 1 0 0
BITMAP
00
ENDCHAR
STARTCHAR uni2001
ENCODING -1
SWIDTH 600 0
DWIDTH 19 0
BBX 1 1 0 0
BITMAP
00
ENDCHAR
STARTCHAR uni2002
ENCODING -1
SWIDTH 600 0
DWIDTH 19 0
BBX 1 1 0 0
BITMAP
00
ENDCHAR
STARTCHAR uni2003
ENCODING -1
SWIDTH 600 0
DWIDTH 19 0
BBX 1 1 0 0
BITMAP
00
ENDCHAR
STARTCHAR uni2004
ENCODING -1
SWIDTH 600 0
DWIDTH 19 0
BBX 1 1 0 0
BITMAP
00
ENDCHAR
STARTCHAR uni2005
ENCODING -1
SWIDTH 600 0
DWIDTH 19 0
BBX 1 1 0 0
BITMAP
00
ENDCHAR
STARTCHAR uni2006
ENCODING -1
SWIDTH 600 0
DWIDTH 19 0
BBX 1 1 0 0
BITMAP
00
ENDCHAR
STARTCHAR uni2007
ENCODING -1
SWIDTH 600 0
DWIDTH 19 0
BBX 1 1 0 0
BITMAP
00
ENDCHAR
STARTCHAR uni2008
ENCODING -1
SWIDTH 600 0
DWIDTH 19 0
BBX 1 1 0 0
BITMAP
00
ENDCHAR
STARTCHAR uni2009
ENCODING -1
SWIDTH 600 0
DWIDTH 19 0
BBX 1 1 0 0
BITMAP
00
ENDCHAR
STARTCHAR uni200A
ENCODING -1
SWIDTH 600 0
DWIDTH 19 0
BBX 1 1 0 0
BITMAP
00
ENDCHAR
STARTCHAR uni200B
ENCODING -1
SWIDTH 600 0
DWIDTH 19 0
BBX 1 1 0 0
BITMAP
00
ENDCHAR
STARTCHAR uniFEFF
ENCODING -1
SWIDTH 600 0
DWIDTH 19 0
BBX 1 1 0 0
BITMAP
00
ENDCHAR
STARTCHAR uniFFFC
ENCODING -1
SWIDTH 600 0
DWIDTH 19 0
BBX 17 30 1 -6
BITMAP
FBEF80
FBEF80
C00180
C70180
CD8180
18C000
18C000
D8C180
D8C180
CD8180
CF0180
000000
01E000
C1B180
C1B180
C1E180
C1B180
01B000
01E000
C00180
C01F80
C00D80
C00D80
000C00
000C00
C00980
C03980
C00180
FBEF80
FBEF80
ENDCHAR
STARTCHAR uniFFFD
ENCODING -1
SWIDTH 600 0
DWIDTH 19 0
BBX 19 29 0 -5
BITMAP
004000
00E000
00E000
01F000
03F800
03F800
07FC00
060C00
080600
180300
1DE300
3FE380
7FE3C0
7FC7C0
FF0FE0
7E1FC0
7E3FC0
3E3F80
1FFF00
1FFF00
0F3E00
061E00
061C00
033800
03F800
01F000
00E000
00E000
004000
ENDCHAR
STARTCHAR uni01F0
ENCODING -1
SWIDTH 600 0
DWIDTH 19 0
BBX 12 32 2 -8
BITMAP
3830
1C60
0EC0
07C0
0380
0000
0000
3FE0
3FE0
00E0
00E0
00E0
00E0
00E0
00E0
00E0
00E0
00E0
00E0
00E0
00E0
00E0
00E0
00E0
00E0
00E0
00E0
00E0
01E0
C7C0
FF80
FE00
ENDCHAR
STARTCHAR uni02BC
ENCODING -1
SWIDTH 600 0
DWIDTH 19 0
BBX 5 8 7 15
BITMAP
78
78
70
70
70
E0
E0
E0
ENDCHAR
STARTCHAR theta1
ENCODING -1
SWIDTH 600 0
DWIDTH 19 0
BBX 18 24 1 0
BITMAP
03E000
0FF800
1E7C00
1C1C00
1C0E00
1C0E00
1C0E00
0E0700
078700
03FFC0
00FFC0
F00700
F80700
380700
380700
380700
380700
380600
380E00
380E00
381C00
3C7800
1FF000
07E000
ENDCHAR
STARTCHAR Upsilon1
ENCODING -1
SWIDTH 600 0
DWIDTH 19 0
BBX 19 23 0 0
BITMAP
E001E0
7003E0
780380
380700
1C0700
1C0E00
0E0E00
0E1C00
071800
073800
03B800
03F000
01F000
00E000
00E000
00E000
00E000
00E000
00E000
00E000
00E000
00E000
00E000
ENDCHAR
STARTCHAR omega1
ENCODING -1
SWIDTH 600 0
DWIDTH 19 0
BBX 19 17 0 0
BITMAP
7FFFE0
FFFFE0
380380
380380
300180
7001C0
7001C0
7001C0
60C0C0
60C0C0
60C0C0
70C1C0
70E1C0
71E1C0
3BF380
3FBF80
1F1E00
ENDCHAR
STARTCHAR uni1E3E
ENCODING -1
SWIDTH 600 0
DWIDTH 19 0
BBX 15 30 2 0
BITMAP
00F0
00E0
01C0
0180
0380
0000
0000
F01E
F01E
F01E
F01E
D836
D836
D836
D836
D836
CC66
CC66
CC66
CC66
CC66
C6C6
C6C6
C6C6
C6C6
C6C6
C386
C386
C386
C386
ENDCHAR
STARTCHAR uni1E3F
ENCODING -1
SWIDTH 600 0
DWIDTH 19 0
BBX 17 24 1 0
BITMAP
003C00
003800
007000
006000
00E000
000000
000000
CF1E00
FFBF00
FBB780
E1E380
E1C380
E1C380
E1C380
E1C380
E1C380
E1C380
E1C380
E1C380
E1C380
E1C380
E1C380
E1C380
E1C380
ENDCHAR
STARTCHAR uni1E00
ENCODING -1
SWIDTH 600 0
DWIDTH 19 0
BBX 17 32 1 -9
BITMAP
01C000
01E000
03E000
036000
036000
077000
077000
063000
0E3800
0E3800
0E1800
1C1C00
1C1C00
1FFC00
1FFC00
3FFE00
380E00
380600
700700
700700
700700
E00380
E00380
000000
000000
03C000
07E000
063000
063000
063000
07E000
03C000
ENDCHAR
STARTCHAR uni1E01
ENCODING -1
SWIDTH 600 0
DWIDTH 19 0
BBX 14 26 2 -9
BITMAP
0FE0
7FF8
3CF8
203C
001C
001C
001C
07FC
3FFC
781C
F01C
E01C
E01C
E03C
F8FC
7FCC
1F8C
0000
0000
0780
0FC0
0C60
0C60
0C60
0FC0
0780
ENDCHAR
STARTCHAR uni1F4D
ENCODING -1
SWIDTH 600 0
DWIDTH 19 0
BBX 24 23 -4 0
BITMAP
278FE0
473FF0
C77FF8
EE783C
ECF01E
00E00E
00E00E
01C007
01C007
01C007
01C007
01C007
01C007
01C007
01C007
01C007
00E00E
00E00E
00F01E
00783C
007FF8
003FF0
000FE0
ENDCHAR
STARTCHAR uni02F3
ENCODING -1
SWIDTH 600 0
DWIDTH 19 0
BBX 7 7 6 -9
BITMAP
78
FC
C6
C6
C6
FC
78
ENDCHAR
STARTCHAR glyph601
ENCODING -1
SWIDTH 600 0
DWIDTH 19 0
BBX 9 5 5 18
BITMAP
2780
4700
C700
EE00
EC00
ENDCHAR
STARTCHAR uniFB03
ENCODING -1
SWIDTH 600 0
DWIDTH 19 0
BBX 16 24 1 0
BITMAP
073E
1FFE
1FE0
38E0
38E0
38E0
38E0
7FFF
FFFF
38E7
38E7
38E7
38E7
38E7
38E7
38E7
38E7
38E7
38E7
38E7
38E7
38E7
38E7
38E7
ENDCHAR
STARTCHAR uniFB04
ENCODING -1
SWIDTH 600 0
DWIDTH 19 0
BBX 16 24 1 0
BITMAP
073F
1FFF
1FE7
38E7
38E7
38E7
38E7
7FFF
FFFF
38E7
38E7
38E7
38E7
38E7
38E7
38E7
38E7
38E7
38E7
38E7
38E7
38E7
38E7
38E7
ENDCHAR
STARTCHAR Ohorn
ENCODING -1
SWIDTH 600 0
DWIDTH 19 0
BBX 19 24 1 0
BITMAP
0000E0
07F0E0
0FF9C0
3FFDC0
3C1F80
780F00
700700
700700
E00380
E00380
E00380
E00380
E00380
E00380
E00380
E00380
E00380
700700
700700
780F00
3C1E00
3FFC00
0FF800
07F000
ENDCHAR
STARTCHAR ohorn
ENCODING -1
SWIDTH 600 0
DWIDTH 19 0
BBX 17 19 2 0
BITMAP
000380
000380
07C700
1FF700
3EFE00
701C00
701C00
E00E00
E00E00
E00E00
E00E00
E00E00
E00E00
E00E00
701C00
701C00
3EF800
1FF000
07C000
ENDCHAR
STARTCHAR Uhorn
ENCODING -1
SWIDTH 600 0
DWIDTH 19 0
BBX 19 24 2 0
BITMAP
0000E0
E038E0
E039C0
E039C0
E03F80
E03E00
E03800
E03800
E03800
E03800
E03800
E03800
E03800
E03800
E03800
E03800
E03800
E03800
E03800
E03800
707000
7FF000
3FE000
1F8000
ENDCHAR
STARTCHAR uhorn
ENCODING -1
SWIDTH 600 0
DWIDTH 19 0
BBX 17 20 3 0
BITMAP
000380
000380
000700
E0E700
E0EE00
E0FE00
E0F800
E0E000
E0E000
E0E000
E0E000
E0E000
E0E000
E0E000
E0E000
E0E000
E1E000
7BE000
7EE000
3C6000
ENDCHAR
STARTCHAR gravecomb
ENCODING -1
SWIDTH 600 0
DWIDTH 19 0
BBX 6 5 6 19
BITMAP
F0
70
38
38
0C
ENDCHAR
STARTCHAR acutecomb
ENCODING -1
SWIDTH 600 0
DWIDTH 19 0
BBX 6 5 6 19
BITMAP
3C
38
70
60
E0
ENDCHAR
STARTCHAR tildecomb
ENCODING -1
SWIDTH 600 0
DWIDTH 19 0
BBX 11 4 4 19
BITMAP
3860
7EE0
EFC0
C380
ENDCHAR
STARTCHAR hookabovecomb
ENCODING -1
SWIDTH 600 0
DWIDTH 19 0
BBX 6 7 7 19
BITMAP
F8
FC
0C
1C
78
60
60
ENDCHAR
STARTCHAR dotbelowcomb
ENCODING -1
SWIDTH 600 0
DWIDTH 19 0
BBX 3 3 8 -5
BITMAP
E0
E0
E0
ENDCHAR
STARTCHAR uni0400
ENCODING -1
SWIDTH 600 0
DWIDTH 19 0
BBX 13 30 3 0
BITMAP
3C00
1C00
0E00
0E00
0300
0000
0000
FFF8
FFF8
FFF8
E000
E000
E000
E000
E000
E000
E000
FFF0
FFF0
FFF0
E000
E000
E000
E000
E000
E000
E000
FFF8
FFF8
FFF8
ENDCHAR
STARTCHAR uni040D
ENCODING -1
SWIDTH 600 0
DWIDTH 19 0
BBX 15 30 2 0
BITMAP
0F00
0700
0380
0380
00C0
0000
0000
E01E
E01E
E03E
E03E
E076
E07E
E06E
E0EE
E0CE
E1CE
E18E
E38E
E30E
E70E
E60E
EE0E
EC0E
FC0E
FC0E
F80E
F80E
F00E
F00E
ENDCHAR
STARTCHAR uni0450
ENCODING -1
SWIDTH 600 0
DWIDTH 19 0
BBX 15 24 2 0
BITMAP
0F00
0700
0380
0380
00C0
0000
0000
07E0
1FF0
3E78
701C
700E
E00E
E00E
FFFE
FFFE
E000
E000
E000
7000
7800
3FFC
1FFC
07F0
ENDCHAR
STARTCHAR uni045D
ENCODING -1
SWIDTH 600 0
DWIDTH 19 0
BBX 13 24 3 0
BITMAP
1E00
0E00
0700
0700
0180
0000
0000
E078
E078
E0F8
E0F8
E1F8
E1B8
E3B8
E338
E738
E638
EE38
EC38
FC38
F838
F838
F038
F038
ENDCHAR
STARTCHAR uni0460
ENCODING -1
SWIDTH 600 0
DWIDTH 19 0
BBX 17 23 1 0
BITMAP
1E3C00
3E3E00
7C1F00
700700
600300
E00380
E00380
E00380
E00380
E00380
E00380
E00380
E00380
E1C380
E1C380
E1C380
E1C380
E1C380
71C700
71C700
7FFF00
3FFE00
1E3C00
ENDCHAR
STARTCHAR uni0461
ENCODING -1
SWIDTH 600 0
DWIDTH 19 0
BBX 18 17 0 0
BITMAP
E1C0C0
E1C0C0
60C0C0
60C1C0
60C1C0
70E1C0
30E1C0
30E180
30E180
30E180
39B380
19B300
1BB300
1B3700
1B3600
0E1C00
0E1C00
ENDCHAR
STARTCHAR uni0462
ENCODING -1
SWIDTH 600 0
DWIDTH 19 0
BBX 18 24 0 0
BITMAP
070000
070000
070000
070000
FFFC00
FFFC00
FFFC00
070000
070000
070000
070000
07F800
07FF00
07FF80
070380
0703C0
0701C0
0701C0
0701C0
0703C0
070380
073F80
07FF00
07FC00
ENDCHAR
STARTCHAR uni0463
ENCODING -1
SWIDTH 600 0
DWIDTH 19 0
BBX 17 20 0 0
BITMAP
0E0000
0E0000
0E0000
FFE000
FFE000
0E0000
0E0000
0E0000
0E0000
0E0000
0FFC00
0FFF00
0E0F80
0E0380
0E0380
0E0380
0E0380
0E0F00
0FFF00
0FFC00
ENDCHAR
STARTCHAR uni0464
ENCODING -1
SWIDTH 600 0
DWIDTH 19 0
BBX 16 23 2 0
BITMAP
E07C
E1FF
E1FF
E382
E700
E700
E600
EE00
EE00
EE00
FFFC
FFFC
FFFC
EE00
EE00
EE00
EE00
E700
E700
E780
E3FE
E1FE
E0FC
ENDCHAR
STARTCHAR uni0465
ENCODING -1
SWIDTH 600 0
DWIDTH 19 0
BBX 15 17 3 0
BITMAP
C07C
C1FE
C3FE
C380
C700
C700
C700
FFFC
FFFC
C700
C700
C700
C300
C380
C3FE
C1FE
C07C
ENDCHAR
STARTCHAR uni0466
ENCODING -1
SWIDTH 600 0
DWIDTH 19 0
BBX 19 23 0 0
BITMAP
00E000
01E000
01F000
01B000
03B800
03B800
031800
071C00
071C00
060C00
0FFE00
0FFE00
0CE600
1CE700
1CE700
18E300
38E380
38E380
30E180
70E1C0
70E1C0
60E0C0
E0E0E0
ENDCHAR
STARTCHAR uni0467
ENCODING -1
SWIDTH 600 0
DWIDTH 19 0
BBX 17 17 1 0
BITMAP
03C000
03E000
03E000
077000
067000
0E3000
0E3800
0FF800
1FFC00
199C00
398C00
398E00
318E00
718700
718700
618700
E18380
ENDCHAR
STARTCHAR uni0468
ENCODING -1
SWIDTH 600 0
DWIDTH 19 0
BBX 18 23 2 0
BITMAP
E07000
E07800
E07800
E07800
E0F800
E0FC00
E0CC00
E0CC00
E0CC00
E1CE00
FFFE00
FFFE00
E1BE00
E3BF00
E3BF00
E33B00
E33B00
E73B80
E73B80
E63980
E63980
EE39C0
EE39C0
ENDCHAR
STARTCHAR uni0469
ENCODING -1
SWIDTH 600 0
DWIDTH 19 0
BBX 18 17 2 0
BITMAP
C03800
C07800
C06C00
C06C00
C0EC00
C0EE00
C0C600
FFFE00
FFFF00
C1B700
C3B300
C33300
C33380
C73380
C63180
C631C0
CE31C0
ENDCHAR
STARTCHAR uni046A
ENCODING -1
SWIDTH 600 0
DWIDTH 19 0
BBX 19 23 0 0
BITMAP
3FFF80
3FFF80
3FFF80
1C0700
1C0700
0E0E00
071C00
071C00
03B800
01F000
07FC00
0FFE00
1CE700
38E380
38E380
30E380
30E180
70E1C0
70E1C0
70E1C0
60E0C0
E0E0E0
E0E0E0
ENDCHAR
STARTCHAR uni046B
ENCODING -1
SWIDTH 600 0
DWIDTH 19 0
BBX 19 17 0 0
BITMAP
3FFF80
3FFF80
1C0700
0E0E00
0E1C00
073800
03B000
07FC00
1FFE00
1CC700
38C380
38C380
30C380
70C1C0
70C1C0
60C1C0
E0C0E0
ENDCHAR
STARTCHAR uni046C
ENCODING -1
SWIDTH 600 0
DWIDTH 19 0
BBX 19 23 1 0
BITMAP
E7FFC0
E7FFC0
E7FFC0
E30380
E38380
E18700
E1C700
E0C600
E0EE00
E0EC00
FFFF00
FFFF80
E73980
E739C0
E739C0
E739C0
E739C0
E638C0
E638C0
EE38E0
EE38E0
EE38E0
EE38E0
ENDCHAR
STARTCHAR uni046D
ENCODING -1
SWIDTH 600 0
DWIDTH 19 0
BBX 18 17 2 0
BITMAP
C7FF80
C7FF80
C30300
C38700
C18600
C0CE00
C0EC00
FFFE00
FFFF00
C3B300
C73380
C73380
C73180
C63180
C63180
CE31C0
CE31C0
ENDCHAR
STARTCHAR uni046E
ENCODING -1
SWIDTH 600 0
DWIDTH 19 0
BBX 14 33 2 -6
BITMAP
3838
1CF8
0FE0
0780
1FE0
7FF0
F878
403C
001C
001C
001C
001C
0038
00F0
1FC0
1FE0
00F0
0038
001C
001C
001C
001C
003C
0038
03F8
3FF0
7FC0
F000
E000
E000
FFF8
7FFC
3FFC
ENDCHAR
STARTCHAR uni046F
ENCODING -1
SWIDTH 600 0
DWIDTH 19 0
BBX 14 26 2 -5
BITMAP
3870
1CF0
0CC0
0F80
3FC0
7FF0
38F8
0038
0038
0038
0070
0FE0
0FF0
00F8
001C
001C
001C
001C
0078
3FF0
7FC0
E000
C000
F010
7FFC
3FFC
ENDCHAR
STARTCHAR uni0470
ENCODING -1
SWIDTH 600 0
DWIDTH 19 0
BBX 17 23 1 0
BITMAP
E1C380
E1C380
E1C380
E1C380
E1C380
E1C380
E1C380
E1C380
E1C380
E1C380
E1C380
E1C380
71C700
7FFF00
3FFE00
0FF800
01C000
01C000
01C000
01C000
01C000
01C000
01C000
ENDCHAR
STARTCHAR uni0471
ENCODING -1
SWIDTH 600 0
DWIDTH 19 0
BBX 17 32 1 -8
BITMAP
018000
018000
018000
018000
018000
018000
018000
E18700
E18380
E18380
E18380
E18380
E18380
E18380
E18380
E18380
E18380
E18380
E18380
F18700
718F00
7DBE00
3FFC00
0FF000
018000
018000
018000
018000
018000
018000
018000
018000
ENDCHAR
STARTCHAR uni0472
ENCODING -1
SWIDTH 600 0
DWIDTH 19 0
BBX 17 23 1 0
BITMAP
07F000
0FF800
3FFC00
380E00
780F00
700700
700700
E00380
E00380
E00380
FFFF80
FFFF80
E00380
E00380
E00380
E00380
700700
700700
780F00
380E00
3FFC00
0FF800
07E000
ENDCHAR
STARTCHAR uni0473
ENCODING -1
SWIDTH 600 0
DWIDTH 19 0
BBX 15 17 2 0
BITMAP
07C0
1FF0
3EF8
701C
701C
E00E
E00E
FFFE
FFFE
E00E
E00E
E00E
701C
701C
3EF8
1FF0
07C0
ENDCHAR
STARTCHAR uni0474
ENCODING -1
SWIDTH 600 0
DWIDTH 19 0
BBX 20 23 1 0
BITMAP
E000F0
F003F0
700380
700700
700700
380700
380E00
380E00
1C0E00
1C0C00
1C1C00
0E1C00
0E1C00
0E3800
063800
073800
073000
037000
037000
03F000
03E000
01E000
01E000
ENDCHAR
STARTCHAR uni0475
ENCODING -1
SWIDTH 600 0
DWIDTH 19 0
BBX 18 17 1 0
BITMAP
E003C0
7007C0
700700
700E00
380E00
380C00
181C00
1C1C00
1C1800
0E3800
0E3800
063000
077000
077000
036000
03E000
01E000
ENDCHAR
STARTCHAR uni0476
ENCODING -1
SWIDTH 600 0
DWIDTH 19 0
BBX 20 30 1 0
BITMAP
38E000
1C7000
0C3000
061800
030C00
000000
000000
E000F0
F003F0
700380
700700
700700
380700
380E00
380E00
1C0E00
1C0C00
1C1C00
0E1C00
0E1C00
0E3800
063800
073800
073000
037000
037000
03F000
03E000
01E000
01E000
ENDCHAR
STARTCHAR uni0477
ENCODING -1
SWIDTH 600 0
DWIDTH 19 0
BBX 18 24 1 0
BITMAP
38E000
1C7000
0C3000
061800
030C00
000000
000000
E003C0
7007C0
700700
700E00
380E00
380C00
181C00
1C1C00
1C1800
0E3800
0E3800
063000
077000
077000
036000
03E000
01E000
ENDCHAR
STARTCHAR uni0478
ENCODING -1
SWIDTH 600 0
DWIDTH 19 0
BBX 18 31 1 -8
BITMAP
3C0000
7E0000
7E0000
660000
E70000
E70000
E760C0
C371C0
C371C0
C33180
C33180
C33180
C33380
C33B80
C31B00
C31B00
E71B00
E71B00
E71B00
E60E00
7E0E00
7E0E00
3C0E00
000E00
000C00
000C00
000C00
001C00
001800
00F800
00F000
ENDCHAR
STARTCHAR uni0479
ENCODING -1
SWIDTH 600 0
DWIDTH 19 0
BBX 18 25 1 -8
BITMAP
3C71C0
7F31C0
7731C0
633180
E3B180
E3B980
E39980
C19B80
C19B80
C19B00
C39B00
E39B00
E38F00
630F00
770E00
7F0E00
3E0E00
000E00
000E00
000E00
000C00
000C00
001C00
007800
007000
ENDCHAR
STARTCHAR uni047A
ENCODING -1
SWIDTH 600 0
DWIDTH 19 0
BBX 17 27 1 -2
BITMAP
01C000
03E000
07F000
1FFC00
3FFE00
39CE00
700700
700700
F00700
E00380
E00380
E00380
E00380
E00380
E00380
E00380
E00380
E00380
700700
700700
700700
39CE00
3FFE00
1FFC00
07F000
03E000
01C000
ENDCHAR
STARTCHAR uni047B
ENCODING -1
SWIDTH 600 0
DWIDTH 19 0
BBX 15 20 2 -2
BITMAP
0380
0FE0
1FF0
3FF8
739C
701C
E00E
E00E
E00E
E00E
E00E
E00E
E00E
701C
739C
3FF8
1FF0
0FE0
0380
0380
ENDCHAR
STARTCHAR uni047C
ENCODING -1
SWIDTH 600 0
DWIDTH 19 0
BBX 17 33 1 0
BITMAP
0F8000
1FE000
18FC00
181C00
01C000
01C000
00C000
018000
010000
000000
1E3C00
3E3E00
7C1F00
700700
600300
E00380
E00380
E00380
E00380
E00380
E00380
E00380
E00380
E00380
E00380
E00380
E00380
E00380
700700
708700
7FFF00
3FFE00
1E7C00
ENDCHAR
STARTCHAR uni047D
ENCODING -1
SWIDTH 600 0
DWIDTH 19 0
BBX 17 28 1 0
BITMAP
0F8000
1FE000
18FC00
181C00
038000
038000
018000
010000
020000
000000
000000
3E3E00
7E3F00
7C1F00
600300
E00380
E00380
E00380
C00180
C00180
C00180
E00380
E00380
E00380
708700
7FFF00
3FFE00
1F7C00
ENDCHAR
STARTCHAR uni047E
ENCODING -1
SWIDTH 600 0
DWIDTH 19 0
BBX 17 29 1 0
BITMAP
3FFE00
3FFE00
188C00
108400
000000
000000
1E7C00
3E7E00
7C3F00
700700
600300
E00380
E00380
E00380
E00380
E00380
E00380
E00380
E00380
E1C380
E1C380
E1C380
E1C380
E1C380
71C700
71C700
7FFF00
3F7E00
1E3C00
ENDCHAR
STARTCHAR uni047F
ENCODING -1
SWIDTH 600 0
DWIDTH 19 0
BBX 18 23 0 0
BITMAP
0FFE00
0FFE00
044400
044400
000000
000000
E1C0C0
E1C0C0
60C0C0
60C0C0
70C0C0
70E0C0
3060C0
306180
38E180
18F180
18F180
19B300
1DB300
0DB300
0F1E00
0F1E00
0F1C00
ENDCHAR
STARTCHAR uni0480
ENCODING -1
SWIDTH 600 0
DWIDTH 19 0
BBX 16 31 2 -8
BITMAP
01FC
07FF
1FFE
3E02
3800
7800
7000
F000
E000
E000
E000
E000
E000
E000
E000
F000
7000
7000
7800
3C00
1FF8
0FF8
03F8
0038
0038
0038
0038
0038
0038
0038
0038
ENDCHAR
STARTCHAR uni0481
ENCODING -1
SWIDTH 600 0
DWIDTH 19 0
BBX 13 25 3 -8
BITMAP
07F0
1FF8
3FF0
7800
7000
E000
E000
E000
E000
E000
E000
E000
7000
7800
3FE0
1FE0
07E0
00E0
00E0
00E0
00E0
00E0
00E0
00E0
00E0
ENDCHAR
STARTCHAR uni0482
ENCODING -1
SWIDTH 600 0
DWIDTH 19 0
BBX 17 20 1 0
BITMAP
000400
000E00
000C00
041C00
0F1800
07F800
01F000
007C00
00FF00
00C780
41C100
F18000
7F8000
1F0000
07C000
0FF000
1C7800
1C1000
380000
100000
ENDCHAR
STARTCHAR uni0483
ENCODING -1
SWIDTH 600 0
DWIDTH 19 0
BBX 11 4 4 18
BITMAP
00E0
FFE0
FFE0
E000
ENDCHAR
STARTCHAR uni0484
ENCODING -1
SWIDTH 600 0
DWIDTH 19 0
BBX 11 4 4 20
BITMAP
07C0
1FE0
FCE0
E060
ENDCHAR
STARTCHAR uni0485
ENCODING -1
SWIDTH 600 0
DWIDTH 19 0
BBX 4 6 8 19
BITMAP
70
F0
E0
C0
70
10
ENDCHAR
STARTCHAR uni0486
ENCODING -1
SWIDTH 600 0
DWIDTH 19 0
BBX 4 6 7 19
BITMAP
60
70
30
30
E0
80
ENDCHAR
STARTCHAR uni0488
ENCODING -1
SWIDTH 600 0
DWIDTH 19 0
BBX 17 16 1 1
BITMAP
01C000
01C000
000000
380E00
480900
000000
000000
E00380
F00780
000000
000000
000000
380E00
480900
01C000
03C000
ENDCHAR
STARTCHAR uni0489
ENCODING -1
SWIDTH 600 0
DWIDTH 19 0
BBX 18 18 1 0
BITMAP
00C000
00C000
118000
318300
180E00
180400
000000
C00300
F003C0
3000C0
000000
000000
080400
1C0C00
38C400
20C600
018200
018000
ENDCHAR
STARTCHAR uni048A
ENCODING -1
SWIDTH 600 0
DWIDTH 19 0
BBX 18 36 2 -6
BITMAP
703800
703800
387000
3FF000
0FC000
000000
000000
E01E00
E01E00
E03E00
E03E00
E07600
E07E00
E06E00
E0EE00
E0CE00
E1CE00
E18E00
E38E00
E30E00
E70E00
E60E00
EE0E00
EC0E00
FC0E00
DC0E00
F80E00
F80FC0
F00FC0
F00F80
000180
000380
000300
000700
000700
000F00
ENDCHAR
STARTCHAR uni048B
ENCODING -1
SWIDTH 600 0
DWIDTH 19 0
BBX 16 30 3 -6
BITMAP
7038
7038
3870
3FF0
0FC0
0000
0000
E078
E0F8
E0F8
E0F8
E1F8
E1B8
E3B8
E338
E738
E638
EE38
EC38
FC38
F838
F838
F83F
F03F
0006
0006
000E
000E
000C
001C
ENDCHAR
STARTCHAR uni048C
ENCODING -1
SWIDTH 600 0
DWIDTH 19 0
BBX 16 23 1 0
BITMAP
3800
3800
3800
FFC0
FFC0
FFC0
3800
3800
3800
3800
3FF0
3FFC
3FFE
380E
380F
3807
3807
3807
380F
380E
38FE
3FFC
3FF0
ENDCHAR
STARTCHAR uni048D
ENCODING -1
SWIDTH 600 0
DWIDTH 19 0
BBX 16 24 1 0
BITMAP
3800
3800
3800
3800
FF80
FF80
3800
3800
3800
3800
3800
3800
3800
3800
3FF8
3FFE
381E
3807
3807
3807
3807
381E
3FFE
3FF8
ENDCHAR
STARTCHAR uni048E
ENCODING -1
SWIDTH 600 0
DWIDTH 19 0
BBX 14 23 3 0
BITMAP
FFC0
FFF0
E3F8
E078
E03C
E01C
E01C
E01C
E01C
E11C
E3B8
E1F8
FFF0
FFE0
E060
E070
E020
E000
E000
E000
E000
E000
E000
ENDCHAR
STARTCHAR uni048F
ENCODING -1
SWIDTH 600 0
DWIDTH 19 0
BBX 15 25 2 -8
BITMAP
C7E0
EFF0
FEF8
F01C
E01C
E00E
E00E
E00E
E00E
E00E
E00E
E08E
F1DC
F0FC
FE78
EFF0
E7F8
E01C
E008
E000
E000
E000
E000
E000
E000
ENDCHAR
STARTCHAR uni0492
ENCODING -1
SWIDTH 600 0
DWIDTH 19 0
BBX 14 23 3 0
BITMAP
3FFC
3FFC
3FFC
3800
3800
3800
3800
3800
3800
3800
FFC0
FFC0
FFC0
3800
3800
3800
3800
3800
3800
3800
3800
3800
3800
ENDCHAR
STARTCHAR uni0493
ENCODING -1
SWIDTH 600 0
DWIDTH 19 0
BBX 13 17 3 0
BITMAP
3FF8
3FF8
3800
3800
3800
3800
3800
FF80
FF80
3800
3800
3800
3800
3800
3800
3800
3800
ENDCHAR
STARTCHAR uni0494
ENCODING -1
SWIDTH 600 0
DWIDTH 19 0
BBX 15 31 3 -8
BITMAP
FFF0
FFF0
FFF0
E000
E000
E000
E000
E000
E000
E000
FF80
FFE0
FFF0
E078
E03C
E01C
E01C
E00E
E00E
E00E
E00E
E00E
E00E
000E
001E
001C
003C
0078
3FF8
3FE0
1F80
ENDCHAR
STARTCHAR uni0495
ENCODING -1
SWIDTH 600 0
DWIDTH 19 0
BBX 14 25 3 -8
BITMAP
FFE0
FFE0
E000
E000
E000
E000
E000
FF80
FFE0
FFF0
E078
E038
E03C
E01C
E01C
E01C
E01C
001C
001C
001C
0038
0078
1DF0
1FE0
0F80
ENDCHAR
STARTCHAR uni0496
ENCODING -1
SWIDTH 600 0
DWIDTH 19 0
BBX 19 29 0 -6
BITMAP
E0C1C0
60C180
70C380
30C300
38C700
18C700
1CCE00
0CCE00
0EDC00
06DC00
07D800
07F800
07DC00
0EDC00
0ECC00
1CCE00
1CC600
38C700
38C700
30C380
70C3E0
70C1E0
E0C1E0
0000E0
0000E0
0000E0
0000E0
0000E0
0000E0
ENDCHAR
STARTCHAR uni0497
ENCODING -1
SWIDTH 600 0
DWIDTH 19 0
BBX 19 23 0 -6
BITMAP
E0C1C0
70C1C0
30C380
38C700
1CC700
0CCE00
0ECC00
07DC00
07F800
06DC00
0ECC00
1CCE00
1CC700
38C700
38C380
70C1E0
E0C1E0
000060
000060
000060
000060
000060
000060
ENDCHAR
STARTCHAR uni0498
ENCODING -1
SWIDTH 600 0
DWIDTH 19 0
BBX 15 30 2 -7
BITMAP
0FE0
7FF8
FFFC
601E
000E
000E
000E
001E
001C
0078
3FE0
3FE0
07F8
003C
001E
000E
000E
000E
001E
803C
FFFC
FFF0
3FC0
0380
0180
00C0
00C0
00C0
07C0
0780
ENDCHAR
STARTCHAR uni0499
ENCODING -1
SWIDTH 600 0
DWIDTH 19 0
BBX 13 24 3 -7
BITMAP
3F80
FFE0
F1F0
0070
0070
0070
00E0
1FC0
1FC0
01F0
0038
0038
0038
0038
F9F0
FFE0
7FC0
0700
0300
0180
0180
0180
0F80
0F00
ENDCHAR
STARTCHAR uni049A
ENCODING -1
SWIDTH 600 0
DWIDTH 19 0
BBX 16 29 3 -6
BITMAP
E01E
E01C
E038
E070
E0E0
E1E0
E1C0
E380
E700
EE00
FE00
FE00
EE00
E700
E380
E3C0
E1E0
E0F0
E078
E03C
E01F
E01F
E00F
0007
0007
0007
0007
0007
0007
ENDCHAR
STARTCHAR uni049B
ENCODING -1
SWIDTH 600 0
DWIDTH 19 0
BBX 15 23 3 -6
BITMAP
E01C
E038
E070
E0E0
E1C0
E380
E700
EE00
FE00
EF00
E780
E3C0
E1E0
E0F0
E078
E03E
E01E
000E
000E
000E
000E
000E
000E
ENDCHAR
STARTCHAR uni049C
ENCODING -1
SWIDTH 600 0
DWIDTH 19 0
BBX 16 23 3 0
BITMAP
E00F
E01E
E01C
E038
E670
E6E0
E7E0
E7C0
E780
E700
EE00
FF00
FF80
F780
E7C0
E7E0
E6F0
E670
E038
E03C
E01C
E00E
E007
ENDCHAR
STARTCHAR uni049D
ENCODING -1
SWIDTH 600 0
DWIDTH 19 0
BBX 15 17 3 0
BITMAP
E01E
E63C
E670
E6E0
E7C0
E780
E700
EE00
FE00
EF00
E780
E7C0
E7E0
E6F0
E678
E63C
E01E
ENDCHAR
STARTCHAR uni049E
ENCODING -1
SWIDTH 600 0
DWIDTH 19 0
BBX 18 23 1 0
BITMAP
3803C0
380780
380700
FF8E00
FF9C00
FFB800
387000
38F000
39E000
39C000
3BC000
3FC000
3EE000
38F000
387000
383800
383C00
381C00
380E00
380F00
380780
380380
3801C0
ENDCHAR
STARTCHAR uni049F
ENCODING -1
SWIDTH 600 0
DWIDTH 19 0
BBX 17 24 1 0
BITMAP
380000
380000
380000
FFE000
FFE000
380000
380000
380700
380E00
381C00
383800
387000
38E000
3BC000
3B8000
3FC000
3DE000
38F000
387000
383800
381C00
380E00
380700
380780
ENDCHAR
STARTCHAR uni04A0
ENCODING -1
SWIDTH 600 0
DWIDTH 19 0
BBX 19 23 0 0
BITMAP
FF00E0
FF01C0
FF0380
070380
070700
070E00
070E00
071C00
073800
073800
077800
07F800
07FC00
079C00
071E00
070E00
070700
070700
070380
070380
0701C0
0701C0
0700E0
ENDCHAR
STARTCHAR uni04A1
ENCODING -1
SWIDTH 600 0
DWIDTH 19 0
BBX 18 17 1 0
BITMAP
FF8380
FF8700
038700
038E00
039C00
039C00
03B800
03F000
03F000
03B800
03BC00
039C00
038E00
038F00
038700
038380
0383C0
ENDCHAR
STARTCHAR uni04A2
ENCODING -1
SWIDTH 600 0
DWIDTH 19 0
BBX 17 29 2 -6
BITMAP
E01C00
E01C00
E01C00
E01C00
E01C00
E01C00
E01C00
E01C00
E01C00
E01C00
FFFC00
FFFC00
FFFC00
E01C00
E01C00
E01C00
E01C00
E01C00
E01C00
E01C00
E01F80
E01F80
E01F80
000380
000380
000380
000380
000380
000380
ENDCHAR
STARTCHAR uni04A3
ENCODING -1
SWIDTH 600 0
DWIDTH 19 0
BBX 15 23 3 -6
BITMAP
E070
E070
E070
E070
E070
E070
E070
FFF0
FFF0
E070
E070
E070
E070
E070
E070
E07E
E07E
000E
000E
000E
000E
000E
000E
ENDCHAR
STARTCHAR uni04A4
ENCODING -1
SWIDTH 600 0
DWIDTH 19 0
BBX 17 23 2 0
BITMAP
E03F80
E03F80
E03F80
E03800
E03800
E03800
E03800
E03800
E03800
E03800
FFF800
FFF800
FFF800
E03800
E03800
E03800
E03800
E03800
E03800
E03800
E03800
E03800
E03800
ENDCHAR
STARTCHAR uni04A5
ENCODING -1
SWIDTH 600 0
DWIDTH 19 0
BBX 16 17 3 0
BITMAP
E07F
E07F
E070
E070
E070
E070
E070
FFF0
FFF0
E070
E070
E070
E070
E070
E070
E070
E070
ENDCHAR
STARTCHAR uni04A6
ENCODING -1
SWIDTH 600 0
DWIDTH 19 0
BBX 16 31 2 -8
BITMAP
FFC0
FFC0
FFC0
E1C0
E1C0
E1C0
E1C0
E1C0
E1C0
E1C0
E1F8
E1FC
E1FE
E1CE
E1C6
E1C7
E1C7
E1C7
E1C7
E1C7
E1C7
E1C7
E1C7
0007
0007
0007
0006
000E
00FE
00FC
00F8
ENDCHAR
STARTCHAR uni04A7
ENCODING -1
SWIDTH 600 0
DWIDTH 19 0
BBX 16 25 2 -8
BITMAP
FF80
FF80
C180
C180
C180
C180
C180
C1F8
C1FC
C1DE
C186
C187
C187
C187
C183
C183
C183
0003
0007
0007
0007
0006
00FE
00FC
00F8
ENDCHAR
STARTCHAR uni04A8
ENCODING -1
SWIDTH 600 0
DWIDTH 19 0
BBX 17 24 1 -1
BITMAP
07C000
1FC000
3F8000
380000
700000
707C00
F0FE00
E0EE00
E1C700
E1C700
E1C700
E1C700
E1C700
E1C700
E1C700
E1C700
71CF00
70EE00
70EE00
387C00
3FFC00
1FFF80
07FF80
000780
ENDCHAR
STARTCHAR uni04A9
ENCODING -1
SWIDTH 600 0
DWIDTH 19 0
BBX 15 18 2 -1
BITMAP
07C0
1FC0
3E00
7000
70F8
E1FC
E3DE
E38E
E38E
E38E
E38E
E38E
71DC
71DC
3EF8
1FF8
07FE
001E
ENDCHAR
STARTCHAR uni04AA
ENCODING -1
SWIDTH 600 0
DWIDTH 19 0
BBX 16 30 2 -7
BITMAP
01FC
07FF
1FFE
3E02
3800
7800
7000
F000
E000
E000
E000
E000
E000
E000
E000
F000
7000
7000
7800
3C00
1FFE
0FFE
03FC
0070
0030
0018
0018
0018
00F8
00F0
ENDCHAR
STARTCHAR uni04AB
ENCODING -1
SWIDTH 600 0
DWIDTH 19 0
BBX 13 24 3 -7
BITMAP
07F0
1FF8
3FF0
7800
7000
E000
E000
E000
E000
E000
E000
E000
7000
7800
3FF8
1FF8
07F0
0380
0180
00C0
00C0
00C0
07C0
0780
ENDCHAR
STARTCHAR uni04AC
ENCODING -1
SWIDTH 600 0
DWIDTH 19 0
BBX 16 29 1 -6
BITMAP
FFFF
FFFF
FFFF
01C0
01C0
01C0
01C0
01C0
01C0
01C0
01C0
01C0
01C0
01C0
01C0
01C0
01C0
01C0
01C0
01C0
01F8
01F8
01F8
0038
0038
0038
0038
0038
0038
ENDCHAR
STARTCHAR uni04AD
ENCODING -1
SWIDTH 600 0
DWIDTH 19 0
BBX 15 23 2 -6
BITMAP
FFFE
FFFE
0380
0380
0380
0380
0380
0380
0380
0380
0380
0380
0380
0380
0380
03F0
03F0
0070
0070
0070
0070
0070
0070
ENDCHAR
STARTCHAR uni04AE
ENCODING -1
SWIDTH 600 0
DWIDTH 19 0
BBX 19 23 0 0
BITMAP
E000E0
7001C0
7803C0
380380
1C0700
1C0700
0E0E00
0E0E00
071C00
071C00
03B800
01F000
01F000
00E000
00E000
00E000
00E000
00E000
00E000
00E000
00E000
00E000
00E000
ENDCHAR
STARTCHAR uni04AF
ENCODING -1
SWIDTH 600 0
DWIDTH 19 0
BBX 17 25 1 -8
BITMAP
E00380
700700
700700
700700
380E00
380E00
181C00
1C1C00
1C1800
0E3800
0E3800
067000
077000
076000
036000
03E000
01C000
01C000
01C000
01C000
01C000
01C000
01C000
01C000
01C000
ENDCHAR
STARTCHAR uni04B0
ENCODING -1
SWIDTH 600 0
DWIDTH 19 0
BBX 19 23 0 0
BITMAP
E000E0
7001C0
7803C0
380380
1C0700
1C0700
0E0E00
0E0E00
071C00
071C00
03B800
03B000
01F000
00E000
00E000
1FFF00
1FFF00
1FFF00
00E000
00E000
00E000
00E000
00E000
ENDCHAR
STARTCHAR uni04B1
ENCODING -1
SWIDTH 600 0
DWIDTH 19 0
BBX 17 25 1 -8
BITMAP
E00380
700700
700700
700700
380E00
380E00
1C1C00
1C1C00
1C1800
0E3800
0E3800
067000
077000
036000
036000
03C000
01C000
1FFC00
1FFC00
01C000
01C000
01C000
01C000
01C000
01C000
ENDCHAR
STARTCHAR uni04B2
ENCODING -1
SWIDTH 600 0
DWIDTH 19 0
BBX 18 29 1 -6
BITMAP
E00380
700700
380E00
380E00
1C1C00
1E1C00
0E3800
077000
077000
03E000
01C000
01E000
03E000
077000
077000
0E3800
0E3C00
1C1C00
180E00
380E00
7007C0
7007C0
E003C0
0001C0
0001C0
0001C0
0001C0
0001C0
0001C0
ENDCHAR
STARTCHAR uni04B3
ENCODING -1
SWIDTH 600 0
DWIDTH 19 0
BBX 16 23 2 -6
BITMAP
F01E
701C
3838
3C78
1C70
0EE0
07C0
07C0
0380
07C0
0EE0
0EE0
1C70
3838
3838
701F
F00F
0007
0007
0007
0007
0007
0007
ENDCHAR
STARTCHAR uni04B4
ENCODING -1
SWIDTH 600 0
DWIDTH 19 0
BBX 19 29 0 -6
BITMAP
FFE700
FFE700
FFE700
0E0700
0E0700
0E0700
0E0700
0E0700
0E0700
0E0700
0E0700
0E0700
0E0700
0E0700
0E0700
0E0700
0E0700
0E0700
0E0700
0E0700
0FFFE0
0FFFE0
0FFFE0
0000E0
0000E0
0000E0
0000E0
0000E0
0000E0
ENDCHAR
STARTCHAR uni04B5
ENCODING -1
SWIDTH 600 0
DWIDTH 19 0
BBX 17 23 1 -6
BITMAP
FF9C00
FF9C00
1C1C00
1C1C00
1C1C00
1C1C00
1C1C00
1C1C00
1C1C00
1C1C00
1C1C00
1C1C00
1C1C00
1C1C00
1C1C00
1FFF80
1FFF80
000380
000380
000380
000380
000380
000380
ENDCHAR
STARTCHAR uni04B6
ENCODING -1
SWIDTH 600 0
DWIDTH 19 0
BBX 17 29 2 -6
BITMAP
E01C00
E01C00
E01C00
E01C00
E01C00
E01C00
E01C00
E01C00
E01C00
E01C00
E01C00
F01C00
7FFC00
7FFC00
1F9C00
001C00
001C00
001C00
001C00
001C00
001F80
001F80
001F80
000380
000380
000380
000380
000380
000380
ENDCHAR
STARTCHAR uni04B7
ENCODING -1
SWIDTH 600 0
DWIDTH 19 0
BBX 16 23 2 -6
BITMAP
E038
E038
E038
E038
E038
E038
E038
E038
F9F8
7FF8
1F38
0038
0038
0038
0038
003F
003F
0007
0007
0007
0007
0007
0007
ENDCHAR
STARTCHAR uni04B8
ENCODING -1
SWIDTH 600 0
DWIDTH 19 0
BBX 15 23 2 0
BITMAP
E00E
E00E
E00E
E00E
E00E
E00E
E00E
E30E
E30E
E30E
E30E
F37E
7FFE
7FFE
1F8E
030E
030E
030E
030E
030E
000E
000E
000E
ENDCHAR
STARTCHAR uni04B9
ENCODING -1
SWIDTH 600 0
DWIDTH 19 0
BBX 14 17 2 0
BITMAP
E01C
E01C
E01C
E01C
E31C
E31C
E31C
E31C
FB7C
7FFC
1F9C
031C
031C
031C
031C
001C
001C
ENDCHAR
STARTCHAR uni04BA
ENCODING -1
SWIDTH 600 0
DWIDTH 19 0
BBX 15 23 2 0
BITMAP
E000
E000
E000
E000
E000
E000
E000
E000
E3F0
FFF8
FFFC
F01E
E00E
E00E
E00E
E00E
E00E
E00E
E00E
E00E
E00E
E00E
E00E
ENDCHAR
STARTCHAR uni04BB
ENCODING -1
SWIDTH 600 0
DWIDTH 19 0
BBX 14 17 3 0
BITMAP
E000
E000
E000
E000
E000
E000
E3E0
EFF8
FE78
F01C
E01C
E01C
E01C
E01C
E01C
E01C
E01C
ENDCHAR
STARTCHAR uni04BC
ENCODING -1
SWIDTH 600 0
DWIDTH 19 0
BBX 18 23 0 0
BITMAP
007C00
01FF00
03FF00
038380
070380
0701C0
0E01C0
EE01C0
EE01C0
EE01C0
FFFFC0
7FFFC0
0E0000
0E0000
0E0000
0E0000
0F0000
070000
070000
038080
03FF80
01FF80
007F00
ENDCHAR
STARTCHAR uni04BD
ENCODING -1
SWIDTH 600 0
DWIDTH 19 0
BBX 18 17 -1 0
BITMAP
007C00
01FF00
03CF80
070380
E701C0
CE01C0
EE01C0
FFFFC0
7FFFC0
0E0000
0E0000
0E0000
070000
070000
03FF80
01FF80
007E00
ENDCHAR
STARTCHAR uni04BE
ENCODING -1
SWIDTH 600 0
DWIDTH 19 0
BBX 18 29 0 -6
BITMAP
007C00
01FF00
03FF00
038380
070380
0701C0
0E01C0
EE01C0
EE01C0
EE01C0
FFFFC0
7FFFC0
0E0000
0E0000
0E0000
0E0000
070000
070000
070000
038080
03FF80
01FF80
007F00
003800
003800
003800
003800
003800
003800
ENDCHAR
STARTCHAR uni04BF
ENCODING -1
SWIDTH 600 0
DWIDTH 19 0
BBX 18 23 -1 -6
BITMAP
007C00
01FF00
03CF80
070380
E701C0
CE01C0
EE01C0
FFFFC0
7FFFC0
0E0000
0E0000
0E0000
070000
070000
03FF80
01FF80
007E00
003800
003800
003800
003800
003800
003800
ENDCHAR
STARTCHAR uni04C0
ENCODING -1
SWIDTH 600 0
DWIDTH 19 0
BBX 13 23 3 0
BITMAP
FFF8
FFF8
0700
0700
0700
0700
0700
0700
0700
0700
0700
0700
0700
0700
0700
0700
0700
0700
0700
0700
0700
FFF8
FFF8
ENDCHAR
STARTCHAR uni04C1
ENCODING -1
SWIDTH 600 0
DWIDTH 19 0
BBX 19 30 0 0
BITMAP
0E0700
0E0700
070E00
07FE00
01F800
000000
000000
E0E0E0
60E0C0
70E1C0
30E180
38E380
18E300
1CE700
0CE600
0EEE00
06EC00
07FC00
07FC00
06FC00
0EEE00
0EEE00
1CE700
1CE700
38E380
38E380
70E1C0
70E1C0
E0E0E0
E0E0E0
ENDCHAR
STARTCHAR uni04C2
ENCODING -1
SWIDTH 600 0
DWIDTH 19 0
BBX 19 24 0 0
BITMAP
0E0700
0E0700
070E00
07FE00
01F800
000000
000000
E0E0E0
70E1C0
70E1C0
38E380
1CE700
0CE600
0EEE00
07FC00
07FC00
06EC00
0EEE00
1CE700
1CE700
38E380
70E1C0
70E1C0
E0E0E0
ENDCHAR
STARTCHAR uni04C3
ENCODING -1
SWIDTH 600 0
DWIDTH 19 0
BBX 15 31 2 -8
BITMAP
E01E
E01C
E038
E070
E0E0
E1E0
E1C0
E380
E700
EE00
FC00
FFC0
FFF0
E0F8
E038
E01C
E01C
E01E
E00E
E00E
E00E
E00E
E00E
000E
001E
001C
003C
0078
3FF8
3FF0
1F80
ENDCHAR
STARTCHAR uni04C4
ENCODING -1
SWIDTH 600 0
DWIDTH 19 0
BBX 14 25 3 -8
BITMAP
E03C
E078
E0F0
E1E0
E3C0
E780
EF00
FE00
FFC0
FFE0
E0F0
E078
E038
E01C
E01C
E01C
E01C
001C
001C
001C
0038
0078
1FF0
1FE0
0F80
ENDCHAR
STARTCHAR uni04C5
ENCODING -1
SWIDTH 600 0
DWIDTH 19 0
BBX 19 29 0 -6
BITMAP
01FF00
01FF00
01FF00
018700
038700
038700
038700
038700
038700
030700
030700
070700
070700
070700
070700
070700
060700
0E0700
0E0700
0E0700
3C07E0
F807E0
F007E0
0000C0
0001C0
0001C0
0001C0
000380
000380
ENDCHAR
STARTCHAR uni04C6
ENCODING -1
SWIDTH 600 0
DWIDTH 19 0
BBX 19 23 0 -6
BITMAP
07FF00
07FF00
060700
060700
060700
0E0700
0E0700
0E0700
0E0700
0E0700
0C0700
1C0700
1C0700
180700
380700
F007E0
E007E0
0000C0
0000C0
0001C0
0001C0
000180
000380
ENDCHAR
STARTCHAR uni04C7
ENCODING -1
SWIDTH 600 0
DWIDTH 19 0
BBX 15 31 2 -8
BITMAP
E00E
E00E
E00E
E00E
E00E
E00E
E00E
E00E
E00E
E00E
FFFE
FFFE
FFFE
E00E
E00E
E00E
E00E
E00E
E00E
E00E
E00E
E00E
E00E
000E
000E
001C
001C
0038
1FF8
1FF0
0FC0
ENDCHAR
STARTCHAR uni04C8
ENCODING -1
SWIDTH 600 0
DWIDTH 19 0
BBX 13 25 3 -8
BITMAP
E038
E038
E038
E038
E038
E038
E038
FFF8
FFF8
E038
E038
E038
E038
E038
E038
E038
E038
0038
0038
0038
0030
0070
0FF0
0FE0
0780
ENDCHAR
STARTCHAR uni04C9
ENCODING -1
SWIDTH 600 0
DWIDTH 19 0
BBX 17 29 2 -6
BITMAP
E01C00
E01C00
E01C00
E01C00
E01C00
E01C00
E01C00
E01C00
E01C00
E01C00
FFFC00
FFFC00
FFFC00
E01C00
E01C00
E01C00
E01C00
E01C00
E01C00
E01C00
E01F80
E01F80
E01F00
000300
000700
000700
000700
000E00
000E00
ENDCHAR
STARTCHAR uni04CA
ENCODING -1
SWIDTH 600 0
DWIDTH 19 0
BBX 16 23 3 -6
BITMAP
E038
E038
E038
E038
E038
E038
E038
FFF8
FFF8
E038
E038
E038
E038
E038
E038
E03F
E03F
0006
0006
000E
000E
000C
001C
ENDCHAR
STARTCHAR uni04CB
ENCODING -1
SWIDTH 600 0
DWIDTH 19 0
BBX 15 29 2 -6
BITMAP
E00E
E00E
E00E
E00E
E00E
E00E
E00E
E00E
E00E
E00E
E00E
F03E
7FFE
3FEE
060E
000E
000E
000E
000E
000E
007E
007E
007E
0070
0070
0070
0070
0070
0070
ENDCHAR
STARTCHAR uni04CC
ENCODING -1
SWIDTH 600 0
DWIDTH 19 0
BBX 14 23 2 -6
BITMAP
E01C
E01C
E01C
E01C
E01C
E01C
E01C
E01C
F07C
7FFC
3F9C
001C
001C
001C
001C
00FC
00FC
00E0
00E0
00E0
00E0
00E0
00E0
ENDCHAR
STARTCHAR uni04CD
ENCODING -1
SWIDTH 600 0
DWIDTH 19 0
BBX 17 29 2 -6
BITMAP
F01E00
F01E00
F01E00
F03E00
D83600
D83600
D83600
D83600
D83600
CC6600
CC6600
CC6600
CC6600
CC6600
C6C600
C6C600
C6C600
C6C600
C6C600
C38600
C38780
C38780
C38700
000300
000700
000600
000E00
000E00
001C00
ENDCHAR
STARTCHAR uni04CE
ENCODING -1
SWIDTH 600 0
DWIDTH 19 0
BBX 17 23 2 -6
BITMAP
F00E00
F01E00
F01E00
D01E00
D83600
D83600
D83600
CC6600
CC6600
CC6600
CEE600
C6C600
C6C600
C6C600
C38600
C38780
C38780
000300
000300
000700
000700
000600
000E00
ENDCHAR
STARTCHAR uni04CF
ENCODING -1
SWIDTH 600 0
DWIDTH 19 0
BBX 13 23 3 0
BITMAP
FFF8
FFF8
0700
0700
0700
0700
0700
0700
0700
0700
0700
0700
0700
0700
0700
0700
0700
0700
0700
0700
0700
FFF8
FFF8
ENDCHAR
STARTCHAR uni04D0
ENCODING -1
SWIDTH 600 0
DWIDTH 19 0
BBX 17 30 1 0
BITMAP
1C0E00
1C0E00
0E1C00
0FFC00
03F000
000000
000000
01C000
01E000
03E000
036000
036000
077000
077000
063000
0E3800
0E3800
0E1800
1C1C00
1C1C00
1FFC00
1FFC00
3FFE00
380E00
380600
700700
700700
700700
E00380
E00380
ENDCHAR
STARTCHAR uni04D1
ENCODING -1
SWIDTH 600 0
DWIDTH 19 0
BBX 14 24 2 0
BITMAP
381C
381C
1C38
1FF8
07E0
0000
0000
0FE0
7FF8
3CF8
203C
001C
001C
001C
07FC
3FFC
781C
F01C
E01C
E01C
E03C
F8FC
7FCC
1F8C
ENDCHAR
STARTCHAR uni04D2
ENCODING -1
SWIDTH 600 0
DWIDTH 19 0
BBX 17 28 1 0
BITMAP
0E3800
0E3800
0E3800
000000
000000
01C000
01E000
03E000
036000
036000
077000
077000
063000
0E3800
0E3800
0E1800
1C1C00
1C1C00
1FFC00
1FFC00
3FFE00
380E00
380600
700700
700700
700700
E00380
E00380
ENDCHAR
STARTCHAR uni04D3
ENCODING -1
SWIDTH 600 0
DWIDTH 19 0
BBX 14 23 2 0
BITMAP
1C70
1C70
1C70
0000
0000
0000
0FE0
7FF8
3CF8
203C
001C
001C
001C
07FC
3FFC
781C
F01C
E01C
E01C
E03C
F8FC
7FCC
1F8C
ENDCHAR
STARTCHAR uni04D4
ENCODING -1
SWIDTH 600 0
DWIDTH 19 0
BBX 18 23 0 0
BITMAP
07FFC0
07FFC0
0FFFC0
0EE000
0CE000
0CE000
0CE000
1CE000
1CE000
18E000
18FF80
38FF80
38FF80
3FE000
3FE000
3FE000
70E000
70E000
70E000
60E000
60FFC0
E0FFC0
E0FFC0
ENDCHAR
STARTCHAR uni04D5
ENCODING -1
SWIDTH 600 0
DWIDTH 19 0
BBX 17 17 1 0
BITMAP
1E1C00
7F3E00
73F700
01E300
01C380
01C380
01C380
1FFF80
7FFF80
71C000
E1C000
E1C000
E1C000
E3E080
F77F80
7E3F80
3C1F00
ENDCHAR
STARTCHAR uni04D6
ENCODING -1
SWIDTH 600 0
DWIDTH 19 0
BBX 13 30 3 0
BITMAP
7038
7038
3870
3FF0
0FC0
0000
0000
FFF8
FFF8
FFF8
E000
E000
E000
E000
E000
E000
E000
FFF0
FFF0
FFF0
E000
E000
E000
E000
E000
E000
E000
FFF8
FFF8
FFF8
ENDCHAR
STARTCHAR uni04D7
ENCODING -1
SWIDTH 600 0
DWIDTH 19 0
BBX 15 24 2 0
BITMAP
381C
381C
1C38
1FF8
07E0
0000
0000
07E0
1FF0
3E78
701C
700E
E00E
E00E
FFFE
FFFE
E000
E000
E000
7000
7800
3FFC
1FFC
07F0
ENDCHAR
STARTCHAR uni04D8
ENCODING -1
SWIDTH 600 0
DWIDTH 19 0
BBX 17 23 1 0
BITMAP
1FE000
7FF800
7FFC00
401E00
000E00
000700
000700
000380
000380
000380
FFFF80
FFFF80
FFFF80
E00380
E00380
E00780
F00700
700700
700F00
381E00
3FFC00
1FF800
07E000
ENDCHAR
STARTCHAR uni04D9
ENCODING -1
SWIDTH 600 0
DWIDTH 19 0
BBX 15 17 2 0
BITMAP
1FC0
7FF0
7DF8
003C
001C
000E
000E
000E
FFFE
FFFE
E00E
E00E
E01C
701C
7CF8
3FF0
0FC0
ENDCHAR
STARTCHAR uni04DA
ENCODING -1
SWIDTH 600 0
DWIDTH 19 0
BBX 17 28 1 0
BITMAP
0E3800
0E3800
0E3800
000000
000000
1FE000
7FF800
7FFC00
401E00
000E00
000700
000700
000380
000380
000380
FFFF80
FFFF80
FFFF80
E00380
E00380
E00780
F00700
700700
700F00
381E00
3FFC00
1FF800
07E000
ENDCHAR
STARTCHAR uni04DB
ENCODING -1
SWIDTH 600 0
DWIDTH 19 0
BBX 15 23 2 0
BITMAP
1C70
1C70
1C70
0000
0000
0000
1FC0
7FF0
7DF8
003C
001C
000E
000E
000E
FFFE
FFFE
E00E
E00E
E01C
701C
7CF8
3FF0
0FC0
ENDCHAR
STARTCHAR uni04DC
ENCODING -1
SWIDTH 600 0
DWIDTH 19 0
BBX 19 28 0 0
BITMAP
071C00
071C00
071C00
000000
000000
E0E0E0
60E0C0
70E1C0
30E180
38E380
18E300
1CE700
0CE600
0EEE00
06EC00
07FC00
07FC00
06FC00
0EEE00
0EEE00
1CE700
1CE700
38E380
38E380
70E1C0
70E1C0
E0E0E0
E0E0E0
ENDCHAR
STARTCHAR uni04DD
ENCODING -1
SWIDTH 600 0
DWIDTH 19 0
BBX 19 23 0 0
BITMAP
071C00
071C00
071C00
000000
000000
000000
E0E0E0
70E1C0
70E1C0
38E380
1CE700
0CE600
0EEE00
07FC00
07FC00
06EC00
0EEE00
1CE700
1CE700
38E380
70E1C0
70E1C0
E0E0E0
ENDCHAR
STARTCHAR uni04DE
ENCODING -1
SWIDTH 600 0
DWIDTH 19 0
BBX 15 28 2 0
BITMAP
1C70
1C70
1C70
0000
0000
0FE0
7FF8
FFFC
601E
000E
000E
000E
001E
001C
0078
3FE0
3FE0
07F8
003C
001E
000E
000E
000E
001E
803C
FFFC
FFF0
3FC0
ENDCHAR
STARTCHAR uni04DF
ENCODING -1
SWIDTH 600 0
DWIDTH 19 0
BBX 13 23 3 0
BITMAP
38E0
38E0
38E0
0000
0000
0000
3F80
FFE0
F1F0
0070
0070
0070
00E0
1FC0
1FC0
01F0
0038
0038
0038
0038
F9F0
FFE0
7FC0
ENDCHAR
STARTCHAR uni04E0
ENCODING -1
SWIDTH 600 0
DWIDTH 19 0
BBX 15 23 2 0
BITMAP
7FFC
7FFC
7FFC
0038
0070
00E0
01C0
0380
0700
0E00
0FE0
0FF8
007C
001C
000E
000E
000E
000E
001E
803C
FFF8
FFF0
3FC0
ENDCHAR
STARTCHAR uni04E1
ENCODING -1
SWIDTH 600 0
DWIDTH 19 0
BBX 14 25 3 -8
BITMAP
FFF8
FFF8
0038
0070
00E0
01C0
0380
0700
0E00
1E00
1FC0
1FE0
00F0
0038
001C
001C
001C
001C
001C
001C
0038
0078
F1F0
FFE0
3F80
ENDCHAR
STARTCHAR uni04E2
ENCODING -1
SWIDTH 600 0
DWIDTH 19 0
BBX 15 27 2 0
BITMAP
1FF0
1FF0
0000
0000
E01E
E01E
E03E
E03E
E076
E07E
E06E
E0EE
E0CE
E1CE
E18E
E38E
E30E
E70E
E60E
EE0E
EC0E
FC0E
FC0E
F80E
F80E
F00E
F00E
ENDCHAR
STARTCHAR uni04E3
ENCODING -1
SWIDTH 600 0
DWIDTH 19 0
BBX 13 21 3 0
BITMAP
3FE0
3FE0
0000
0000
E078
E078
E0F8
E0F8
E1F8
E1B8
E3B8
E338
E738
E638
EE38
EC38
FC38
F838
F838
F038
F038
ENDCHAR
STARTCHAR uni04E4
ENCODING -1
SWIDTH 600 0
DWIDTH 19 0
BBX 15 28 2 0
BITMAP
1C70
1C70
1C70
0000
0000
E01E
E01E
E03E
E03E
E076
E07E
E06E
E0EE
E0CE
E1CE
E18E
E38E
E30E
E70E
E60E
EE0E
EC0E
FC0E
FC0E
F80E
F80E
F00E
F00E
ENDCHAR
STARTCHAR uni04E5
ENCODING -1
SWIDTH 600 0
DWIDTH 19 0
BBX 13 23 3 0
BITMAP
38E0
38E0
38E0
0000
0000
0000
E078
E078
E0F8
E0F8
E1F8
E1B8
E3B8
E338
E738
E638
EE38
EC38
FC38
F838
F838
F038
F038
ENDCHAR
STARTCHAR uni04E6
ENCODING -1
SWIDTH 600 0
DWIDTH 19 0
BBX 17 28 1 0
BITMAP
0E3800
0E3800
0E3800
000000
000000
07F000
1FF800
3FFC00
3C1E00
780F00
700700
700700
E00380
E00380
E00380
E00380
E00380
E00380
E00380
E00380
E00380
700700
700700
780F00
3C1E00
3FFC00
1FF800
07F000
ENDCHAR
STARTCHAR uni04E7
ENCODING -1
SWIDTH 600 0
DWIDTH 19 0
BBX 15 23 2 0
BITMAP
1C70
1C70
1C70
0000
0000
0000
07C0
1FF0
3EF8
701C
701C
E00E
E00E
E00E
E00E
E00E
E00E
E00E
701C
701C
3EF8
1FF0
07C0
ENDCHAR
STARTCHAR uni04E8
ENCODING -1
SWIDTH 600 0
DWIDTH 19 0
BBX 17 23 1 0
BITMAP
07F000
0FF800
3FFC00
380E00
780F00
700700
700700
E00380
E00380
E00380
FFFF80
FFFF80
E00380
E00380
E00380
E00380
700700
700700
780F00
380E00
3FFC00
0FF800
07E000
ENDCHAR
STARTCHAR uni04E9
ENCODING -1
SWIDTH 600 0
DWIDTH 19 0
BBX 15 17 2 0
BITMAP
07C0
1FF0
3EF8
701C
701C
E00E
E00E
FFFE
FFFE
E00E
E00E
E00E
701C
701C
3EF8
1FF0
07C0
ENDCHAR
STARTCHAR uni04EA
ENCODING -1
SWIDTH 600 0
DWIDTH 19 0
BBX 17 28 1 0
BITMAP
0E3800
0E3800
0E3800
000000
000000
07F000
0FF800
3FFC00
380E00
780F00
700700
700700
E00380
E00380
E00380
FFFF80
FFFF80
E00380
E00380
E00380
E00380
700700
700700
780F00
380E00
3FFC00
0FF800
07E000
ENDCHAR
STARTCHAR uni04EB
ENCODING -1
SWIDTH 600 0
DWIDTH 19 0
BBX 15 23 2 0
BITMAP
1C70
1C70
1C70
0000
0000
0000
07C0
1FF0
3EF8
701C
701C
E00E
E00E
FFFE
FFFE
E00E
E00E
E00E
701C
701C
3EF8
1FF0
07C0
ENDCHAR
STARTCHAR uni04EC
ENCODING -1
SWIDTH 600 0
DWIDTH 19 0
BBX 16 28 1 0
BITMAP
38E0
38E0
38E0
0000
0000
3F80
FFF0
FFF8
407C
001C
001E
000E
000F
0007
0007
1FFF
1FFF
1FFF
0007
0007
000E
000E
000E
001C
007C
FFF8
FFE0
7F80
ENDCHAR
STARTCHAR uni04ED
ENCODING -1
SWIDTH 600 0
DWIDTH 19 0
BBX 13 23 3 0
BITMAP
71C0
71C0
71C0
0000
0000
0000
7F00
FFC0
FFE0
00F0
0070
0038
0038
3FF8
3FF8
0038
0038
0038
0070
00F0
FFE0
FFC0
7F00
ENDCHAR
STARTCHAR uni04EE
ENCODING -1
SWIDTH 600 0
DWIDTH 19 0
BBX 19 27 0 0
BITMAP
07FC00
07FC00
000000
000000
E000E0
7001C0
7001C0
380380
380380
1C0380
1C0700
0E0700
0E0E00
070E00
071C00
039C00
039800
01F800
01F800
00F000
00F000
00E000
00E000
01C000
7F8000
7F0000
7E0000
ENDCHAR
STARTCHAR uni04EF
ENCODING -1
SWIDTH 600 0
DWIDTH 19 0
BBX 17 29 1 -8
BITMAP
0FF800
0FF800
000000
000000
E00380
700700
700700
700700
380E00
380E00
1C1C00
1C1C00
0C1C00
0E3800
0E3800
077000
077000
037000
03E000
01E000
01C000
01C000
01C000
038000
038000
070000
1F0000
FE0000
F80000
ENDCHAR
STARTCHAR uni04F0
ENCODING -1
SWIDTH 600 0
DWIDTH 19 0
BBX 19 28 0 0
BITMAP
071C00
071C00
071C00
000000
000000
E000E0
7001C0
7001C0
380380
380380
1C0380
1C0700
0E0700
0E0E00
070E00
071C00
039C00
039800
01F800
01F800
00F000
00F000
00E000
00E000
01C000
7F8000
7F0000
7E0000
ENDCHAR
STARTCHAR uni04F1
ENCODING -1
SWIDTH 600 0
DWIDTH 19 0
BBX 17 31 1 -8
BITMAP
0E3800
0E3800
0E3800
000000
000000
000000
E00380
700700
700700
700700
380E00
380E00
1C1C00
1C1C00
0C1C00
0E3800
0E3800
077000
077000
037000
03E000
01E000
01C000
01C000
01C000
038000
038000
070000
1F0000
FE0000
F80000
ENDCHAR
STARTCHAR uni04F2
ENCODING -1
SWIDTH 600 0
DWIDTH 19 0
BBX 19 30 0 0
BITMAP
01E780
01C700
038E00
030C00
061800
000000
000000
E000E0
7001C0
7001C0
380380
380380
1C0380
1C0700
0E0700
0E0E00
070E00
071C00
039C00
039800
01F800
01F800
00F000
00F000
00E000
00E000
01C000
7F8000
7F0000
7E0000
ENDCHAR
STARTCHAR uni04F3
ENCODING -1
SWIDTH 600 0
DWIDTH 19 0
BBX 17 32 1 -8
BITMAP
03CF00
038E00
071C00
061800
0C3000
000000
000000
E00380
700700
700700
700700
380E00
380E00
1C1C00
1C1C00
0C1C00
0E3800
0E3800
077000
077000
037000
03E000
01E000
01C000
01C000
01C000
038000
038000
070000
1F0000
FE0000
F80000
ENDCHAR
STARTCHAR uni04F4
ENCODING -1
SWIDTH 600 0
DWIDTH 19 0
BBX 15 28 2 0
BITMAP
1C70
1C70
1C70
0000
0000
E00E
E00E
E00E
E00E
E00E
E00E
E00E
E00E
E00E
E00E
E00E
F01E
7FFE
7FFE
1F8E
000E
000E
000E
000E
000E
000E
000E
000E
ENDCHAR
STARTCHAR uni04F5
ENCODING -1
SWIDTH 600 0
DWIDTH 19 0
BBX 14 23 2 0
BITMAP
1C70
1C70
1C70
0000
0000
0000
E01C
E01C
E01C
E01C
E01C
E01C
E01C
E03C
F9FC
7FDC
1F1C
001C
001C
001C
001C
001C
001C
ENDCHAR
STARTCHAR uni04F6
ENCODING -1
SWIDTH 600 0
DWIDTH 19 0
BBX 12 29 5 -6
BITMAP
FFF0
FFF0
FFF0
E000
E000
E000
E000
E000
E000
E000
E000
E000
E000
E000
E000
E000
E000
E000
E000
E000
FC00
FC00
FC00
1C00
1C00
1C00
1C00
1C00
1C00
ENDCHAR
STARTCHAR uni04F7
ENCODING -1
SWIDTH 600 0
DWIDTH 19 0
BBX 11 23 5 -6
BITMAP
FFE0
FFE0
E000
E000
E000
E000
E000
E000
E000
E000
E000
E000
E000
E000
E000
FC00
FC00
1C00
1C00
1C00
1C00
1C00
1C00
ENDCHAR
STARTCHAR uni04F8
ENCODING -1
SWIDTH 600 0
DWIDTH 19 0
BBX 15 28 2 0
BITMAP
1C70
1C70
1C70
0000
0000
E00E
E00E
E00E
E00E
E00E
E00E
E00E
E00E
E00E
E00E
FE0E
FF8E
FFCE
E1CE
E0EE
E0EE
E0EE
E0EE
E0EE
E1CE
EFCE
FF8E
FE0E
ENDCHAR
STARTCHAR uni04F9
ENCODING -1
SWIDTH 600 0
DWIDTH 19 0
BBX 15 23 2 0
BITMAP
1C70
1C70
1C70
0000
0000
0000
C006
C006
C006
C006
C006
C006
C006
FF06
FFC6
C3C6
C0E6
C066
C066
C0E6
C3C6
FFC6
FF06
ENDCHAR
STARTCHAR uni04FA
ENCODING -1
SWIDTH 600 0
DWIDTH 19 0
BBX 14 29 3 -6
BITMAP
3FFC
3FFC
3FFC
3800
3800
3800
3800
3800
3800
3800
FFC0
FFC0
FFC0
3800
3800
3800
3800
3800
3800
3800
3E00
3E00
3E00
0600
0600
0600
3E00
3E00
3C00
ENDCHAR
STARTCHAR uni04FB
ENCODING -1
SWIDTH 600 0
DWIDTH 19 0
BBX 13 23 3 -6
BITMAP
3FF8
3FF8
3800
3800
3800
3800
3800
FF80
FF80
3800
3800
3800
3800
3800
3800
3E00
3E00
0600
0600
0600
0E00
3E00
3C00
ENDCHAR
STARTCHAR uni04FC
ENCODING -1
SWIDTH 600 0
DWIDTH 19 0
BBX 18 29 1 -6
BITMAP
E00700
700E00
780E00
381C00
1C1800
1C3800
0E7000
0F7000
07E000
03E000
03C000
03C000
03E000
07E000
067000
0E3800
0C3800
1C1C00
381C00
380E00
700FC0
7007C0
E007C0
0000C0
0000C0
0000C0
0005C0
0007C0
000780
ENDCHAR
STARTCHAR uni04FD
ENCODING -1
SWIDTH 600 0
DWIDTH 19 0
BBX 16 23 2 -6
BITMAP
701C
781C
3838
1C70
1C70
0EE0
07C0
07C0
0380
07C0
0EE0
0EE0
1C70
3838
3838
701F
F01F
0003
0003
0003
0003
001F
001E
ENDCHAR
STARTCHAR uni04FE
ENCODING -1
SWIDTH 600 0
DWIDTH 19 0
BBX 17 23 1 0
BITMAP
E00380
700700
700700
380E00
1C1C00
1C1C00
0E3800
0E3800
077000
03E000
3FFE00
3FFE00
3FFE00
03E000
077000
0E3800
0E3800
1C1C00
181E00
380E00
700700
700700
E00380
ENDCHAR
STARTCHAR uni04FF
ENCODING -1
SWIDTH 600 0
DWIDTH 19 0
BBX 16 17 2 0
BITMAP
F00F
700E
381C
1C38
0E70
0EF0
07E0
7FFE
7FFE
07E0
07E0
0E70
1C38
3C38
381C
700E
F00F
ENDCHAR
STARTCHAR uni0500
ENCODING -1
SWIDTH 600 0
DWIDTH 19 0
BBX 14 23 2 0
BITMAP
001C
001C
001C
001C
001C
001C
001C
001C
001C
001C
07FC
3FFC
7FFC
701C
F01C
E01C
E01C
E01C
F01C
701C
7F1C
3FFC
0FFC
ENDCHAR
STARTCHAR uni0501
ENCODING -1
SWIDTH 600 0
DWIDTH 19 0
BBX 15 24 2 0
BITMAP
000E
000E
000E
000E
000E
000E
000E
0FCE
1FEE
3EFE
701E
701E
E00E
E00E
E00E
E00E
E00E
E00E
E00E
701E
701E
3EFE
1FEE
0F86
ENDCHAR
STARTCHAR uni0502
ENCODING -1
SWIDTH 600 0
DWIDTH 19 0
BBX 17 23 1 0
BITMAP
00E000
00E000
00E000
00E000
00E000
00E000
00E000
00E000
00E000
00E000
0FE380
3FE380
7FE380
F0E380
E0E380
E0E380
E0E380
E0E380
E0E380
E0E380
7FFF80
7FBF00
1E1E00
ENDCHAR
STARTCHAR uni0503
ENCODING -1
SWIDTH 600 0
DWIDTH 19 0
BBX 17 24 1 0
BITMAP
00E000
00E000
00E000
00E000
00E000
00E000
00E000
1EE000
3FE000
7BE000
71E000
E0E000
E0E000
E0E380
E0E380
E0E380
E0E380
E0E380
E0E380
E0E380
71E380
7B7700
7F3F00
1E1E00
ENDCHAR
STARTCHAR uni0504
ENCODING -1
SWIDTH 600 0
DWIDTH 19 0
BBX 16 23 1 0
BITMAP
3E00
FF00
FF80
0380
01C0
01C0
01C0
0180
0180
0300
3E07
3F07
0387
0187
01C7
01C7
01C7
01C7
01C7
01C7
00FE
00FE
007C
ENDCHAR
STARTCHAR uni0505
ENCODING -1
SWIDTH 600 0
DWIDTH 19 0
BBX 16 17 1 0
BITMAP
7E00
FF80
6380
01C0
01C0
01C0
0387
3F07
3F07
0787
01C7
01C7
01C7
01C7
00FE
00FE
007C
ENDCHAR
STARTCHAR uni0506
ENCODING -1
SWIDTH 600 0
DWIDTH 19 0
BBX 17 29 1 -6
BITMAP
0FC000
7FF000
FFF800
603C00
001C00
001C00
001C00
001C00
003800
00F000
3FC000
3FE000
00F000
003800
001C00
001C00
001C00
001C00
001C00
001C00
001F80
001F80
001F80
000380
000380
000380
000380
000380
000380
ENDCHAR
STARTCHAR uni0507
ENCODING -1
SWIDTH 600 0
DWIDTH 19 0
BBX 16 23 1 -6
BITMAP
3F80
FFE0
71F0
0070
0070
0070
00E0
1FC0
1FC0
00F0
0038
0038
0038
0038
0038
003F
003F
0007
0007
0007
0007
0007
0007
ENDCHAR
STARTCHAR uni0508
ENCODING -1
SWIDTH 600 0
DWIDTH 19 0
BBX 18 23 0 0
BITMAP
0FF000
0FF000
0FF000
0C7000
0C7000
1C7000
1C7000
1C7000
1C7000
187000
1871C0
1871C0
1871C0
1871C0
1871C0
1871C0
3871C0
3871C0
3871C0
3071C0
F03F80
F03F80
E01F00
ENDCHAR
STARTCHAR uni0509
ENCODING -1
SWIDTH 600 0
DWIDTH 19 0
BBX 18 17 0 0
BITMAP
0FF000
1FF000
1C7000
1C7000
1C7000
1C7000
1C71C0
1C71C0
1871C0
1871C0
1871C0
3871C0
3871C0
3871C0
707B80
F03F80
E01F00
ENDCHAR
STARTCHAR uni050A
ENCODING -1
SWIDTH 600 0
DWIDTH 19 0
BBX 16 23 2 0
BITMAP
E1C0
E1C0
E1C0
E1C0
E1C0
E1C0
E1C0
E1C0
E1C0
E1C0
FFC7
FFC7
FFC7
E1C7
E1C7
E1C7
E1C7
E1C7
E1C7
E1C7
E1FE
E0FE
E07C
ENDCHAR
STARTCHAR uni050B
ENCODING -1
SWIDTH 600 0
DWIDTH 19 0
BBX 16 17 2 0
BITMAP
C180
C180
C180
C180
C180
C180
C183
FF83
FF83
C183
C183
C183
C1C7
C1C7
C1EE
C0FE
C07C
ENDCHAR
STARTCHAR uni050C
ENCODING -1
SWIDTH 600 0
DWIDTH 19 0
BBX 16 23 2 0
BITMAP
03F8
0FFE
1FFE
3C04
3800
7000
7000
F000
E000
E000
E000
E07F
E07F
E07F
E007
E007
7007
7007
780E
3C0E
1FFC
0FFC
03F0
ENDCHAR
STARTCHAR uni050D
ENCODING -1
SWIDTH 600 0
DWIDTH 19 0
BBX 15 17 2 0
BITMAP
07F0
1FFC
3E38
7800
7000
E000
E000
E000
E0FE
E0FE
E00E
E00E
700E
781C
3E3C
1FF8
07E0
ENDCHAR
STARTCHAR uni050E
ENCODING -1
SWIDTH 600 0
DWIDTH 19 0
BBX 18 23 0 0
BITMAP
FFFF00
FFFF00
FFFF00
01C000
01C000
01C000
01C000
01C000
01C000
01C000
01C1C0
01C1C0
01C1C0
01C1C0
01C1C0
01C1C0
01C1C0
01C1C0
01C1C0
01E1C0
00FF80
00FF80
003E00
ENDCHAR
STARTCHAR uni050F
ENCODING -1
SWIDTH 600 0
DWIDTH 19 0
BBX 17 17 1 0
BITMAP
FFF800
FFF800
070000
070000
070000
070000
070380
070380
070380
070380
070380
070380
070380
070380
03CF00
01FF00
00FC00
ENDCHAR
STARTCHAR uni0510
ENCODING -1
SWIDTH 600 0
DWIDTH 19 0
BBX 14 23 3 0
BITMAP
07E0
1FF8
3FFC
7818
7000
7000
7000
7000
3800
1C00
07F0
0FF0
3E00
7000
6000
E000
E000
E000
F000
7004
7FFC
3FFC
0FF0
ENDCHAR
STARTCHAR uni0511
ENCODING -1
SWIDTH 600 0
DWIDTH 19 0
BBX 13 17 3 0
BITMAP
0FE0
3FF8
7C78
7000
7000
7000
3800
1FC0
1FC0
7C00
E000
E000
E000
E000
7C78
3FF8
0FE0
ENDCHAR
STARTCHAR uni0512
ENCODING -1
SWIDTH 600 0
DWIDTH 19 0
BBX 17 23 0 0
BITMAP
01FF80
01FF80
01FF80
01C380
03C380
03C380
038380
038380
038380
038380
038380
078380
078380
070380
070380
070380
0F0380
0E0380
0E0380
1E0380
FC0380
FC0380
F80380
ENDCHAR
STARTCHAR uni0513
ENCODING -1
SWIDTH 600 0
DWIDTH 19 0
BBX 16 17 0 0
BITMAP
07FF
07FF
0607
0607
0607
0E07
0E07
0E07
0E07
0E07
0C07
1C07
1C07
1807
3807
F007
E007
ENDCHAR
STARTCHAR uni1EA0
ENCODING -1
SWIDTH 600 0
DWIDTH 19 0
BBX 17 28 1 -5
BITMAP
01C000
01E000
03E000
036000
036000
077000
077000
063000
0E3800
0E3800
0E1800
1C1C00
1C1C00
1FFC00
1FFC00
3FFE00
380E00
380600
700700
700700
700700
E00380
E00380
000000
000000
01C000
01C000
01C000
ENDCHAR
STARTCHAR uni1EA1
ENCODING -1
SWIDTH 600 0
DWIDTH 19 0
BBX 14 22 2 -5
BITMAP
0FE0
7FF8
3CF8
203C
001C
001C
001C
07FC
3FFC
781C
F01C
E01C
E01C
E03C
F8FC
7FCC
1F8C
0000
0000
0380
0380
0380
ENDCHAR
STARTCHAR uni1EA2
ENCODING -1
SWIDTH 600 0
DWIDTH 19 0
BBX 17 32 1 0
BITMAP
03E000
03F000
003000
007000
01E000
018000
018000
000000
000000
01C000
01E000
03E000
036000
036000
077000
077000
063000
0E3800
0E3800
0E1800
1C1C00
1C1C00
1FFC00
1FFC00
3FFE00
380E00
380600
700700
700700
700700
E00380
E00380
ENDCHAR
STARTCHAR uni1EA3
ENCODING -1
SWIDTH 600 0
DWIDTH 19 0
BBX 14 26 2 0
BITMAP
07C0
07E0
0060
00E0
03C0
0300
0300
0000
0000
0FE0
7FF8
3CF8
203C
001C
001C
001C
07FC
3FFC
781C
F01C
E01C
E01C
E03C
F8FC
7FCC
1F8C
ENDCHAR
STARTCHAR uni1EA4
ENCODING -1
SWIDTH 600 0
DWIDTH 19 0
BBX 18 32 1 0
BITMAP
0001C0
000380
000300
01E600
03F000
073800
0E0C00
000000
000000
01C000
01E000
03E000
036000
036000
077000
077000
063000
0E3800
0E3800
0E1800
1C1C00
1C1C00
1FFC00
1FFC00
3FFE00
380E00
380600
700700
700700
700700
E00380
E00380
ENDCHAR
STARTCHAR uni1EA5
ENCODING -1
SWIDTH 600 0
DWIDTH 19 0
BBX 17 26 2 0
BITMAP
000380
000700
000600
03CC00
07E000
0E7000
1C1800
000000
000000
0FE000
7FF800
3CF800
203C00
001C00
001C00
001C00
07FC00
3FFC00
781C00
F01C00
E01C00
E01C00
E03C00
F8FC00
7FCC00
1F8C00
ENDCHAR
STARTCHAR uni1EA6
ENCODING -1
SWIDTH 600 0
DWIDTH 19 0
BBX 17 32 1 0
BITMAP
E00000
700000
300000
19E000
03F000
073800
0C0C00
000000
000000
01C000
01E000
03E000
036000
036000
077000
077000
063000
0E3800
0E3800
0E1800
1C1C00
1C1C00
1FFC00
1FFC00
3FFE00
380E00
380600
700700
700700
700700
E00380
E00380
ENDCHAR
STARTCHAR uni1EA7
ENCODING -1
SWIDTH 600 0
DWIDTH 19 0
BBX 15 26 1 0
BITMAP
E000
7000
3000
19E0
03F0
0738
0C0C
0000
0000
07F0
3FFC
1E7C
101E
000E
000E
000E
03FE
1FFE
3C0E
780E
700E
700E
701E
7C7E
3FE6
0FC6
ENDCHAR
STARTCHAR uni1EA8
ENCODING -1
SWIDTH 600 0
DWIDTH 19 0
BBX 17 34 1 0
BITMAP
000E00
000F00
000300
000300
000600
01E600
03F000
073800
0E1C00
000000
000000
01C000
01E000
03E000
036000
036000
077000
077000
063000
0E3800
0E3800
0E1800
1C1C00
1C1C00
1FFC00
1FFC00
3FFE00
380E00
380600
700700
700700
700700
E00380
E00380
ENDCHAR
STARTCHAR uni1EA9
ENCODING -1
SWIDTH 600 0
DWIDTH 19 0
BBX 15 28 2 0
BITMAP
001C
001E
0006
0006
000C
03CC
07E0
0E70
1C38
0000
0000
0FE0
7FF8
3CF8
203C
001C
001C
001C
07FC
3FFC
781C
F01C
E01C
E01C
E03C
F8FC
7FCC
1F8C
ENDCHAR
STARTCHAR uni1EAA
ENCODING -1
SWIDTH 600 0
DWIDTH 19 0
BBX 17 33 1 0
BITMAP
07CC00
0FFC00
0C7800
000000
01E000
03F000
073800
0C1C00
000000
000000
01C000
01E000
03E000
036000
036000
077000
077000
063000
0E3800
0E3800
0E1800
1C1C00
1C1C00
1FFC00
1FFC00
3FFE00
380E00
380600
700700
700700
700700
E00380
E00380
ENDCHAR
STARTCHAR uni1EAB
ENCODING -1
SWIDTH 600 0
DWIDTH 19 0
BBX 14 27 2 0
BITMAP
0F98
1FF8
18F0
0000
03C0
07E0
0E70
1838
0000
0000
0FE0
7FF8
3CF8
203C
001C
001C
001C
07FC
3FFC
781C
F01C
E01C
E01C
E03C
F8FC
7FCC
1F8C
ENDCHAR
STARTCHAR uni1EAC
ENCODING -1
SWIDTH 600 0
DWIDTH 19 0
BBX 17 35 1 -5
BITMAP
00E000
01F000
03B000
071800
0E0C00
000000
000000
01C000
01E000
03E000
036000
036000
077000
077000
063000
0E3800
0E3800
0E1800
1C1C00
1C1C00
1FFC00
1FFC00
3FFE00
380E00
380600
700700
700700
700700
E00380
E00380
000000
000000
01C000
01C000
01C000
ENDCHAR
STARTCHAR uni1EAD
ENCODING -1
SWIDTH 600 0
DWIDTH 19 0
BBX 14 29 2 -5
BITMAP
01C0
03E0
0760
0E30
1C18
0000
0000
0FE0
7FF8
3CF8
203C
001C
001C
001C
07FC
3FFC
781C
F01C
E01C
E01C
E03C
F8FC
7FCC
1F8C
0000
0000
0380
0380
0380
ENDCHAR
STARTCHAR uni1EAE
ENCODING -1
SWIDTH 600 0
DWIDTH 19 0
BBX 17 33 1 0
BITMAP
007000
00E000
00C000
018000
0C1800
0C1800
07F000
03E000
000000
000000
01C000
01E000
03E000
036000
036000
077000
077000
063000
0E3800
0E3800
0E1800
1C1C00
1C1C00
1FFC00
1FFC00
3FFE00
380E00
380600
700700
700700
700700
E00380
E00380
ENDCHAR
STARTCHAR uni1EAF
ENCODING -1
SWIDTH 600 0
DWIDTH 19 0
BBX 14 27 2 0
BITMAP
00E0
01C0
0180
0300
1830
1830
0FE0
07C0
0000
0000
0FE0
7FF8
3CF8
203C
001C
001C
001C
07FC
3FFC
781C
F01C
E01C
E01C
E03C
F8FC
7FCC
1F8C
ENDCHAR
STARTCHAR uni1EB0
ENCODING -1
SWIDTH 600 0
DWIDTH 19 0
BBX 17 33 1 0
BITMAP
070000
038000
018000
00C000
0C1800
0C1800
07F000
03E000
000000
000000
01C000
01E000
03E000
036000
036000
077000
077000
063000
0E3800
0E3800
0E1800
1C1C00
1C1C00
1FFC00
1FFC00
3FFE00
380E00
380600
700700
700700
700700
E00380
E00380
ENDCHAR
STARTCHAR uni1EB1
ENCODING -1
SWIDTH 600 0
DWIDTH 19 0
BBX 14 27 2 0
BITMAP
0E00
0700
0300
0180
1830
1830
0FE0
07C0
0000
0000
0FE0
7FF8
3CF8
203C
001C
001C
001C
07FC
3FFC
781C
F01C
E01C
E01C
E03C
F8FC
7FCC
1F8C
ENDCHAR
STARTCHAR uni1EB2
ENCODING -1
SWIDTH 600 0
DWIDTH 19 0
BBX 17 34 1 0
BITMAP
01C000
01E000
006000
00E000
008000
0C1800
0E3800
07F000
03E000
000000
000000
01C000
01E000
03E000
036000
036000
077000
077000
063000
0E3800
0E3800
0E1800
1C1C00
1C1C00
1FFC00
1FFC00
3FFE00
380E00
380600
700700
700700
700700
E00380
E00380
ENDCHAR
STARTCHAR uni1EB3
ENCODING -1
SWIDTH 600 0
DWIDTH 19 0
BBX 14 28 2 0
BITMAP
0380
03C0
00C0
01C0
0100
1830
1C70
0FE0
07C0
0000
0000
0FE0
7FF8
3CF8
203C
001C
001C
001C
07FC
3FFC
781C
F01C
E01C
E01C
E03C
F8FC
7FCC
1F8C
ENDCHAR
STARTCHAR uni1EB4
ENCODING -1
SWIDTH 600 0
DWIDTH 19 0
BBX 17 33 1 0
BITMAP
079800
0FF800
0CF000
000000
0C1800
0E3800
07F000
03E000
000000
000000
01C000
01E000
03E000
036000
036000
077000
077000
063000
0E3800
0E3800
0E1800
1C1C00
1C1C00
1FFC00
1FFC00
3FFE00
380E00
380600
700700
700700
700700
E00380
E00380
ENDCHAR
STARTCHAR uni1EB5
ENCODING -1
SWIDTH 600 0
DWIDTH 19 0
BBX 14 27 2 0
BITMAP
0F30
1FF0
19E0
0000
1830
1C70
0FE0
07C0
0000
0000
0FE0
7FF8
3CF8
203C
001C
001C
001C
07FC
3FFC
781C
F01C
E01C
E01C
E03C
F8FC
7FCC
1F8C
ENDCHAR
STARTCHAR uni1EB6
ENCODING -1
SWIDTH 600 0
DWIDTH 19 0
BBX 17 34 1 -5
BITMAP
0C1800
0E7800
07F000
03E000
000000
000000
01C000
01E000
03E000
036000
036000
077000
077000
063000
0E3800
0E3800
0E1800
1C1C00
1C1C00
1FFC00
1FFC00
3FFE00
380E00
380600
700700
700700
700700
E00380
E00380
000000
000000
01C000
01C000
01C000
ENDCHAR
STARTCHAR uni1EB7
ENCODING -1
SWIDTH 600 0
DWIDTH 19 0
BBX 14 28 2 -5
BITMAP
1830
1CF0
0FE0
07C0
0000
0000
0FE0
7FF8
3CF8
203C
001C
001C
001C
07FC
3FFC
781C
F01C
E01C
E01C
E03C
F8FC
7FCC
1F8C
0000
0000
0380
0380
0380
ENDCHAR
STARTCHAR uni1EB8
ENCODING -1
SWIDTH 600 0
DWIDTH 19 0
BBX 13 28 3 -5
BITMAP
FFF8
FFF8
FFF8
E000
E000
E000
E000
E000
E000
E000
FFF0
FFF0
FFF0
E000
E000
E000
E000
E000
E000
E000
FFF8
FFF8
FFF8
0000
0000
0700
0700
0700
ENDCHAR
STARTCHAR uni1EB9
ENCODING -1
SWIDTH 600 0
DWIDTH 19 0
BBX 15 22 2 -5
BITMAP
07E0
1FF0
3E78
701C
700E
E00E
E00E
FFFE
FFFE
E000
E000
E000
7000
7800
3FFC
1FFC
07F0
0000
0000
01C0
01C0
01C0
ENDCHAR
STARTCHAR uni1EBA
ENCODING -1
SWIDTH 600 0
DWIDTH 19 0
BBX 13 32 3 0
BITMAP
0F80
0FC0
00C0
01C0
0780
0600
0600
0000
0000
FFF8
FFF8
FFF8
E000
E000
E000
E000
E000
E000
E000
FFF0
FFF0
FFF0
E000
E000
E000
E000
E000
E000
E000
FFF8
FFF8
FFF8
ENDCHAR
STARTCHAR uni1EBB
ENCODING -1
SWIDTH 600 0
DWIDTH 19 0
BBX 15 26 2 0
BITMAP
03E0
03F0
0030
0070
01E0
0180
0180
0000
0000
07E0
1FF0
3E78
701C
700E
E00E
E00E
FFFE
FFFE
E000
E000
E000
7000
7800
3FFC
1FFC
07F0
ENDCHAR
STARTCHAR uni1EBC
ENCODING -1
SWIDTH 600 0
DWIDTH 19 0
BBX 13 29 3 0
BITMAP
1C30
3F70
77E0
61C0
0000
0000
FFF8
FFF8
FFF8
E000
E000
E000
E000
E000
E000
E000
FFF0
FFF0
FFF0
E000
E000
E000
E000
E000
E000
E000
FFF8
FFF8
FFF8
ENDCHAR
STARTCHAR uni1EBD
ENCODING -1
SWIDTH 600 0
DWIDTH 19 0
BBX 15 23 2 0
BITMAP
070C
0FDC
1DF8
1870
0000
0000
07E0
1FF0
3E78
701C
700E
E00E
E00E
FFFE
FFFE
E000
E000
E000
7000
7800
3FFC
1FFC
07F0
ENDCHAR
STARTCHAR uni1EBE
ENCODING -1
SWIDTH 600 0
DWIDTH 19 0
BBX 15 32 3 0
BITMAP
000E
001C
0018
0F30
1F80
39C0
7060
0000
0000
FFF8
FFF8
FFF8
E000
E000
E000
E000
E000
E000
E000
FFF0
FFF0
FFF0
E000
E000
E000
E000
E000
E000
E000
FFF8
FFF8
FFF8
ENDCHAR
STARTCHAR uni1EBF
ENCODING -1
SWIDTH 600 0
DWIDTH 19 0
BBX 17 26 2 0
BITMAP
000380
000700
000600
03CC00
07E000
0E7000
1C1800
000000
000000
07E000
1FF000
3E7800
701C00
700E00
E00E00
E00E00
FFFE00
FFFE00
E00000
E00000
E00000
700000
780000
3FFC00
1FFC00
07F000
ENDCHAR
STARTCHAR uni1EC0
ENCODING -1
SWIDTH 600 0
DWIDTH 19 0
BBX 15 32 1 0
BITMAP
E000
7000
3000
19E0
03F0
0738
0C0C
0000
0000
3FFE
3FFE
3FFE
3800
3800
3800
3800
3800
3800
3800
3FFC
3FFC
3FFC
3800
3800
3800
3800
3800
3800
3800
3FFE
3FFE
3FFE
ENDCHAR
STARTCHAR uni1EC1
ENCODING -1
SWIDTH 600 0
DWIDTH 19 0
BBX 16 26 1 0
BITMAP
E000
7000
3000
19E0
03F0
0738
0C0C
0000
0000
03F0
0FF8
1F3C
380E
3807
7007
7007
7FFF
7FFF
7000
7000
7000
3800
3C00
1FFE
0FFE
03F8
ENDCHAR
STARTCHAR uni1EC2
ENCODING -1
SWIDTH 600 0
DWIDTH 19 0
BBX 14 34 3 0
BITMAP
0038
003C
000C
000C
0018
0798
0FC0
1CE0
3870
0000
0000
FFF8
FFF8
FFF8
E000
E000
E000
E000
E000
E000
E000
FFF0
FFF0
FFF0
E000
E000
E000
E000
E000
E000
E000
FFF8
FFF8
FFF8
ENDCHAR
STARTCHAR uni1EC3
ENCODING -1
SWIDTH 600 0
DWIDTH 19 0
BBX 15 28 2 0
BITMAP
001C
001E
0006
0006
000C
03CC
07E0
0E70
1C38
0000
0000
07E0
1FF0
3E78
701C
700E
E00E
E00E
FFFE
FFFE
E000
E000
E000
7000
7800
3FFC
1FFC
07F0
ENDCHAR
STARTCHAR uni1EC4
ENCODING -1
SWIDTH 600 0
DWIDTH 19 0
BBX 13 33 3 0
BITMAP
1F30
3FF0
31E0
0000
0780
0FC0
1CE0
3070
0000
0000
FFF8
FFF8
FFF8
E000
E000
E000
E000
E000
E000
E000
FFF0
FFF0
FFF0
E000
E000
E000
E000
E000
E000
E000
FFF8
FFF8
FFF8
ENDCHAR
STARTCHAR uni1EC5
ENCODING -1
SWIDTH 600 0
DWIDTH 19 0
BBX 15 27 2 0
BITMAP
0F98
1FF8
18F0
0000
03C0
07E0
0E70
1838
0000
0000
07E0
1FF0
3E78
701C
700E
E00E
E00E
FFFE
FFFE
E000
E000
E000
7000
7800
3FFC
1FFC
07F0
ENDCHAR
STARTCHAR uni1EC6
ENCODING -1
SWIDTH 600 0
DWIDTH 19 0
BBX 13 35 3 -5
BITMAP
0380
07C0
0EC0
1C60
3830
0000
0000
FFF8
FFF8
FFF8
E000
E000
E000
E000
E000
E000
E000
FFF0
FFF0
FFF0
E000
E000
E000
E000
E000
E000
E000
FFF8
FFF8
FFF8
0000
0000
0700
0700
0700
ENDCHAR
STARTCHAR uni1EC7
ENCODING -1
SWIDTH 600 0
DWIDTH 19 0
BBX 15 29 2 -5
BITMAP
01C0
03E0
0760
0E30
1C18
0000
0000
07E0
1FF0
3E78
701C
700E
E00E
E00E
FFFE
FFFE
E000
E000
E000
7000
7800
3FFC
1FFC
07F0
0000
0000
01C0
01C0
01C0
ENDCHAR
STARTCHAR uni1EC8
ENCODING -1
SWIDTH 600 0
DWIDTH 19 0
BBX 13 32 3 0
BITMAP
0F80
0FC0
00C0
01C0
0780
0600
0600
0000
0000
FFF8
FFF8
0700
0700
0700
0700
0700
0700
0700
0700
0700
0700
0700
0700
0700
0700
0700
0700
0700
0700
0700
FFF8
FFF8
ENDCHAR
STARTCHAR uni1EC9
ENCODING -1
SWIDTH 600 0
DWIDTH 19 0
BBX 13 26 3 0
BITMAP
0F80
0FC0
00C0
01C0
0780
0600
0600
0000
0000
7F00
7F00
0700
0700
0700
0700
0700
0700
0700
0700
0700
0700
0700
0700
0700
FFF8
FFF8
ENDCHAR
STARTCHAR uni1ECA
ENCODING -1
SWIDTH 600 0
DWIDTH 19 0
BBX 13 28 3 -5
BITMAP
FFF8
FFF8
0700
0700
0700
0700
0700
0700
0700
0700
0700
0700
0700
0700
0700
0700
0700
0700
0700
0700
0700
FFF8
FFF8
0000
0000
0700
0700
0700
ENDCHAR
STARTCHAR uni1ECB
ENCODING -1
SWIDTH 600 0
DWIDTH 19 0
BBX 13 29 3 -5
BITMAP
0700
0700
0700
0700
0000
0000
0000
7F00
7F00
0700
0700
0700
0700
0700
0700
0700
0700
0700
0700
0700
0700
0700
FFF8
FFF8
0000
0000
0700
0700
0700
ENDCHAR
STARTCHAR uni1ECC
ENCODING -1
SWIDTH 600 0
DWIDTH 19 0
BBX 17 28 1 -5
BITMAP
07F000
1FF800
3FFC00
3C1E00
780F00
700700
700700
E00380
E00380
E00380
E00380
E00380
E00380
E00380
E00380
E00380
700700
700700
780F00
3C1E00
3FFC00
1FF800
07F000
000000
000000
01C000
01C000
01C000
ENDCHAR
STARTCHAR uni1ECD
ENCODING -1
SWIDTH 600 0
DWIDTH 19 0
BBX 15 22 2 -5
BITMAP
07C0
1FF0
3EF8
701C
701C
E00E
E00E
E00E
E00E
E00E
E00E
E00E
701C
701C
3EF8
1FF0
07C0
0000
0000
0380
0380
0380
ENDCHAR
STARTCHAR uni1ECE
ENCODING -1
SWIDTH 600 0
DWIDTH 19 0
BBX 17 32 1 0
BITMAP
03E000
03F000
003000
007000
01E000
018000
018000
000000
000000
07F000
1FF800
3FFC00
3C1E00
780F00
700700
700700
E00380
E00380
E00380
E00380
E00380
E00380
E00380
E00380
E00380
700700
700700
780F00
3C1E00
3FFC00
1FF800
07F000
ENDCHAR
STARTCHAR uni1ECF
ENCODING -1
SWIDTH 600 0
DWIDTH 19 0
BBX 15 26 2 0
BITMAP
07C0
07E0
0060
00E0
03C0
0300
0300
0000
0000
07C0
1FF0
3EF8
701C
701C
E00E
E00E
E00E
E00E
E00E
E00E
E00E
701C
701C
3EF8
1FF0
07C0
ENDCHAR
STARTCHAR uni1ED0
ENCODING -1
SWIDTH 600 0
DWIDTH 19 0
BBX 17 32 1 0
BITMAP
000380
000700
000600
03CC00
07E000
0E7000
1C1800
000000
000000
07F000
1FF800
3FFC00
3C1E00
780F00
700700
700700
E00380
E00380
E00380
E00380
E00380
E00380
E00380
E00380
E00380
700700
700700
780F00
3C1E00
3FFC00
1FF800
07F000
ENDCHAR
STARTCHAR uni1ED1
ENCODING -1
SWIDTH 600 0
DWIDTH 19 0
BBX 17 26 2 0
BITMAP
000380
000700
000600
03CC00
07E000
0E7000
1C1800
000000
000000
07C000
1FF000
3EF800
701C00
701C00
E00E00
E00E00
E00E00
E00E00
E00E00
E00E00
E00E00
701C00
701C00
3EF800
1FF000
07C000
ENDCHAR
STARTCHAR uni1ED2
ENCODING -1
SWIDTH 600 0
DWIDTH 19 0
BBX 17 32 1 0
BITMAP
E00000
700000
300000
19E000
03F000
073800
0C0C00
000000
000000
07F000
1FF800
3FFC00
3C1E00
780F00
700700
700700
E00380
E00380
E00380
E00380
E00380
E00380
E00380
E00380
E00380
700700
700700
780F00
3C1E00
3FFC00
1FF800
07F000
ENDCHAR
STARTCHAR uni1ED3
ENCODING -1
SWIDTH 600 0
DWIDTH 19 0
BBX 16 26 1 0
BITMAP
E000
7000
3000
19E0
03F0
0738
0C0C
0000
0000
03E0
0FF8
1F7C
380E
380E
7007
7007
7007
7007
7007
7007
7007
380E
380E
1F7C
0FF8
03E0
ENDCHAR
STARTCHAR uni1ED4
ENCODING -1
SWIDTH 600 0
DWIDTH 19 0
BBX 17 34 1 0
BITMAP
000E00
000F00
000300
000300
000600
01E600
03F000
073800
0E1C00
000000
000000
07F000
1FF800
3FFC00
3C1E00
780F00
700700
700700
E00380
E00380
E00380
E00380
E00380
E00380
E00380
E00380
E00380
700700
700700
780F00
3C1E00
3FFC00
1FF800
07F000
ENDCHAR
STARTCHAR uni1ED5
ENCODING -1
SWIDTH 600 0
DWIDTH 19 0
BBX 15 28 2 0
BITMAP
001C
001E
0006
0006
000C
03CC
07E0
0E70
1C38
0000
0000
07C0
1FF0
3EF8
701C
701C
E00E
E00E
E00E
E00E
E00E
E00E
E00E
701C
701C
3EF8
1FF0
07C0
ENDCHAR
STARTCHAR uni1ED6
ENCODING -1
SWIDTH 600 0
DWIDTH 19 0
BBX 17 33 1 0
BITMAP
07CC00
0FFC00
0C7800
000000
01E000
03F000
073800
0C1C00
000000
000000
07F000
1FF800
3FFC00
3C1E00
780F00
700700
700700
E00380
E00380
E00380
E00380
E00380
E00380
E00380
E00380
E00380
700700
700700
780F00
3C1E00
3FFC00
1FF800
07F000
ENDCHAR
STARTCHAR uni1ED7
ENCODING -1
SWIDTH 600 0
DWIDTH 19 0
BBX 15 27 2 0
BITMAP
0F98
1FF8
18F0
0000
03C0
07E0
0E70
1838
0000
0000
07C0
1FF0
3EF8
701C
701C
E00E
E00E
E00E
E00E
E00E
E00E
E00E
701C
701C
3EF8
1FF0
07C0
ENDCHAR
STARTCHAR uni1ED8
ENCODING -1
SWIDTH 600 0
DWIDTH 19 0
BBX 17 35 1 -5
BITMAP
00E000
01F000
03B000
071800
0E0C00
000000
000000
07F000
1FF800
3FFC00
3C1E00
780F00
700700
700700
E00380
E00380
E00380
E00380
E00380
E00380
E00380
E00380
E00380
700700
700700
780F00
3C1E00
3FFC00
1FF800
07F000
000000
000000
01C000
01C000
01C000
ENDCHAR
STARTCHAR uni1ED9
ENCODING -1
SWIDTH 600 0
DWIDTH 19 0
BBX 15 29 2 -5
BITMAP
01C0
03E0
0760
0E30
1C18
0000
0000
07C0
1FF0
3EF8
701C
701C
E00E
E00E
E00E
E00E
E00E
E00E
E00E
701C
701C
3EF8
1FF0
07C0
0000
0000
0380
0380
0380
ENDCHAR
STARTCHAR uni1EDA
ENCODING -1
SWIDTH 600 0
DWIDTH 19 0
BBX 19 30 1 0
BITMAP
007800
007000
00E000
00C000
01C000
000000
0000E0
07F0E0
0FF9C0
3FFDC0
3C1F80
780F00
700700
700700
E00380
E00380
E00380
E00380
E00380
E00380
E00380
E00380
E00380
700700
700700
780F00
3C1E00
3FFC00
0FF800
07F000
ENDCHAR
STARTCHAR uni1EDB
ENCODING -1
SWIDTH 600 0
DWIDTH 19 0
BBX 17 24 2 0
BITMAP
00F000
00E000
01C000
018000
038000
000380
000380
07C700
1FF700
3EFE00
701C00
701C00
E00E00
E00E00
E00E00
E00E00
E00E00
E00E00
E00E00
701C00
701C00
3EF800
1FF000
07C000
ENDCHAR
STARTCHAR uni1EDC
ENCODING -1
SWIDTH 600 0
DWIDTH 19 0
BBX 19 30 1 0
BITMAP
078000
038000
01C000
01C000
006000
000000
0000E0
07F0E0
0FF9C0
3FFDC0
3C1F80
780F00
700700
700700
E00380
E00380
E00380
E00380
E00380
E00380
E00380
E00380
E00380
700700
700700
780F00
3C1E00
3FFC00
0FF800
07F000
ENDCHAR
STARTCHAR uni1EDD
ENCODING -1
SWIDTH 600 0
DWIDTH 19 0
BBX 17 24 2 0
BITMAP
0F0000
070000
038000
038000
00C000
000380
000380
07C700
1FF700
3EFE00
701C00
701C00
E00E00
E00E00
E00E00
E00E00
E00E00
E00E00
E00E00
701C00
701C00
3EF800
1FF000
07C000
ENDCHAR
STARTCHAR uni1EDE
ENCODING -1
SWIDTH 600 0
DWIDTH 19 0
BBX 19 32 1 0
BITMAP
03E000
03F000
003000
007000
01E000
018000
018000
000000
0000E0
07F0E0
0FF9C0
3FFDC0
3C1F80
780F00
700700
700700
E00380
E00380
E00380
E00380
E00380
E00380
E00380
E00380
E00380
700700
700700
780F00
3C1E00
3FFC00
0FF800
07F000
ENDCHAR
STARTCHAR uni1EDF
ENCODING -1
SWIDTH 600 0
DWIDTH 19 0
BBX 17 26 2 0
BITMAP
07C000
07E000
006000
00E000
03C000
030000
030000
000380
000380
07C700
1FF700
3EFE00
701C00
701C00
E00E00
E00E00
E00E00
E00E00
E00E00
E00E00
E00E00
701C00
701C00
3EF800
1FF000
07C000
ENDCHAR
STARTCHAR uni1EE0
ENCODING -1
SWIDTH 600 0
DWIDTH 19 0
BBX 19 29 1 0
BITMAP
070C00
0FDC00
1DF800
187000
000000
0000E0
07F0E0
0FF9C0
3FFDC0
3C1F80
780F00
700700
700700
E00380
E00380
E00380
E00380
E00380
E00380
E00380
E00380
E00380
700700
700700
780F00
3C1E00
3FFC00
0FF800
07F000
ENDCHAR
STARTCHAR uni1EE1
ENCODING -1
SWIDTH 600 0
DWIDTH 19 0
BBX 17 23 2 0
BITMAP
0E1800
1FB800
3BF000
30E000
000380
000380
07C700
1FF700
3EFE00
701C00
701C00
E00E00
E00E00
E00E00
E00E00
E00E00
E00E00
E00E00
701C00
701C00
3EF800
1FF000
07C000
ENDCHAR
STARTCHAR uni1EE2
ENCODING -1
SWIDTH 600 0
DWIDTH 19 0
BBX 19 29 1 -5
BITMAP
0000E0
07F0E0
0FF9C0
3FFDC0
3C1F80
780F00
700700
700700
E00380
E00380
E00380
E00380
E00380
E00380
E00380
E00380
E00380
700700
700700
780F00
3C1E00
3FFC00
0FF800
07F000
000000
000000
01C000
01C000
01C000
ENDCHAR
STARTCHAR uni1EE3
ENCODING -1
SWIDTH 600 0
DWIDTH 19 0
BBX 17 24 2 -5
BITMAP
000380
000380
07C700
1FF700
3EFE00
701C00
701C00
E00E00
E00E00
E00E00
E00E00
E00E00
E00E00
E00E00
701C00
701C00
3EF800
1FF000
07C000
000000
000000
038000
038000
038000
ENDCHAR
STARTCHAR uni1EE4
ENCODING -1
SWIDTH 600 0
DWIDTH 19 0
BBX 15 28 2 -5
BITMAP
E00E
E00E
E00E
E00E
E00E
E00E
E00E
E00E
E00E
E00E
E00E
E00E
E00E
E00E
E00E
E00E
E00E
E00E
701C
783C
3FF8
3FF0
0FE0
0000
0000
0380
0380
0380
ENDCHAR
STARTCHAR uni1EE5
ENCODING -1
SWIDTH 600 0
DWIDTH 19 0
BBX 13 22 3 -5
BITMAP
E038
E038
E038
E038
E038
E038
E038
E038
E038
E038
E038
E038
E038
F078
79F8
7FB8
1F18
0000
0000
0700
0700
0700
ENDCHAR
STARTCHAR uni1EE6
ENCODING -1
SWIDTH 600 0
DWIDTH 19 0
BBX 15 32 2 0
BITMAP
07C0
07E0
0060
00E0
03C0
0300
0300
0000
0000
E00E
E00E
E00E
E00E
E00E
E00E
E00E
E00E
E00E
E00E
E00E
E00E
E00E
E00E
E00E
E00E
E00E
E00E
701C
783C
3FF8
3FF0
0FE0
ENDCHAR
STARTCHAR uni1EE7
ENCODING -1
SWIDTH 600 0
DWIDTH 19 0
BBX 13 26 3 0
BITMAP
0F80
0FC0
00C0
01C0
0780
0600
0600
0000
0000
E038
E038
E038
E038
E038
E038
E038
E038
E038
E038
E038
E038
E038
F078
79F8
7FB8
1F18
ENDCHAR
STARTCHAR uni1EE8
ENCODING -1
SWIDTH 600 0
DWIDTH 19 0
BBX 19 30 2 0
BITMAP
01E000
01C000
038000
030000
070000
000000
0000E0
E038E0
E039C0
E039C0
E03F80
E03E00
E03800
E03800
E03800
E03800
E03800
E03800
E03800
E03800
E03800
E03800
E03800
E03800
E03800
E03800
707000
7FF000
3FE000
1F8000
ENDCHAR
STARTCHAR uni1EE9
ENCODING -1
SWIDTH 600 0
DWIDTH 19 0
BBX 17 24 3 0
BITMAP
03C000
038000
070000
060000
0E0380
000380
000700
E0E700
E0EE00
E0FE00
E0F800
E0E000
E0E000
E0E000
E0E000
E0E000
E0E000
E0E000
E0E000
E0E000
E1E000
7BE000
7EE000
3C6000
ENDCHAR
STARTCHAR uni1EEA
ENCODING -1
SWIDTH 600 0
DWIDTH 19 0
BBX 19 30 2 0
BITMAP
1E0000
0E0000
070000
070000
018000
000000
0000E0
E038E0
E039C0
E039C0
E03F80
E03E00
E03800
E03800
E03800
E03800
E03800
E03800
E03800
E03800
E03800
E03800
E03800
E03800
E03800
E03800
707000
7FF000
3FE000
1F8000
ENDCHAR
STARTCHAR uni1EEB
ENCODING -1
SWIDTH 600 0
DWIDTH 19 0
BBX 17 24 3 0
BITMAP
3C0000
1C0000
0E0000
0E0000
030380
000380
000700
E0E700
E0EE00
E0FE00
E0F800
E0E000
E0E000
E0E000
E0E000
E0E000
E0E000
E0E000
E0E000
E0E000
E1E000
7BE000
7EE000
3C6000
ENDCHAR
STARTCHAR uni1EEC
ENCODING -1
SWIDTH 600 0
DWIDTH 19 0
BBX 19 32 2 0
BITMAP
07C000
07E000
006000
00E000
03C000
030000
030000
000000
0000E0
E038E0
E039C0
E039C0
E03F80
E03E00
E03800
E03800
E03800
E03800
E03800
E03800
E03800
E03800
E03800
E03800
E03800
E03800
E03800
E03800
707000
7FF000
3FE000
1F8000
ENDCHAR
STARTCHAR uni1EED
ENCODING -1
SWIDTH 600 0
DWIDTH 19 0
BBX 17 26 3 0
BITMAP
1F0000
1F8000
018000
038000
0F0000
0C0000
0C0380
000380
000700
E0E700
E0EE00
E0FE00
E0F800
E0E000
E0E000
E0E000
E0E000
E0E000
E0E000
E0E000
E0E000
E0E000
E1E000
7BE000
7EE000
3C6000
ENDCHAR
STARTCHAR uni1EEE
ENCODING -1
SWIDTH 600 0
DWIDTH 19 0
BBX 19 29 2 0
BITMAP
0E1800
1FB800
3BF000
30E000
000000
0000E0
E038E0
E039C0
E039C0
E03F80
E03E00
E03800
E03800
E03800
E03800
E03800
E03800
E03800
E03800
E03800
E03800
E03800
E03800
E03800
E03800
707000
7FF000
3FE000
1F8000
ENDCHAR
STARTCHAR uni1EEF
ENCODING -1
SWIDTH 600 0
DWIDTH 19 0
BBX 17 23 3 0
BITMAP
1C3000
3F7000
77E000
61C380
000380
000700
E0E700
E0EE00
E0FE00
E0F800
E0E000
E0E000
E0E000
E0E000
E0E000
E0E000
E0E000
E0E000
E0E000
E1E000
7BE000
7EE000
3C6000
ENDCHAR
STARTCHAR uni1EF0
ENCODING -1
SWIDTH 600 0
DWIDTH 19 0
BBX 19 29 2 -5
BITMAP
0000E0
E038E0
E039C0
E039C0
E03F80
E03E00
E03800
E03800
E03800
E03800
E03800
E03800
E03800
E03800
E03800
E03800
E03800
E03800
E03800
E03800
707000
7FF000
3FE000
1F8000
000000
000000
038000
038000
038000
ENDCHAR
STARTCHAR uni1EF1
ENCODING -1
SWIDTH 600 0
DWIDTH 19 0
BBX 17 25 3 -5
BITMAP
000380
000380
000700
E0E700
E0EE00
E0FE00
E0F800
E0E000
E0E000
E0E000
E0E000
E0E000
E0E000
E0E000
E0E000
E0E000
E1E000
7BE000
7EE000
3C6000
000000
000000
0E0000
0E0000
0E0000
ENDCHAR
STARTCHAR uni1EF4
ENCODING -1
SWIDTH 600 0
DWIDTH 19 0
BBX 19 28 0 -5
BITMAP
E000E0
7001C0
7803C0
380380
1C0700
1C0700
0E0E00
0E0E00
071C00
071C00
03B800
01F000
01F000
00E000
00E000
00E000
00E000
00E000
00E000
00E000
00E000
00E000
00E000
000000
000000
00E000
00E000
00E000
ENDCHAR
STARTCHAR uni1EF5
ENCODING -1
SWIDTH 600 0
DWIDTH 19 0
BBX 17 25 1 -8
BITMAP
E00380
700700
700700
700700
380E00
380E00
1C1C00
1C1C00
0C1C00
0E3800
0E3800
077000
077000
037000
03E000
01E000
01C000
01C000
01C000
038E00
038E00
070E00
1F0000
FE0000
F80000
ENDCHAR
STARTCHAR uni1EF6
ENCODING -1
SWIDTH 600 0
DWIDTH 19 0
BBX 19 32 0 0
BITMAP
01F000
01F800
001800
003800
00F000
00C000
00C000
000000
000000
E000E0
7001C0
7803C0
380380
1C0700
1C0700
0E0E00
0E0E00
071C00
071C00
03B800
01F000
01F000
00E000
00E000
00E000
00E000
00E000
00E000
00E000
00E000
00E000
00E000
ENDCHAR
STARTCHAR uni1EF7
ENCODING -1
SWIDTH 600 0
DWIDTH 19 0
BBX 17 34 1 -8
BITMAP
03E000
03F000
003000
007000
01E000
018000
018000
000000
000000
E00380
700700
700700
700700
380E00
380E00
1C1C00
1C1C00
0C1C00
0E3800
0E3800
077000
077000
037000
03E000
01E000
01C000
01C000
01C000
038000
038000
070000
1F0000
FE0000
F80000
ENDCHAR
STARTCHAR uni1EF8
ENCODING -1
SWIDTH 600 0
DWIDTH 19 0
BBX 19 29 0 0
BITMAP
038600
07EE00
0EFC00
0C3800
000000
000000
E000E0
7001C0
7803C0
380380
1C0700
1C0700
0E0E00
0E0E00
071C00
071C00
03B800
01F000
01F000
00E000
00E000
00E000
00E000
00E000
00E000
00E000
00E000
00E000
00E000
ENDCHAR
STARTCHAR uni1EF9
ENCODING -1
SWIDTH 600 0
DWIDTH 19 0
BBX 17 31 1 -8
BITMAP
070C00
0FDC00
1DF800
187000
000000
000000
E00380
700700
700700
700700
380E00
380E00
1C1C00
1C1C00
0C1C00
0E3800
0E3800
077000
077000
037000
03E000
01E000
01C000
01C000
01C000
038000
038000
070000
1F0000
FE0000
F80000
ENDCHAR
STARTCHAR dong
ENCODING -1
SWIDTH 600 0
DWIDTH 19 0
BBX 17 29 2 -5
BITMAP
000E00
000E00
000E00
03FF80
03FF80
000E00
000E00
0FCE00
1FEE00
3EFE00
701E00
701E00
E00E00
E00E00
E00E00
E00E00
E00E00
E00E00
E00E00
700E00
701E00
3EFE00
1FEE00
0FC600
000000
000000
000000
7FFE00
7FFE00
ENDCHAR
STARTCHAR uni030F
ENCODING -1
SWIDTH 600 0
DWIDTH 19 0
BBX 12 5 3 19
BITMAP
E380
71C0
30C0
1860
0C30
ENDCHAR
STARTCHAR glyph884
ENCODING -1
SWIDTH 600 0
DWIDTH 19 0
BBX 14 7 3 19
BITMAP
001C
0038
0030
1E60
3F00
7380
E0C0
ENDCHAR
STARTCHAR glyph885
ENCODING -1
SWIDTH 600 0
DWIDTH 19 0
BBX 14 7 3 19
BITMAP
E000
7000
3000
19E0
03F0
0738
0C0C
ENDCHAR
STARTCHAR glyph886
ENCODING -1
SWIDTH 600 0
DWIDTH 19 0
BBX 12 9 3 19
BITMAP
00E0
00F0
0030
0030
0060
1E60
3F00
7380
E1C0
ENDCHAR
STARTCHAR glyph887
ENCODING -1
SWIDTH 600 0
DWIDTH 19 0
BBX 10 8 5 19
BITMAP
7CC0
FFC0
C780
0000
1E00
3F00
7380
C1C0
ENDCHAR
STARTCHAR glyph888
ENCODING -1
SWIDTH 600 0
DWIDTH 19 0
BBX 9 8 5 19
BITMAP
0700
0E00
0C00
1800
C180
C180
7F00
3E00
ENDCHAR
STARTCHAR glyph889
ENCODING -1
SWIDTH 600 0
DWIDTH 19 0
BBX 9 8 5 19
BITMAP
7000
3800
1800
0C00
C180
C180
7F00
3E00
ENDCHAR
STARTCHAR glyph890
ENCODING -1
SWIDTH 600 0
DWIDTH 19 0
BBX 9 9 5 19
BITMAP
1C00
1E00
0600
0E00
0800
C180
E380
7F00
3E00
ENDCHAR
STARTCHAR glyph891
ENCODING -1
SWIDTH 600 0
DWIDTH 19 0
BBX 9 8 5 19
BITMAP
7980
FF80
CF00
0000
C180
E380
7F00
3E00
ENDCHAR
STARTCHAR glyph892
ENCODING -1
SWIDTH 600 0
DWIDTH 19 0
BBX 5 7 7 -7
BITMAP
70
30
18
18
18
F8
F0
ENDCHAR
STARTCHAR glyph893
ENCODING -1
SWIDTH 600 0
DWIDTH 19 0
BBX 5 9 7 -6
BITMAP
18
18
18
18
18
18
B8
F8
F0
ENDCHAR
STARTCHAR glyph894
ENCODING -1
SWIDTH 600 0
DWIDTH 19 0
BBX 5 8 7 -6
BITMAP
18
18
18
18
18
18
F8
F0
ENDCHAR
STARTCHAR uni0162
ENCODING -1
SWIDTH 600 0
DWIDTH 19 0
BBX 16 31 1 -8
BITMAP
FFFF
FFFF
FFFF
01C0
01C0
01C0
01C0
01C0
01C0
01C0
01C0
01C0
01C0
01C0
01C0
01C0
01C0
01C0
01C0
01C0
01C0
01C0
01C0
00C0
00C0
01E0
0070
0030
0030
03E0
03C0
ENDCHAR
STARTCHAR uni0163
ENCODING -1
SWIDTH 600 0
DWIDTH 19 0
BBX 14 30 2 -8
BITMAP
0600
0600
0600
0E00
0E00
7FFC
FFFC
0E00
0E00
0E00
0E00
0E00
0E00
0E00
0E00
0E00
0E00
0E00
0E00
078C
07FC
01FC
0180
0180
03C0
00E0
0060
0060
07C0
0780
ENDCHAR
ENDFONT
